<ttFont>
    <TTGlyph name="A" xMin="0" yMin="0" xMax="1413" yMax="1468">
      <contour>
        <pt x="1413" y="0" on="1"/>
        <pt x="1079" y="0" on="1"/>
        <pt x="972" y="348" on="1"/>
        <pt x="440" y="348" on="1"/>
        <pt x="334" y="0" on="1"/>
        <pt x="0" y="0" on="1"/>
        <pt x="516" y="1468" on="1"/>
        <pt x="895" y="1468" on="1"/>
      </contour>
      <contour>
        <pt x="899" y="608" on="1"/>
        <pt x="733" y="1143" on="1"/>
        <pt x="714" y="1209" on="0"/>
        <pt x="707" y="1241" on="1"/>
        <pt x="674" y="1114" on="0"/>
        <pt x="518" y="608" on="1"/>
      </contour>
    </TTGlyph>
    <TTGlyph name="AE" xMin="0" yMin="0" xMax="1829" yMax="1462">
      <contour>
        <pt x="1829" y="1208" on="1"/>
        <pt x="1266" y="1208" on="1"/>
        <pt x="1266" y="887" on="1"/>
        <pt x="1792" y="887" on="1"/>
        <pt x="1792" y="633" on="1"/>
        <pt x="1266" y="633" on="1"/>
        <pt x="1266" y="256" on="1"/>
        <pt x="1829" y="256" on="1"/>
        <pt x="1829" y="0" on="1"/>
        <pt x="956" y="0" on="1"/>
        <pt x="956" y="348" on="1"/>
        <pt x="465" y="348" on="1"/>
        <pt x="315" y="0" on="1"/>
        <pt x="0" y="0" on="1"/>
        <pt x="655" y="1462" on="1"/>
        <pt x="1829" y="1462" on="1"/>
      </contour>
      <contour>
        <pt x="956" y="608" on="1"/>
        <pt x="956" y="1198" on="1"/>
        <pt x="829" y="1198" on="1"/>
        <pt x="578" y="608" on="1"/>
      </contour>
    </TTGlyph>
    <TTGlyph name="Aacute" xMin="0" yMin="0" xMax="1413" yMax="1907">
      <contour>
        <pt x="1118" y="1907" on="1"/>
        <pt x="1118" y="1886" on="1"/>
        <pt x="1067" y="1835" on="0"/>
        <pt x="817" y="1631" on="0"/>
        <pt x="744" y="1579" on="1"/>
        <pt x="541" y="1579" on="1"/>
        <pt x="541" y="1606" on="1"/>
        <pt x="709" y="1801" on="0"/>
        <pt x="776" y="1907" on="1"/>
      </contour>
      <contour>
        <pt x="1413" y="0" on="1"/>
        <pt x="1079" y="0" on="1"/>
        <pt x="973" y="348" on="1"/>
        <pt x="440" y="348" on="1"/>
        <pt x="334" y="0" on="1"/>
        <pt x="0" y="0" on="1"/>
        <pt x="516" y="1468" on="1"/>
        <pt x="895" y="1468" on="1"/>
      </contour>
      <contour>
        <pt x="518" y="608" on="1"/>
        <pt x="899" y="608" on="1"/>
        <pt x="757" y="1065" on="0"/>
        <pt x="715" y="1204" on="0"/>
        <pt x="707" y="1241" on="1"/>
        <pt x="674" y="1114" on="0"/>
      </contour>
    </TTGlyph>
    <TTGlyph name="Acircumflex" xMin="0" yMin="0" xMax="1413" yMax="1907">
      <contour>
        <pt x="1141" y="1579" on="1"/>
        <pt x="938" y="1579" on="1"/>
        <pt x="782" y="1671" on="0"/>
        <pt x="704" y="1755" on="1"/>
        <pt x="624" y="1672" on="0"/>
        <pt x="475" y="1579" on="1"/>
        <pt x="272" y="1579" on="1"/>
        <pt x="272" y="1606" on="1"/>
        <pt x="460" y="1794" on="0"/>
        <pt x="528" y="1907" on="1"/>
        <pt x="885" y="1907" on="1"/>
        <pt x="915" y="1856" on="0"/>
        <pt x="1068" y="1676" on="0"/>
        <pt x="1141" y="1606" on="1"/>
      </contour>
      <contour>
        <pt x="1413" y="0" on="1"/>
        <pt x="1079" y="0" on="1"/>
        <pt x="973" y="348" on="1"/>
        <pt x="440" y="348" on="1"/>
        <pt x="334" y="0" on="1"/>
        <pt x="0" y="0" on="1"/>
        <pt x="516" y="1468" on="1"/>
        <pt x="895" y="1468" on="1"/>
      </contour>
      <contour>
        <pt x="518" y="608" on="1"/>
        <pt x="899" y="608" on="1"/>
        <pt x="757" y="1065" on="0"/>
        <pt x="715" y="1204" on="0"/>
        <pt x="707" y="1241" on="1"/>
        <pt x="674" y="1114" on="0"/>
      </contour>
    </TTGlyph>
    <TTGlyph name="Adieresis" xMin="0" yMin="0" xMax="1413" yMax="1878">
      <contour>
        <pt x="439" y="1878" on="0"/>
        <pt x="569" y="1878" on="0"/>
        <pt x="645" y="1804" on="0"/>
        <pt x="645" y="1683" on="0"/>
        <pt x="569" y="1610" on="0"/>
        <pt x="440" y="1610" on="0"/>
        <pt x="365" y="1680" on="0"/>
        <pt x="365" y="1807" on="0"/>
      </contour>
      <contour>
        <pt x="768" y="1810" on="0"/>
        <pt x="846" y="1878" on="0"/>
        <pt x="974" y="1878" on="0"/>
        <pt x="1051" y="1806" on="0"/>
        <pt x="1051" y="1682" on="0"/>
        <pt x="973" y="1610" on="0"/>
        <pt x="846" y="1610" on="0"/>
        <pt x="768" y="1677" on="0"/>
      </contour>
      <contour>
        <pt x="1413" y="0" on="1"/>
        <pt x="1079" y="0" on="1"/>
        <pt x="973" y="348" on="1"/>
        <pt x="440" y="348" on="1"/>
        <pt x="334" y="0" on="1"/>
        <pt x="0" y="0" on="1"/>
        <pt x="516" y="1468" on="1"/>
        <pt x="895" y="1468" on="1"/>
      </contour>
      <contour>
        <pt x="518" y="608" on="1"/>
        <pt x="899" y="608" on="1"/>
        <pt x="757" y="1065" on="0"/>
        <pt x="715" y="1204" on="0"/>
        <pt x="707" y="1241" on="1"/>
        <pt x="674" y="1114" on="0"/>
      </contour>
    </TTGlyph>
    <TTGlyph name="Agrave" xMin="0" yMin="0" xMax="1413" yMax="1907">
      <contour>
        <pt x="338" y="1907" on="1"/>
        <pt x="680" y="1907" on="1"/>
        <pt x="747" y="1801" on="0"/>
        <pt x="915" y="1606" on="1"/>
        <pt x="915" y="1579" on="1"/>
        <pt x="713" y="1579" on="1"/>
        <pt x="644" y="1627" on="0"/>
        <pt x="402" y="1824" on="0"/>
        <pt x="338" y="1886" on="1"/>
      </contour>
      <contour>
        <pt x="1413" y="0" on="1"/>
        <pt x="1079" y="0" on="1"/>
        <pt x="973" y="348" on="1"/>
        <pt x="440" y="348" on="1"/>
        <pt x="334" y="0" on="1"/>
        <pt x="0" y="0" on="1"/>
        <pt x="516" y="1468" on="1"/>
        <pt x="895" y="1468" on="1"/>
      </contour>
      <contour>
        <pt x="518" y="608" on="1"/>
        <pt x="899" y="608" on="1"/>
        <pt x="757" y="1065" on="0"/>
        <pt x="715" y="1204" on="0"/>
        <pt x="707" y="1241" on="1"/>
        <pt x="674" y="1114" on="0"/>
      </contour>
    </TTGlyph>
    <TTGlyph name="Aring" xMin="0" yMin="0" xMax="1413" yMax="1802">
      <contour>
        <pt x="457" y="1565" on="1"/>
        <pt x="457" y="1673" on="0"/>
        <pt x="592" y="1802" on="0"/>
        <pt x="815" y="1802" on="0"/>
        <pt x="959" y="1670" on="0"/>
        <pt x="959" y="1567" on="1"/>
        <pt x="959" y="1481" on="0"/>
        <pt x="912" y="1420" on="1"/>
        <pt x="1413" y="0" on="1"/>
        <pt x="1079" y="0" on="1"/>
        <pt x="973" y="348" on="1"/>
        <pt x="440" y="348" on="1"/>
        <pt x="334" y="0" on="1"/>
        <pt x="0" y="0" on="1"/>
        <pt x="499" y="1421" on="1"/>
        <pt x="457" y="1480" on="0"/>
      </contour>
      <contour>
        <pt x="748" y="1661" on="0"/>
        <pt x="662" y="1661" on="0"/>
        <pt x="609" y="1609" on="0"/>
        <pt x="609" y="1519" on="0"/>
        <pt x="658" y="1468" on="0"/>
        <pt x="748" y="1468" on="0"/>
        <pt x="801" y="1521" on="0"/>
        <pt x="801" y="1609" on="0"/>
      </contour>
      <contour>
        <pt x="518" y="608" on="1"/>
        <pt x="899" y="608" on="1"/>
        <pt x="757" y="1065" on="0"/>
        <pt x="715" y="1204" on="0"/>
        <pt x="707" y="1241" on="1"/>
        <pt x="674" y="1114" on="0"/>
      </contour>
    </TTGlyph>
    <TTGlyph name="Atilde" xMin="0" yMin="0" xMax="1413" yMax="1888">
      <contour>
        <pt x="850" y="1579" on="1"/>
        <pt x="803" y="1579" on="0"/>
        <pt x="746" y="1606" on="1"/>
        <pt x="727" y="1614" on="0"/>
        <pt x="604" y="1676" on="0"/>
        <pt x="554" y="1684" on="0"/>
        <pt x="543" y="1684" on="1"/>
        <pt x="510" y="1684" on="0"/>
        <pt x="454" y="1629" on="0"/>
        <pt x="442" y="1577" on="1"/>
        <pt x="293" y="1577" on="1"/>
        <pt x="304" y="1722" on="0"/>
        <pt x="448" y="1886" on="0"/>
        <pt x="565" y="1886" on="1"/>
        <pt x="620" y="1886" on="0"/>
        <pt x="724" y="1834" on="1"/>
        <pt x="760" y="1816" on="0"/>
        <pt x="776" y="1808" on="1"/>
        <pt x="830" y="1782" on="0"/>
        <pt x="905" y="1782" on="0"/>
        <pt x="961" y="1837" on="0"/>
        <pt x="973" y="1888" on="1"/>
        <pt x="1122" y="1888" on="1"/>
        <pt x="1111" y="1743" on="0"/>
        <pt x="966" y="1579" on="0"/>
      </contour>
      <contour>
        <pt x="1413" y="0" on="1"/>
        <pt x="1079" y="0" on="1"/>
        <pt x="973" y="348" on="1"/>
        <pt x="440" y="348" on="1"/>
        <pt x="334" y="0" on="1"/>
        <pt x="0" y="0" on="1"/>
        <pt x="516" y="1468" on="1"/>
        <pt x="895" y="1468" on="1"/>
      </contour>
      <contour>
        <pt x="518" y="608" on="1"/>
        <pt x="899" y="608" on="1"/>
        <pt x="757" y="1065" on="0"/>
        <pt x="715" y="1204" on="0"/>
        <pt x="707" y="1241" on="1"/>
        <pt x="674" y="1114" on="0"/>
      </contour>
    </TTGlyph>
    <TTGlyph name="B" xMin="184" yMin="0" xMax="1268" yMax="1462">
      <contour>
        <pt x="184" y="1462" on="1"/>
        <pt x="639" y="1462" on="1"/>
        <pt x="948" y="1462" on="0"/>
        <pt x="1231" y="1284" on="0"/>
        <pt x="1231" y="1092" on="1"/>
        <pt x="1231" y="962" on="0"/>
        <pt x="1107" y="792" on="0"/>
        <pt x="1006" y="776" on="1"/>
        <pt x="1006" y="766" on="1"/>
        <pt x="1143" y="736" on="0"/>
        <pt x="1268" y="567" on="0"/>
        <pt x="1268" y="424" on="1"/>
        <pt x="1268" y="224" on="0"/>
        <pt x="980" y="0" on="0"/>
        <pt x="731" y="0" on="1"/>
        <pt x="184" y="0" on="1"/>
      </contour>
      <contour>
        <pt x="494" y="1208" on="1"/>
        <pt x="494" y="883" on="1"/>
        <pt x="674" y="883" on="1"/>
        <pt x="801" y="883" on="0"/>
        <pt x="913" y="961" on="0"/>
        <pt x="913" y="1134" on="0"/>
        <pt x="791" y="1208" on="0"/>
        <pt x="657" y="1208" on="1"/>
      </contour>
      <contour>
        <pt x="494" y="637" on="1"/>
        <pt x="494" y="256" on="1"/>
        <pt x="696" y="256" on="1"/>
        <pt x="824" y="256" on="0"/>
        <pt x="946" y="354" on="0"/>
        <pt x="946" y="455" on="1"/>
        <pt x="946" y="637" on="0"/>
        <pt x="686" y="637" on="1"/>
      </contour>
    </TTGlyph>
    <TTGlyph name="C" xMin="119" yMin="-20" xMax="1233" yMax="1483">
      <contour>
        <pt x="776" y="-20" on="1"/>
        <pt x="457" y="-20" on="0"/>
        <pt x="119" y="366" on="0"/>
        <pt x="119" y="729" on="1"/>
        <pt x="119" y="734" on="0"/>
        <pt x="119" y="739" on="1"/>
        <pt x="119" y="959" on="0"/>
        <pt x="285" y="1300" on="0"/>
        <pt x="593" y="1483" on="0"/>
        <pt x="792" y="1483" on="1"/>
        <pt x="799" y="1483" on="0"/>
        <pt x="805" y="1483" on="1"/>
        <pt x="1020" y="1483" on="0"/>
        <pt x="1233" y="1380" on="1"/>
        <pt x="1133" y="1128" on="1"/>
        <pt x="930" y="1225" on="0"/>
        <pt x="805" y="1225" on="1"/>
        <pt x="630" y="1225" on="0"/>
        <pt x="438" y="962" on="0"/>
        <pt x="438" y="727" on="1"/>
        <pt x="438" y="238" on="0"/>
        <pt x="805" y="238" on="1"/>
        <pt x="958" y="238" on="0"/>
        <pt x="1178" y="315" on="1"/>
        <pt x="1178" y="55" on="1"/>
        <pt x="998" y="-20" on="0"/>
      </contour>
    </TTGlyph>
    <TTGlyph name="Ccedilla" xMin="119" yMin="-492" xMax="1233" yMax="1483">
      <contour>
        <pt x="805" y="1225" on="1"/>
        <pt x="631" y="1225" on="0"/>
        <pt x="438" y="962" on="0"/>
        <pt x="438" y="727" on="1"/>
        <pt x="438" y="238" on="0"/>
        <pt x="805" y="238" on="1"/>
        <pt x="958" y="238" on="0"/>
        <pt x="1178" y="315" on="1"/>
        <pt x="1178" y="55" on="1"/>
        <pt x="1017" y="-13" on="0"/>
        <pt x="815" y="-19" on="1"/>
        <pt x="797" y="-61" on="1"/>
        <pt x="872" y="-85" on="0"/>
        <pt x="959" y="-187" on="0"/>
        <pt x="959" y="-250" on="1"/>
        <pt x="959" y="-377" on="0"/>
        <pt x="810" y="-492" on="0"/>
        <pt x="650" y="-492" on="1"/>
        <pt x="572" y="-492" on="0"/>
        <pt x="504" y="-471" on="1"/>
        <pt x="504" y="-303" on="1"/>
        <pt x="588" y="-324" on="0"/>
        <pt x="647" y="-324" on="1"/>
        <pt x="719" y="-324" on="0"/>
        <pt x="719" y="-262" on="1"/>
        <pt x="719" y="-179" on="0"/>
        <pt x="553" y="-154" on="1"/>
        <pt x="627" y="-8" on="1"/>
        <pt x="379" y="35" on="0"/>
        <pt x="119" y="412" on="0"/>
        <pt x="119" y="729" on="1"/>
        <pt x="119" y="957" on="0"/>
        <pt x="285" y="1301" on="0"/>
        <pt x="595" y="1483" on="0"/>
        <pt x="1020" y="1483" on="0"/>
        <pt x="1233" y="1380" on="1"/>
        <pt x="1133" y="1128" on="1"/>
        <pt x="930" y="1225" on="0"/>
      </contour>
    </TTGlyph>
    <TTGlyph name="D" xMin="184" yMin="0" xMax="1397" yMax="1462">
      <contour>
        <pt x="184" y="1462" on="1"/>
        <pt x="643" y="1462" on="1"/>
        <pt x="1001" y="1462" on="0"/>
        <pt x="1397" y="1084" on="0"/>
        <pt x="1397" y="745" on="1"/>
        <pt x="1397" y="384" on="0"/>
        <pt x="986" y="0" on="0"/>
        <pt x="598" y="0" on="1"/>
        <pt x="184" y="0" on="1"/>
      </contour>
      <contour>
        <pt x="494" y="1208" on="1"/>
        <pt x="494" y="256" on="1"/>
        <pt x="627" y="256" on="1"/>
        <pt x="1075" y="256" on="0"/>
        <pt x="1075" y="737" on="1"/>
        <pt x="1075" y="1208" on="0"/>
        <pt x="659" y="1208" on="1"/>
      </contour>
    </TTGlyph>
    <TTGlyph name="E" xMin="184" yMin="0" xMax="1026" yMax="1462">
      <contour>
        <pt x="1026" y="1208" on="1"/>
        <pt x="494" y="1208" on="1"/>
        <pt x="494" y="887" on="1"/>
        <pt x="988" y="887" on="1"/>
        <pt x="988" y="633" on="1"/>
        <pt x="494" y="633" on="1"/>
        <pt x="494" y="256" on="1"/>
        <pt x="1026" y="256" on="1"/>
        <pt x="1026" y="0" on="1"/>
        <pt x="184" y="0" on="1"/>
        <pt x="184" y="1462" on="1"/>
        <pt x="1026" y="1462" on="1"/>
      </contour>
    </TTGlyph>
    <TTGlyph name="Eacute" xMin="184" yMin="0" xMax="1026" yMax="1907">
      <contour>
        <pt x="1001" y="1907" on="1"/>
        <pt x="1001" y="1886" on="1"/>
        <pt x="950" y="1835" on="0"/>
        <pt x="700" y="1631" on="0"/>
        <pt x="627" y="1579" on="1"/>
        <pt x="424" y="1579" on="1"/>
        <pt x="424" y="1606" on="1"/>
        <pt x="592" y="1801" on="0"/>
        <pt x="659" y="1907" on="1"/>
      </contour>
      <contour>
        <pt x="1026" y="1208" on="1"/>
        <pt x="494" y="1208" on="1"/>
        <pt x="494" y="887" on="1"/>
        <pt x="989" y="887" on="1"/>
        <pt x="989" y="633" on="1"/>
        <pt x="494" y="633" on="1"/>
        <pt x="494" y="256" on="1"/>
        <pt x="1026" y="256" on="1"/>
        <pt x="1026" y="0" on="1"/>
        <pt x="184" y="0" on="1"/>
        <pt x="184" y="1462" on="1"/>
        <pt x="1026" y="1462" on="1"/>
      </contour>
    </TTGlyph>
    <TTGlyph name="Ecircumflex" xMin="175" yMin="0" xMax="1044" yMax="1907">
      <contour>
        <pt x="1044" y="1579" on="1"/>
        <pt x="841" y="1579" on="1"/>
        <pt x="685" y="1671" on="0"/>
        <pt x="607" y="1755" on="1"/>
        <pt x="527" y="1672" on="0"/>
        <pt x="378" y="1579" on="1"/>
        <pt x="175" y="1579" on="1"/>
        <pt x="175" y="1606" on="1"/>
        <pt x="364" y="1794" on="0"/>
        <pt x="431" y="1907" on="1"/>
        <pt x="788" y="1907" on="1"/>
        <pt x="818" y="1856" on="0"/>
        <pt x="971" y="1676" on="0"/>
        <pt x="1044" y="1606" on="1"/>
      </contour>
      <contour>
        <pt x="1026" y="1208" on="1"/>
        <pt x="494" y="1208" on="1"/>
        <pt x="494" y="887" on="1"/>
        <pt x="989" y="887" on="1"/>
        <pt x="989" y="633" on="1"/>
        <pt x="494" y="633" on="1"/>
        <pt x="494" y="256" on="1"/>
        <pt x="1026" y="256" on="1"/>
        <pt x="1026" y="0" on="1"/>
        <pt x="184" y="0" on="1"/>
        <pt x="184" y="1462" on="1"/>
        <pt x="1026" y="1462" on="1"/>
      </contour>
    </TTGlyph>
    <TTGlyph name="Edieresis" xMin="184" yMin="0" xMax="1026" yMax="1878">
      <contour>
        <pt x="346" y="1878" on="0"/>
        <pt x="476" y="1878" on="0"/>
        <pt x="552" y="1804" on="0"/>
        <pt x="552" y="1683" on="0"/>
        <pt x="476" y="1610" on="0"/>
        <pt x="347" y="1610" on="0"/>
        <pt x="272" y="1680" on="0"/>
        <pt x="272" y="1807" on="0"/>
      </contour>
      <contour>
        <pt x="675" y="1810" on="0"/>
        <pt x="753" y="1878" on="0"/>
        <pt x="881" y="1878" on="0"/>
        <pt x="958" y="1806" on="0"/>
        <pt x="958" y="1682" on="0"/>
        <pt x="880" y="1610" on="0"/>
        <pt x="753" y="1610" on="0"/>
        <pt x="675" y="1677" on="0"/>
      </contour>
      <contour>
        <pt x="1026" y="1208" on="1"/>
        <pt x="494" y="1208" on="1"/>
        <pt x="494" y="887" on="1"/>
        <pt x="989" y="887" on="1"/>
        <pt x="989" y="633" on="1"/>
        <pt x="494" y="633" on="1"/>
        <pt x="494" y="256" on="1"/>
        <pt x="1026" y="256" on="1"/>
        <pt x="1026" y="0" on="1"/>
        <pt x="184" y="0" on="1"/>
        <pt x="184" y="1462" on="1"/>
        <pt x="1026" y="1462" on="1"/>
      </contour>
    </TTGlyph>
    <TTGlyph name="Egrave" xMin="184" yMin="0" xMax="1026" yMax="1907">
      <contour>
        <pt x="259" y="1907" on="1"/>
        <pt x="601" y="1907" on="1"/>
        <pt x="668" y="1801" on="0"/>
        <pt x="836" y="1606" on="1"/>
        <pt x="836" y="1579" on="1"/>
        <pt x="634" y="1579" on="1"/>
        <pt x="565" y="1627" on="0"/>
        <pt x="323" y="1824" on="0"/>
        <pt x="259" y="1886" on="1"/>
      </contour>
      <contour>
        <pt x="1026" y="1208" on="1"/>
        <pt x="494" y="1208" on="1"/>
        <pt x="494" y="887" on="1"/>
        <pt x="989" y="887" on="1"/>
        <pt x="989" y="633" on="1"/>
        <pt x="494" y="633" on="1"/>
        <pt x="494" y="256" on="1"/>
        <pt x="1026" y="256" on="1"/>
        <pt x="1026" y="0" on="1"/>
        <pt x="184" y="0" on="1"/>
        <pt x="184" y="1462" on="1"/>
        <pt x="1026" y="1462" on="1"/>
      </contour>
    </TTGlyph>
    <TTGlyph name="Eth" xMin="47" yMin="0" xMax="1397" yMax="1462">
      <contour>
        <pt x="184" y="1462" on="1"/>
        <pt x="643" y="1462" on="1"/>
        <pt x="1000" y="1462" on="0"/>
        <pt x="1397" y="1084" on="0"/>
        <pt x="1397" y="745" on="1"/>
        <pt x="1397" y="384" on="0"/>
        <pt x="986" y="0" on="0"/>
        <pt x="598" y="0" on="1"/>
        <pt x="184" y="0" on="1"/>
        <pt x="184" y="596" on="1"/>
        <pt x="47" y="596" on="1"/>
        <pt x="47" y="850" on="1"/>
        <pt x="184" y="850" on="1"/>
      </contour>
      <contour>
        <pt x="494" y="1208" on="1"/>
        <pt x="494" y="850" on="1"/>
        <pt x="731" y="850" on="1"/>
        <pt x="731" y="596" on="1"/>
        <pt x="494" y="596" on="1"/>
        <pt x="494" y="256" on="1"/>
        <pt x="625" y="256" on="1"/>
        <pt x="1075" y="256" on="0"/>
        <pt x="1075" y="737" on="1"/>
        <pt x="1075" y="1208" on="0"/>
        <pt x="657" y="1208" on="1"/>
      </contour>
    </TTGlyph>
    <TTGlyph name="Euro" xMin="66" yMin="-20" xMax="1155" yMax="1473">
      <contour>
        <pt x="66" y="950" on="1"/>
        <pt x="199" y="950" on="1"/>
        <pt x="237" y="1193" on="0"/>
        <pt x="560" y="1473" on="0"/>
        <pt x="803" y="1473" on="1"/>
        <pt x="992" y="1473" on="0"/>
        <pt x="1155" y="1391" on="1"/>
        <pt x="1057" y="1159" on="1"/>
        <pt x="909" y="1225" on="0"/>
        <pt x="680" y="1225" on="0"/>
        <pt x="523" y="1084" on="0"/>
        <pt x="500" y="950" on="1"/>
        <pt x="903" y="950" on="1"/>
        <pt x="903" y="774" on="1"/>
        <pt x="485" y="774" on="1"/>
        <pt x="483" y="739" on="1"/>
        <pt x="483" y="692" on="1"/>
        <pt x="485" y="659" on="1"/>
        <pt x="840" y="659" on="1"/>
        <pt x="840" y="481" on="1"/>
        <pt x="502" y="481" on="1"/>
        <pt x="553" y="238" on="0"/>
        <pt x="823" y="238" on="1"/>
        <pt x="966" y="238" on="0"/>
        <pt x="1098" y="295" on="1"/>
        <pt x="1098" y="39" on="1"/>
        <pt x="982" y="-20" on="0"/>
        <pt x="805" y="-20" on="1"/>
        <pt x="559" y="-20" on="0"/>
        <pt x="243" y="248" on="0"/>
        <pt x="203" y="481" on="1"/>
        <pt x="66" y="481" on="1"/>
        <pt x="66" y="659" on="1"/>
        <pt x="184" y="659" on="1"/>
        <pt x="180" y="679" on="0"/>
        <pt x="180" y="721" on="1"/>
        <pt x="182" y="774" on="1"/>
        <pt x="66" y="774" on="1"/>
      </contour>
    </TTGlyph>
    <TTGlyph name="F" xMin="184" yMin="0" xMax="1022" yMax="1462">
      <contour>
        <pt x="1022" y="1208" on="1"/>
        <pt x="489" y="1208" on="1"/>
        <pt x="489" y="831" on="1"/>
        <pt x="984" y="831" on="1"/>
        <pt x="984" y="578" on="1"/>
        <pt x="489" y="578" on="1"/>
        <pt x="489" y="0" on="1"/>
        <pt x="184" y="0" on="1"/>
        <pt x="184" y="1462" on="1"/>
        <pt x="1022" y="1462" on="1"/>
      </contour>
    </TTGlyph>
    <TTGlyph name="G" xMin="119" yMin="-20" xMax="1319" yMax="1483">
      <contour>
        <pt x="1319" y="821" on="1"/>
        <pt x="1319" y="63" on="1"/>
        <pt x="1063" y="-20" on="0"/>
        <pt x="799" y="-20" on="1"/>
        <pt x="469" y="-20" on="0"/>
        <pt x="293" y="174" on="1"/>
        <pt x="119" y="369" on="0"/>
        <pt x="119" y="1087" on="0"/>
        <pt x="321" y="1285" on="1"/>
        <pt x="524" y="1483" on="0"/>
        <pt x="883" y="1483" on="1"/>
        <pt x="1108" y="1483" on="0"/>
        <pt x="1317" y="1393" on="1"/>
        <pt x="1214" y="1145" on="1"/>
        <pt x="1052" y="1225" on="0"/>
        <pt x="881" y="1225" on="1"/>
        <pt x="680" y="1225" on="0"/>
        <pt x="438" y="954" on="0"/>
        <pt x="438" y="489" on="0"/>
        <pt x="633" y="238" on="0"/>
        <pt x="819" y="238" on="1"/>
        <pt x="913" y="238" on="0"/>
        <pt x="1016" y="258" on="1"/>
        <pt x="1016" y="563" on="1"/>
        <pt x="739" y="563" on="1"/>
        <pt x="739" y="821" on="1"/>
      </contour>
    </TTGlyph>
    <TTGlyph name="H" xMin="184" yMin="0" xMax="1382" yMax="1462">
      <contour>
        <pt x="1382" y="0" on="1"/>
        <pt x="1073" y="0" on="1"/>
        <pt x="1073" y="631" on="1"/>
        <pt x="494" y="631" on="1"/>
        <pt x="494" y="0" on="1"/>
        <pt x="184" y="0" on="1"/>
        <pt x="184" y="1462" on="1"/>
        <pt x="494" y="1462" on="1"/>
        <pt x="494" y="889" on="1"/>
        <pt x="1073" y="889" on="1"/>
        <pt x="1073" y="1462" on="1"/>
        <pt x="1382" y="1462" on="1"/>
      </contour>
    </TTGlyph>
    <TTGlyph name="I" xMin="184" yMin="0" xMax="494" yMax="1462">
      <contour>
        <pt x="494" y="0" on="1"/>
        <pt x="184" y="0" on="1"/>
        <pt x="184" y="1462" on="1"/>
        <pt x="494" y="1462" on="1"/>
      </contour>
    </TTGlyph>
    <TTGlyph name="Iacute" xMin="167" yMin="0" xMax="744" yMax="1907">
      <contour>
        <pt x="744" y="1907" on="1"/>
        <pt x="744" y="1886" on="1"/>
        <pt x="693" y="1835" on="0"/>
        <pt x="443" y="1631" on="0"/>
        <pt x="370" y="1579" on="1"/>
        <pt x="167" y="1579" on="1"/>
        <pt x="167" y="1606" on="1"/>
        <pt x="335" y="1801" on="0"/>
        <pt x="402" y="1907" on="1"/>
      </contour>
      <contour>
        <pt x="494" y="0" on="1"/>
        <pt x="184" y="0" on="1"/>
        <pt x="184" y="1462" on="1"/>
        <pt x="494" y="1462" on="1"/>
      </contour>
    </TTGlyph>
    <TTGlyph name="Icircumflex" xMin="-96" yMin="0" xMax="773" yMax="1907">
      <contour>
        <pt x="773" y="1579" on="1"/>
        <pt x="570" y="1579" on="1"/>
        <pt x="414" y="1671" on="0"/>
        <pt x="336" y="1755" on="1"/>
        <pt x="256" y="1672" on="0"/>
        <pt x="107" y="1579" on="1"/>
        <pt x="-96" y="1579" on="1"/>
        <pt x="-96" y="1606" on="1"/>
        <pt x="93" y="1794" on="0"/>
        <pt x="160" y="1907" on="1"/>
        <pt x="517" y="1907" on="1"/>
        <pt x="547" y="1856" on="0"/>
        <pt x="700" y="1676" on="0"/>
        <pt x="773" y="1606" on="1"/>
      </contour>
      <contour>
        <pt x="494" y="0" on="1"/>
        <pt x="184" y="0" on="1"/>
        <pt x="184" y="1462" on="1"/>
        <pt x="494" y="1462" on="1"/>
      </contour>
    </TTGlyph>
    <TTGlyph name="Idieresis" xMin="-3" yMin="0" xMax="683" yMax="1878">
      <contour>
        <pt x="71" y="1878" on="0"/>
        <pt x="201" y="1878" on="0"/>
        <pt x="277" y="1804" on="0"/>
        <pt x="277" y="1683" on="0"/>
        <pt x="201" y="1610" on="0"/>
        <pt x="72" y="1610" on="0"/>
        <pt x="-3" y="1680" on="0"/>
        <pt x="-3" y="1807" on="0"/>
      </contour>
      <contour>
        <pt x="400" y="1810" on="0"/>
        <pt x="478" y="1878" on="0"/>
        <pt x="606" y="1878" on="0"/>
        <pt x="683" y="1806" on="0"/>
        <pt x="683" y="1682" on="0"/>
        <pt x="605" y="1610" on="0"/>
        <pt x="478" y="1610" on="0"/>
        <pt x="400" y="1677" on="0"/>
      </contour>
      <contour>
        <pt x="494" y="0" on="1"/>
        <pt x="184" y="0" on="1"/>
        <pt x="184" y="1462" on="1"/>
        <pt x="494" y="1462" on="1"/>
      </contour>
    </TTGlyph>
    <TTGlyph name="Igrave" xMin="-58" yMin="0" xMax="519" yMax="1907">
      <contour>
        <pt x="-58" y="1907" on="1"/>
        <pt x="284" y="1907" on="1"/>
        <pt x="351" y="1801" on="0"/>
        <pt x="519" y="1606" on="1"/>
        <pt x="519" y="1579" on="1"/>
        <pt x="317" y="1579" on="1"/>
        <pt x="248" y="1627" on="0"/>
        <pt x="6" y="1824" on="0"/>
        <pt x="-58" y="1886" on="1"/>
      </contour>
      <contour>
        <pt x="494" y="0" on="1"/>
        <pt x="184" y="0" on="1"/>
        <pt x="184" y="1462" on="1"/>
        <pt x="494" y="1462" on="1"/>
      </contour>
    </TTGlyph>
    <TTGlyph name="J" xMin="-152" yMin="-430" xMax="494" yMax="1462">
      <contour>
        <pt x="494" y="1462" on="1"/>
        <pt x="494" y="93" on="1"/>
        <pt x="494" y="-163" on="0"/>
        <pt x="259" y="-430" on="0"/>
        <pt x="31" y="-430" on="1"/>
        <pt x="-74" y="-430" on="0"/>
        <pt x="-152" y="-408" on="1"/>
        <pt x="-152" y="-150" on="1"/>
        <pt x="-69" y="-170" on="0"/>
        <pt x="-6" y="-170" on="1"/>
        <pt x="95" y="-170" on="0"/>
        <pt x="184" y="-44" on="0"/>
        <pt x="184" y="92" on="1"/>
        <pt x="184" y="1462" on="1"/>
      </contour>
    </TTGlyph>
    <TTGlyph name="K" xMin="184" yMin="0" xMax="1360" yMax="1462">
      <contour>
        <pt x="494" y="0" on="1"/>
        <pt x="184" y="0" on="1"/>
        <pt x="184" y="1462" on="1"/>
        <pt x="494" y="1462" on="1"/>
        <pt x="494" y="793" on="1"/>
        <pt x="616" y="965" on="1"/>
        <pt x="1012" y="1462" on="1"/>
        <pt x="1356" y="1462" on="1"/>
        <pt x="846" y="815" on="1"/>
        <pt x="1360" y="0" on="1"/>
        <pt x="1008" y="0" on="1"/>
        <pt x="625" y="616" on="1"/>
        <pt x="494" y="522" on="1"/>
      </contour>
    </TTGlyph>
    <TTGlyph name="L" xMin="184" yMin="0" xMax="1087" yMax="1462">
      <contour>
        <pt x="494" y="256" on="1"/>
        <pt x="1087" y="256" on="1"/>
        <pt x="1087" y="0" on="1"/>
        <pt x="184" y="0" on="1"/>
        <pt x="184" y="1462" on="1"/>
        <pt x="494" y="1462" on="1"/>
      </contour>
    </TTGlyph>
    <TTGlyph name="M" xMin="184" yMin="0" xMax="1747" yMax="1462">
      <contour>
        <pt x="1747" y="0" on="1"/>
        <pt x="1458" y="0" on="1"/>
        <pt x="1458" y="692" on="1"/>
        <pt x="1458" y="762" on="0"/>
        <pt x="1460" y="844" on="0"/>
        <pt x="1473" y="1145" on="1"/>
        <pt x="1464" y="1145" on="1"/>
        <pt x="1087" y="0" on="1"/>
        <pt x="803" y="0" on="1"/>
        <pt x="451" y="1147" on="1"/>
        <pt x="442" y="1147" on="1"/>
        <pt x="461" y="806" on="0"/>
        <pt x="461" y="680" on="1"/>
        <pt x="461" y="0" on="1"/>
        <pt x="184" y="0" on="1"/>
        <pt x="184" y="1462" on="1"/>
        <pt x="606" y="1462" on="1"/>
        <pt x="952" y="344" on="1"/>
        <pt x="958" y="344" on="1"/>
        <pt x="1325" y="1462" on="1"/>
        <pt x="1747" y="1462" on="1"/>
      </contour>
    </TTGlyph>
    <TTGlyph name="N" xMin="184" yMin="0" xMax="1481" yMax="1462">
      <contour>
        <pt x="1481" y="0" on="1"/>
        <pt x="1087" y="0" on="1"/>
        <pt x="451" y="1106" on="1"/>
        <pt x="442" y="1106" on="1"/>
        <pt x="461" y="821" on="0"/>
        <pt x="461" y="688" on="1"/>
        <pt x="461" y="0" on="1"/>
        <pt x="184" y="0" on="1"/>
        <pt x="184" y="1462" on="1"/>
        <pt x="575" y="1462" on="1"/>
        <pt x="1210" y="367" on="1"/>
        <pt x="1217" y="367" on="1"/>
        <pt x="1202" y="652" on="0"/>
        <pt x="1202" y="770" on="1"/>
        <pt x="1202" y="1462" on="1"/>
        <pt x="1481" y="1462" on="1"/>
      </contour>
    </TTGlyph>
    <TTGlyph name="Ntilde" xMin="184" yMin="0" xMax="1481" yMax="1888">
      <contour>
        <pt x="975" y="1579" on="1"/>
        <pt x="928" y="1579" on="0"/>
        <pt x="870" y="1606" on="1"/>
        <pt x="852" y="1614" on="0"/>
        <pt x="729" y="1676" on="0"/>
        <pt x="679" y="1684" on="0"/>
        <pt x="668" y="1684" on="1"/>
        <pt x="635" y="1684" on="0"/>
        <pt x="579" y="1629" on="0"/>
        <pt x="567" y="1577" on="1"/>
        <pt x="418" y="1577" on="1"/>
        <pt x="429" y="1722" on="0"/>
        <pt x="573" y="1886" on="0"/>
        <pt x="690" y="1886" on="1"/>
        <pt x="745" y="1886" on="0"/>
        <pt x="849" y="1834" on="1"/>
        <pt x="885" y="1816" on="0"/>
        <pt x="902" y="1808" on="1"/>
        <pt x="955" y="1782" on="0"/>
        <pt x="1030" y="1782" on="0"/>
        <pt x="1086" y="1837" on="0"/>
        <pt x="1098" y="1888" on="1"/>
        <pt x="1247" y="1888" on="1"/>
        <pt x="1236" y="1743" on="0"/>
        <pt x="1091" y="1579" on="0"/>
      </contour>
      <contour>
        <pt x="1481" y="0" on="1"/>
        <pt x="1087" y="0" on="1"/>
        <pt x="451" y="1106" on="1"/>
        <pt x="442" y="1106" on="1"/>
        <pt x="461" y="821" on="0"/>
        <pt x="461" y="688" on="1"/>
        <pt x="461" y="0" on="1"/>
        <pt x="184" y="0" on="1"/>
        <pt x="184" y="1462" on="1"/>
        <pt x="575" y="1462" on="1"/>
        <pt x="1210" y="367" on="1"/>
        <pt x="1217" y="367" on="1"/>
        <pt x="1202" y="652" on="0"/>
        <pt x="1202" y="770" on="1"/>
        <pt x="1202" y="1462" on="1"/>
        <pt x="1481" y="1462" on="1"/>
      </contour>
    </TTGlyph>
    <TTGlyph name="O" xMin="119" yMin="-20" xMax="1511" yMax="1485">
      <contour>
        <pt x="119" y="370" on="0"/>
        <pt x="119" y="1100" on="0"/>
        <pt x="480" y="1485" on="0"/>
        <pt x="1153" y="1485" on="0"/>
        <pt x="1511" y="1097" on="0"/>
        <pt x="1511" y="370" on="0"/>
        <pt x="1151" y="-20" on="0"/>
        <pt x="479" y="-20" on="0"/>
      </contour>
      <contour>
        <pt x="817" y="1227" on="1"/>
        <pt x="632" y="1227" on="0"/>
        <pt x="444" y="978" on="0"/>
        <pt x="444" y="733" on="1"/>
        <pt x="444" y="240" on="0"/>
        <pt x="1186" y="240" on="0"/>
        <pt x="1186" y="1227" on="0"/>
      </contour>
    </TTGlyph>
    <TTGlyph name="OE" xMin="119" yMin="-20" xMax="1872" yMax="1485">
      <contour>
        <pt x="1872" y="0" on="1"/>
        <pt x="999" y="0" on="1"/>
        <pt x="914" y="-20" on="0"/>
        <pt x="774" y="-20" on="1"/>
        <pt x="457" y="-20" on="0"/>
        <pt x="119" y="373" on="0"/>
        <pt x="119" y="1098" on="0"/>
        <pt x="458" y="1485" on="0"/>
        <pt x="776" y="1485" on="1"/>
        <pt x="914" y="1485" on="0"/>
        <pt x="1004" y="1462" on="1"/>
        <pt x="1872" y="1462" on="1"/>
        <pt x="1872" y="1208" on="1"/>
        <pt x="1309" y="1208" on="1"/>
        <pt x="1309" y="887" on="1"/>
        <pt x="1835" y="887" on="1"/>
        <pt x="1835" y="633" on="1"/>
        <pt x="1309" y="633" on="1"/>
        <pt x="1309" y="256" on="1"/>
        <pt x="1872" y="256" on="1"/>
      </contour>
      <contour>
        <pt x="776" y="1227" on="1"/>
        <pt x="610" y="1227" on="0"/>
        <pt x="438" y="976" on="0"/>
        <pt x="438" y="490" on="0"/>
        <pt x="609" y="240" on="0"/>
        <pt x="774" y="240" on="1"/>
        <pt x="916" y="240" on="0"/>
        <pt x="999" y="279" on="1"/>
        <pt x="999" y="1186" on="1"/>
        <pt x="965" y="1204" on="0"/>
        <pt x="834" y="1227" on="0"/>
      </contour>
    </TTGlyph>
    <TTGlyph name="Oacute" xMin="119" yMin="-20" xMax="1511" yMax="1907">
      <contour>
        <pt x="1235" y="1907" on="1"/>
        <pt x="1235" y="1886" on="1"/>
        <pt x="1184" y="1835" on="0"/>
        <pt x="934" y="1631" on="0"/>
        <pt x="861" y="1579" on="1"/>
        <pt x="658" y="1579" on="1"/>
        <pt x="658" y="1606" on="1"/>
        <pt x="826" y="1801" on="0"/>
        <pt x="893" y="1907" on="1"/>
      </contour>
      <contour>
        <pt x="119" y="1099" on="0"/>
        <pt x="479" y="1485" on="0"/>
        <pt x="1153" y="1485" on="0"/>
        <pt x="1511" y="1097" on="0"/>
        <pt x="1511" y="370" on="0"/>
        <pt x="1151" y="-20" on="0"/>
        <pt x="479" y="-20" on="0"/>
        <pt x="119" y="370" on="0"/>
      </contour>
      <contour>
        <pt x="817" y="1227" on="1"/>
        <pt x="632" y="1227" on="0"/>
        <pt x="444" y="978" on="0"/>
        <pt x="444" y="733" on="1"/>
        <pt x="444" y="240" on="0"/>
        <pt x="1186" y="240" on="0"/>
        <pt x="1186" y="1227" on="0"/>
      </contour>
    </TTGlyph>
    <TTGlyph name="Ocircumflex" xMin="119" yMin="-20" xMax="1511" yMax="1907">
      <contour>
        <pt x="1250" y="1579" on="1"/>
        <pt x="1047" y="1579" on="1"/>
        <pt x="891" y="1671" on="0"/>
        <pt x="813" y="1755" on="1"/>
        <pt x="733" y="1672" on="0"/>
        <pt x="584" y="1579" on="1"/>
        <pt x="381" y="1579" on="1"/>
        <pt x="381" y="1606" on="1"/>
        <pt x="570" y="1794" on="0"/>
        <pt x="637" y="1907" on="1"/>
        <pt x="994" y="1907" on="1"/>
        <pt x="1024" y="1856" on="0"/>
        <pt x="1177" y="1676" on="0"/>
        <pt x="1250" y="1606" on="1"/>
      </contour>
      <contour>
        <pt x="119" y="1099" on="0"/>
        <pt x="479" y="1485" on="0"/>
        <pt x="1153" y="1485" on="0"/>
        <pt x="1511" y="1097" on="0"/>
        <pt x="1511" y="370" on="0"/>
        <pt x="1151" y="-20" on="0"/>
        <pt x="479" y="-20" on="0"/>
        <pt x="119" y="370" on="0"/>
      </contour>
      <contour>
        <pt x="817" y="1227" on="1"/>
        <pt x="632" y="1227" on="0"/>
        <pt x="444" y="978" on="0"/>
        <pt x="444" y="733" on="1"/>
        <pt x="444" y="240" on="0"/>
        <pt x="1186" y="240" on="0"/>
        <pt x="1186" y="1227" on="0"/>
      </contour>
    </TTGlyph>
    <TTGlyph name="Odieresis" xMin="119" yMin="-20" xMax="1511" yMax="1878">
      <contour>
        <pt x="548" y="1878" on="0"/>
        <pt x="678" y="1878" on="0"/>
        <pt x="754" y="1804" on="0"/>
        <pt x="754" y="1683" on="0"/>
        <pt x="678" y="1610" on="0"/>
        <pt x="549" y="1610" on="0"/>
        <pt x="474" y="1680" on="0"/>
        <pt x="474" y="1807" on="0"/>
      </contour>
      <contour>
        <pt x="877" y="1810" on="0"/>
        <pt x="955" y="1878" on="0"/>
        <pt x="1083" y="1878" on="0"/>
        <pt x="1160" y="1806" on="0"/>
        <pt x="1160" y="1682" on="0"/>
        <pt x="1082" y="1610" on="0"/>
        <pt x="955" y="1610" on="0"/>
        <pt x="877" y="1677" on="0"/>
      </contour>
      <contour>
        <pt x="119" y="1099" on="0"/>
        <pt x="479" y="1485" on="0"/>
        <pt x="1153" y="1485" on="0"/>
        <pt x="1511" y="1097" on="0"/>
        <pt x="1511" y="370" on="0"/>
        <pt x="1151" y="-20" on="0"/>
        <pt x="479" y="-20" on="0"/>
        <pt x="119" y="370" on="0"/>
      </contour>
      <contour>
        <pt x="817" y="1227" on="1"/>
        <pt x="632" y="1227" on="0"/>
        <pt x="444" y="978" on="0"/>
        <pt x="444" y="733" on="1"/>
        <pt x="444" y="240" on="0"/>
        <pt x="1186" y="240" on="0"/>
        <pt x="1186" y="1227" on="0"/>
      </contour>
    </TTGlyph>
    <TTGlyph name="Ograve" xMin="119" yMin="-20" xMax="1511" yMax="1907">
      <contour>
        <pt x="449" y="1907" on="1"/>
        <pt x="791" y="1907" on="1"/>
        <pt x="858" y="1801" on="0"/>
        <pt x="1026" y="1606" on="1"/>
        <pt x="1026" y="1579" on="1"/>
        <pt x="824" y="1579" on="1"/>
        <pt x="755" y="1627" on="0"/>
        <pt x="513" y="1824" on="0"/>
        <pt x="449" y="1886" on="1"/>
      </contour>
      <contour>
        <pt x="119" y="1099" on="0"/>
        <pt x="479" y="1485" on="0"/>
        <pt x="1153" y="1485" on="0"/>
        <pt x="1511" y="1097" on="0"/>
        <pt x="1511" y="370" on="0"/>
        <pt x="1151" y="-20" on="0"/>
        <pt x="479" y="-20" on="0"/>
        <pt x="119" y="370" on="0"/>
      </contour>
      <contour>
        <pt x="817" y="1227" on="1"/>
        <pt x="632" y="1227" on="0"/>
        <pt x="444" y="978" on="0"/>
        <pt x="444" y="733" on="1"/>
        <pt x="444" y="240" on="0"/>
        <pt x="1186" y="240" on="0"/>
        <pt x="1186" y="1227" on="0"/>
      </contour>
    </TTGlyph>
    <TTGlyph name="Oslash" xMin="119" yMin="-90" xMax="1511" yMax="1540">
      <contour>
        <pt x="1317" y="1305" on="1"/>
        <pt x="1511" y="1111" on="0"/>
        <pt x="1511" y="370" on="0"/>
        <pt x="1151" y="-20" on="0"/>
        <pt x="815" y="-20" on="1"/>
        <pt x="620" y="-20" on="0"/>
        <pt x="479" y="45" on="1"/>
        <pt x="389" y="-90" on="1"/>
        <pt x="227" y="18" on="1"/>
        <pt x="317" y="154" on="1"/>
        <pt x="119" y="347" on="0"/>
        <pt x="119" y="735" on="1"/>
        <pt x="119" y="1099" on="0"/>
        <pt x="479" y="1485" on="0"/>
        <pt x="817" y="1485" on="1"/>
        <pt x="1017" y="1485" on="0"/>
        <pt x="1161" y="1415" on="1"/>
        <pt x="1245" y="1540" on="1"/>
        <pt x="1405" y="1436" on="1"/>
      </contour>
      <contour>
        <pt x="817" y="1227" on="1"/>
        <pt x="632" y="1227" on="0"/>
        <pt x="444" y="978" on="0"/>
        <pt x="444" y="733" on="1"/>
        <pt x="444" y="543" on="0"/>
        <pt x="500" y="426" on="1"/>
        <pt x="1006" y="1182" on="1"/>
        <pt x="922" y="1227" on="0"/>
      </contour>
      <contour>
        <pt x="815" y="240" on="1"/>
        <pt x="1186" y="240" on="0"/>
        <pt x="1186" y="733" on="1"/>
        <pt x="1186" y="913" on="0"/>
        <pt x="1135" y="1030" on="1"/>
        <pt x="635" y="279" on="1"/>
        <pt x="712" y="240" on="0"/>
      </contour>
    </TTGlyph>
    <TTGlyph name="Otilde" xMin="119" yMin="-20" xMax="1511" yMax="1888">
      <contour>
        <pt x="959" y="1579" on="1"/>
        <pt x="912" y="1579" on="0"/>
        <pt x="854" y="1606" on="1"/>
        <pt x="836" y="1614" on="0"/>
        <pt x="713" y="1676" on="0"/>
        <pt x="663" y="1684" on="0"/>
        <pt x="652" y="1684" on="1"/>
        <pt x="619" y="1684" on="0"/>
        <pt x="563" y="1629" on="0"/>
        <pt x="551" y="1577" on="1"/>
        <pt x="402" y="1577" on="1"/>
        <pt x="413" y="1722" on="0"/>
        <pt x="557" y="1886" on="0"/>
        <pt x="674" y="1886" on="1"/>
        <pt x="729" y="1886" on="0"/>
        <pt x="833" y="1834" on="1"/>
        <pt x="869" y="1816" on="0"/>
        <pt x="886" y="1808" on="1"/>
        <pt x="939" y="1782" on="0"/>
        <pt x="1014" y="1782" on="0"/>
        <pt x="1070" y="1837" on="0"/>
        <pt x="1082" y="1888" on="1"/>
        <pt x="1231" y="1888" on="1"/>
        <pt x="1220" y="1743" on="0"/>
        <pt x="1075" y="1579" on="0"/>
      </contour>
      <contour>
        <pt x="119" y="1099" on="0"/>
        <pt x="479" y="1485" on="0"/>
        <pt x="1153" y="1485" on="0"/>
        <pt x="1511" y="1097" on="0"/>
        <pt x="1511" y="370" on="0"/>
        <pt x="1151" y="-20" on="0"/>
        <pt x="479" y="-20" on="0"/>
        <pt x="119" y="370" on="0"/>
      </contour>
      <contour>
        <pt x="817" y="1227" on="1"/>
        <pt x="632" y="1227" on="0"/>
        <pt x="444" y="978" on="0"/>
        <pt x="444" y="733" on="1"/>
        <pt x="444" y="240" on="0"/>
        <pt x="1186" y="240" on="0"/>
        <pt x="1186" y="1227" on="0"/>
      </contour>
    </TTGlyph>
    <TTGlyph name="P" xMin="184" yMin="0" xMax="1194" yMax="1462">
      <contour>
        <pt x="184" y="1462" on="1"/>
        <pt x="651" y="1462" on="1"/>
        <pt x="918" y="1462" on="0"/>
        <pt x="1194" y="1232" on="0"/>
        <pt x="1194" y="769" on="0"/>
        <pt x="898" y="520" on="0"/>
        <pt x="627" y="520" on="1"/>
        <pt x="494" y="520" on="1"/>
        <pt x="494" y="0" on="1"/>
        <pt x="184" y="0" on="1"/>
      </contour>
      <contour>
        <pt x="494" y="1208" on="1"/>
        <pt x="494" y="774" on="1"/>
        <pt x="596" y="774" on="1"/>
        <pt x="881" y="774" on="0"/>
        <pt x="881" y="994" on="1"/>
        <pt x="881" y="1104" on="0"/>
        <pt x="762" y="1208" on="0"/>
        <pt x="635" y="1208" on="1"/>
      </contour>
    </TTGlyph>
    <TTGlyph name="Q" xMin="119" yMin="-348" xMax="1511" yMax="1485">
      <contour>
        <pt x="815" y="-20" on="1"/>
        <pt x="479" y="-20" on="0"/>
        <pt x="119" y="370" on="0"/>
        <pt x="119" y="1100" on="0"/>
        <pt x="480" y="1485" on="0"/>
        <pt x="1153" y="1485" on="0"/>
        <pt x="1511" y="1097" on="0"/>
        <pt x="1511" y="733" on="1"/>
        <pt x="1511" y="475" on="0"/>
        <pt x="1328" y="126" on="0"/>
        <pt x="1151" y="45" on="1"/>
        <pt x="1503" y="-348" on="1"/>
        <pt x="1106" y="-348" on="1"/>
        <pt x="838" y="-20" on="1"/>
      </contour>
      <contour>
        <pt x="817" y="1227" on="1"/>
        <pt x="632" y="1227" on="0"/>
        <pt x="444" y="978" on="0"/>
        <pt x="444" y="733" on="1"/>
        <pt x="444" y="240" on="0"/>
        <pt x="1186" y="240" on="0"/>
        <pt x="1186" y="1227" on="0"/>
      </contour>
    </TTGlyph>
    <TTGlyph name="R" xMin="184" yMin="0" xMax="1352" yMax="1462">
      <contour>
        <pt x="184" y="1462" on="1"/>
        <pt x="610" y="1462" on="1"/>
        <pt x="907" y="1462" on="0"/>
        <pt x="1194" y="1246" on="0"/>
        <pt x="1194" y="1024" on="1"/>
        <pt x="1194" y="895" on="0"/>
        <pt x="1052" y="694" on="0"/>
        <pt x="922" y="637" on="1"/>
        <pt x="1274" y="111" on="0"/>
        <pt x="1352" y="0" on="1"/>
        <pt x="1008" y="0" on="1"/>
        <pt x="659" y="561" on="1"/>
        <pt x="494" y="561" on="1"/>
        <pt x="494" y="0" on="1"/>
        <pt x="184" y="0" on="1"/>
      </contour>
      <contour>
        <pt x="494" y="1208" on="1"/>
        <pt x="494" y="813" on="1"/>
        <pt x="594" y="813" on="1"/>
        <pt x="741" y="813" on="0"/>
        <pt x="881" y="911" on="0"/>
        <pt x="881" y="1119" on="0"/>
        <pt x="740" y="1208" on="0"/>
        <pt x="588" y="1208" on="1"/>
      </contour>
    </TTGlyph>
    <TTGlyph name="S" xMin="93" yMin="-20" xMax="1047" yMax="1483">
      <contour>
        <pt x="93" y="356" on="1"/>
        <pt x="245" y="289" on="0"/>
        <pt x="448" y="236" on="0"/>
        <pt x="635" y="236" on="0"/>
        <pt x="743" y="314" on="0"/>
        <pt x="743" y="391" on="1"/>
        <pt x="743" y="434" on="0"/>
        <pt x="697" y="499" on="0"/>
        <pt x="602" y="564" on="0"/>
        <pt x="324" y="695" on="0"/>
        <pt x="258" y="752" on="1"/>
        <pt x="111" y="879" on="0"/>
        <pt x="111" y="1261" on="0"/>
        <pt x="242" y="1372" on="1"/>
        <pt x="374" y="1483" on="0"/>
        <pt x="606" y="1483" on="1"/>
        <pt x="801" y="1483" on="0"/>
        <pt x="1040" y="1380" on="1"/>
        <pt x="940" y="1139" on="1"/>
        <pt x="827" y="1185" on="0"/>
        <pt x="671" y="1225" on="0"/>
        <pt x="510" y="1225" on="0"/>
        <pt x="414" y="1144" on="0"/>
        <pt x="414" y="1077" on="1"/>
        <pt x="414" y="1036" on="0"/>
        <pt x="451" y="975" on="0"/>
        <pt x="534" y="918" on="0"/>
        <pt x="690" y="844" on="1"/>
        <pt x="894" y="747" on="0"/>
        <pt x="970" y="647" on="1"/>
        <pt x="1047" y="551" on="0"/>
        <pt x="1047" y="406" on="1"/>
        <pt x="1047" y="210" on="0"/>
        <pt x="904" y="93" on="1"/>
        <pt x="761" y="-20" on="0"/>
        <pt x="273" y="-20" on="0"/>
        <pt x="93" y="68" on="1"/>
      </contour>
    </TTGlyph>
    <TTGlyph name="Scaron" xMin="94" yMin="-20" xMax="1047" yMax="1907">
      <contour>
        <pt x="1033" y="1907" on="1"/>
        <pt x="1033" y="1880" on="1"/>
        <pt x="950" y="1797" on="0"/>
        <pt x="808" y="1630" on="0"/>
        <pt x="777" y="1579" on="1"/>
        <pt x="420" y="1579" on="1"/>
        <pt x="392" y="1625" on="0"/>
        <pt x="283" y="1756" on="0"/>
        <pt x="164" y="1880" on="1"/>
        <pt x="164" y="1907" on="1"/>
        <pt x="367" y="1907" on="1"/>
        <pt x="511" y="1816" on="0"/>
        <pt x="596" y="1731" on="1"/>
        <pt x="681" y="1819" on="0"/>
        <pt x="830" y="1907" on="1"/>
      </contour>
      <contour>
        <pt x="532" y="236" on="1"/>
        <pt x="635" y="236" on="0"/>
        <pt x="743" y="314" on="0"/>
        <pt x="743" y="470" on="0"/>
        <pt x="649" y="532" on="1"/>
        <pt x="605" y="562" on="0"/>
        <pt x="328" y="693" on="0"/>
        <pt x="260" y="750" on="1"/>
        <pt x="111" y="876" on="0"/>
        <pt x="111" y="1261" on="0"/>
        <pt x="374" y="1483" on="0"/>
        <pt x="606" y="1483" on="1"/>
        <pt x="801" y="1483" on="0"/>
        <pt x="1040" y="1380" on="1"/>
        <pt x="940" y="1139" on="1"/>
        <pt x="823" y="1187" on="0"/>
        <pt x="670" y="1225" on="0"/>
        <pt x="510" y="1225" on="0"/>
        <pt x="414" y="1144" on="0"/>
        <pt x="414" y="1077" on="1"/>
        <pt x="414" y="1036" on="0"/>
        <pt x="452" y="976" on="0"/>
        <pt x="537" y="917" on="0"/>
        <pt x="690" y="844" on="1"/>
        <pt x="891" y="747" on="0"/>
        <pt x="1047" y="552" on="0"/>
        <pt x="1047" y="406" on="1"/>
        <pt x="1047" y="207" on="0"/>
        <pt x="761" y="-20" on="0"/>
        <pt x="273" y="-20" on="0"/>
        <pt x="94" y="68" on="1"/>
        <pt x="94" y="356" on="1"/>
        <pt x="363" y="236" on="0"/>
      </contour>
    </TTGlyph>
    <TTGlyph name="T" xMin="41" yMin="0" xMax="1145" yMax="1462">
      <contour>
        <pt x="1145" y="1204" on="1"/>
        <pt x="748" y="1204" on="1"/>
        <pt x="748" y="0" on="1"/>
        <pt x="438" y="0" on="1"/>
        <pt x="438" y="1204" on="1"/>
        <pt x="41" y="1204" on="1"/>
        <pt x="41" y="1462" on="1"/>
        <pt x="1145" y="1462" on="1"/>
      </contour>
    </TTGlyph>
    <TTGlyph name="Thorn" xMin="184" yMin="0" xMax="1194" yMax="1462">
      <contour>
        <pt x="494" y="1233" on="1"/>
        <pt x="672" y="1233" on="1"/>
        <pt x="926" y="1233" on="0"/>
        <pt x="1194" y="995" on="0"/>
        <pt x="1194" y="541" on="0"/>
        <pt x="909" y="293" on="0"/>
        <pt x="647" y="293" on="1"/>
        <pt x="494" y="293" on="1"/>
        <pt x="494" y="0" on="1"/>
        <pt x="184" y="0" on="1"/>
        <pt x="184" y="1462" on="1"/>
        <pt x="494" y="1462" on="1"/>
      </contour>
      <contour>
        <pt x="494" y="981" on="1"/>
        <pt x="494" y="543" on="1"/>
        <pt x="594" y="543" on="1"/>
        <pt x="741" y="543" on="0"/>
        <pt x="881" y="650" on="0"/>
        <pt x="881" y="878" on="0"/>
        <pt x="753" y="981" on="0"/>
        <pt x="618" y="981" on="1"/>
      </contour>
    </TTGlyph>
    <TTGlyph name="U" xMin="174" yMin="-20" xMax="1374" yMax="1462">
      <contour>
        <pt x="1374" y="1462" on="1"/>
        <pt x="1374" y="516" on="1"/>
        <pt x="1374" y="513" on="0"/>
        <pt x="1374" y="510" on="1"/>
        <pt x="1374" y="270" on="0"/>
        <pt x="1050" y="-20" on="0"/>
        <pt x="779" y="-20" on="1"/>
        <pt x="774" y="-20" on="0"/>
        <pt x="768" y="-20" on="1"/>
        <pt x="486" y="-20" on="0"/>
        <pt x="174" y="270" on="0"/>
        <pt x="174" y="520" on="1"/>
        <pt x="174" y="1462" on="1"/>
        <pt x="483" y="1462" on="1"/>
        <pt x="483" y="567" on="1"/>
        <pt x="483" y="397" on="0"/>
        <pt x="621" y="240" on="0"/>
        <pt x="927" y="240" on="0"/>
        <pt x="1065" y="398" on="0"/>
        <pt x="1065" y="569" on="1"/>
        <pt x="1065" y="1462" on="1"/>
      </contour>
    </TTGlyph>
    <TTGlyph name="Uacute" xMin="174" yMin="-20" xMax="1374" yMax="1907">
      <contour>
        <pt x="1179" y="1907" on="1"/>
        <pt x="1179" y="1886" on="1"/>
        <pt x="1128" y="1835" on="0"/>
        <pt x="878" y="1631" on="0"/>
        <pt x="805" y="1579" on="1"/>
        <pt x="602" y="1579" on="1"/>
        <pt x="602" y="1606" on="1"/>
        <pt x="770" y="1801" on="0"/>
        <pt x="837" y="1907" on="1"/>
      </contour>
      <contour>
        <pt x="1374" y="1462" on="1"/>
        <pt x="1374" y="516" on="1"/>
        <pt x="1374" y="354" on="0"/>
        <pt x="1229" y="110" on="0"/>
        <pt x="954" y="-20" on="0"/>
        <pt x="768" y="-20" on="1"/>
        <pt x="487" y="-20" on="0"/>
        <pt x="174" y="268" on="0"/>
        <pt x="174" y="520" on="1"/>
        <pt x="174" y="1462" on="1"/>
        <pt x="483" y="1462" on="1"/>
        <pt x="483" y="567" on="1"/>
        <pt x="483" y="397" on="0"/>
        <pt x="621" y="240" on="0"/>
        <pt x="928" y="240" on="0"/>
        <pt x="1065" y="398" on="0"/>
        <pt x="1065" y="569" on="1"/>
        <pt x="1065" y="1462" on="1"/>
      </contour>
    </TTGlyph>
    <TTGlyph name="Ucircumflex" xMin="174" yMin="-20" xMax="1374" yMax="1907">
      <contour>
        <pt x="1209" y="1579" on="1"/>
        <pt x="1006" y="1579" on="1"/>
        <pt x="850" y="1671" on="0"/>
        <pt x="772" y="1755" on="1"/>
        <pt x="692" y="1672" on="0"/>
        <pt x="543" y="1579" on="1"/>
        <pt x="340" y="1579" on="1"/>
        <pt x="340" y="1606" on="1"/>
        <pt x="528" y="1794" on="0"/>
        <pt x="596" y="1907" on="1"/>
        <pt x="953" y="1907" on="1"/>
        <pt x="983" y="1856" on="0"/>
        <pt x="1136" y="1676" on="0"/>
        <pt x="1209" y="1606" on="1"/>
      </contour>
      <contour>
        <pt x="1374" y="1462" on="1"/>
        <pt x="1374" y="516" on="1"/>
        <pt x="1374" y="354" on="0"/>
        <pt x="1229" y="110" on="0"/>
        <pt x="954" y="-20" on="0"/>
        <pt x="768" y="-20" on="1"/>
        <pt x="487" y="-20" on="0"/>
        <pt x="174" y="268" on="0"/>
        <pt x="174" y="520" on="1"/>
        <pt x="174" y="1462" on="1"/>
        <pt x="483" y="1462" on="1"/>
        <pt x="483" y="567" on="1"/>
        <pt x="483" y="397" on="0"/>
        <pt x="621" y="240" on="0"/>
        <pt x="928" y="240" on="0"/>
        <pt x="1065" y="398" on="0"/>
        <pt x="1065" y="569" on="1"/>
        <pt x="1065" y="1462" on="1"/>
      </contour>
    </TTGlyph>
    <TTGlyph name="Udieresis" xMin="174" yMin="-20" xMax="1374" yMax="1878">
      <contour>
        <pt x="507" y="1878" on="0"/>
        <pt x="637" y="1878" on="0"/>
        <pt x="713" y="1804" on="0"/>
        <pt x="713" y="1683" on="0"/>
        <pt x="637" y="1610" on="0"/>
        <pt x="508" y="1610" on="0"/>
        <pt x="433" y="1680" on="0"/>
        <pt x="433" y="1807" on="0"/>
      </contour>
      <contour>
        <pt x="836" y="1810" on="0"/>
        <pt x="914" y="1878" on="0"/>
        <pt x="1042" y="1878" on="0"/>
        <pt x="1119" y="1806" on="0"/>
        <pt x="1119" y="1682" on="0"/>
        <pt x="1041" y="1610" on="0"/>
        <pt x="914" y="1610" on="0"/>
        <pt x="836" y="1677" on="0"/>
      </contour>
      <contour>
        <pt x="1374" y="1462" on="1"/>
        <pt x="1374" y="516" on="1"/>
        <pt x="1374" y="354" on="0"/>
        <pt x="1229" y="110" on="0"/>
        <pt x="954" y="-20" on="0"/>
        <pt x="768" y="-20" on="1"/>
        <pt x="487" y="-20" on="0"/>
        <pt x="174" y="268" on="0"/>
        <pt x="174" y="520" on="1"/>
        <pt x="174" y="1462" on="1"/>
        <pt x="483" y="1462" on="1"/>
        <pt x="483" y="567" on="1"/>
        <pt x="483" y="397" on="0"/>
        <pt x="621" y="240" on="0"/>
        <pt x="928" y="240" on="0"/>
        <pt x="1065" y="398" on="0"/>
        <pt x="1065" y="569" on="1"/>
        <pt x="1065" y="1462" on="1"/>
      </contour>
    </TTGlyph>
    <TTGlyph name="Ugrave" xMin="174" yMin="-20" xMax="1374" yMax="1907">
      <contour>
        <pt x="375" y="1907" on="1"/>
        <pt x="717" y="1907" on="1"/>
        <pt x="784" y="1801" on="0"/>
        <pt x="952" y="1606" on="1"/>
        <pt x="952" y="1579" on="1"/>
        <pt x="750" y="1579" on="1"/>
        <pt x="681" y="1627" on="0"/>
        <pt x="439" y="1824" on="0"/>
        <pt x="375" y="1886" on="1"/>
      </contour>
      <contour>
        <pt x="1374" y="1462" on="1"/>
        <pt x="1374" y="516" on="1"/>
        <pt x="1374" y="354" on="0"/>
        <pt x="1229" y="110" on="0"/>
        <pt x="954" y="-20" on="0"/>
        <pt x="768" y="-20" on="1"/>
        <pt x="487" y="-20" on="0"/>
        <pt x="174" y="268" on="0"/>
        <pt x="174" y="520" on="1"/>
        <pt x="174" y="1462" on="1"/>
        <pt x="483" y="1462" on="1"/>
        <pt x="483" y="567" on="1"/>
        <pt x="483" y="397" on="0"/>
        <pt x="621" y="240" on="0"/>
        <pt x="928" y="240" on="0"/>
        <pt x="1065" y="398" on="0"/>
        <pt x="1065" y="569" on="1"/>
        <pt x="1065" y="1462" on="1"/>
      </contour>
    </TTGlyph>
    <TTGlyph name="V" xMin="0" yMin="0" xMax="1331" yMax="1462">
      <contour>
        <pt x="834" y="0" on="1"/>
        <pt x="496" y="0" on="1"/>
        <pt x="0" y="1462" on="1"/>
        <pt x="313" y="1462" on="1"/>
        <pt x="588" y="592" on="1"/>
        <pt x="613" y="507" on="0"/>
        <pt x="659" y="314" on="0"/>
        <pt x="666" y="270" on="1"/>
        <pt x="677" y="363" on="0"/>
        <pt x="741" y="592" on="1"/>
        <pt x="1018" y="1462" on="1"/>
        <pt x="1331" y="1462" on="1"/>
      </contour>
    </TTGlyph>
    <TTGlyph name="W" xMin="0" yMin="0" xMax="1980" yMax="1462">
      <contour>
        <pt x="1608" y="0" on="1"/>
        <pt x="1255" y="0" on="1"/>
        <pt x="1057" y="768" on="1"/>
        <pt x="1045" y="815" on="0"/>
        <pt x="1019" y="937" on="1"/>
        <pt x="992" y="1076" on="0"/>
        <pt x="988" y="1110" on="1"/>
        <pt x="983" y="1063" on="0"/>
        <pt x="933" y="807" on="0"/>
        <pt x="922" y="766" on="1"/>
        <pt x="725" y="0" on="1"/>
        <pt x="373" y="0" on="1"/>
        <pt x="0" y="1462" on="1"/>
        <pt x="305" y="1462" on="1"/>
        <pt x="492" y="664" on="1"/>
        <pt x="539" y="456" on="0"/>
        <pt x="563" y="281" on="1"/>
        <pt x="569" y="339" on="0"/>
        <pt x="614" y="586" on="0"/>
        <pt x="631" y="643" on="1"/>
        <pt x="844" y="1462" on="1"/>
        <pt x="1137" y="1462" on="1"/>
        <pt x="1350" y="643" on="1"/>
        <pt x="1366" y="579" on="0"/>
        <pt x="1407" y="355" on="0"/>
        <pt x="1417" y="281" on="1"/>
        <pt x="1430" y="377" on="0"/>
        <pt x="1473" y="601" on="0"/>
        <pt x="1489" y="664" on="1"/>
        <pt x="1675" y="1462" on="1"/>
        <pt x="1980" y="1462" on="1"/>
      </contour>
    </TTGlyph>
    <TTGlyph name="X" xMin="0" yMin="0" xMax="1366" yMax="1462">
      <contour>
        <pt x="872" y="737" on="1"/>
        <pt x="1366" y="0" on="1"/>
        <pt x="1012" y="0" on="1"/>
        <pt x="672" y="553" on="1"/>
        <pt x="332" y="0" on="1"/>
        <pt x="0" y="0" on="1"/>
        <pt x="485" y="754" on="1"/>
        <pt x="31" y="1462" on="1"/>
        <pt x="373" y="1462" on="1"/>
        <pt x="688" y="936" on="1"/>
        <pt x="996" y="1462" on="1"/>
        <pt x="1331" y="1462" on="1"/>
      </contour>
    </TTGlyph>
    <TTGlyph name="Y" xMin="0" yMin="0" xMax="1278" yMax="1462">
      <contour>
        <pt x="793" y="0" on="1"/>
        <pt x="485" y="0" on="1"/>
        <pt x="485" y="559" on="1"/>
        <pt x="0" y="1462" on="1"/>
        <pt x="336" y="1462" on="1"/>
        <pt x="639" y="860" on="1"/>
        <pt x="944" y="1462" on="1"/>
        <pt x="1278" y="1462" on="1"/>
        <pt x="793" y="569" on="1"/>
      </contour>
    </TTGlyph>
    <TTGlyph name="Yacute" xMin="0" yMin="0" xMax="1278" yMax="1907">
      <contour>
        <pt x="1038" y="1907" on="1"/>
        <pt x="1038" y="1886" on="1"/>
        <pt x="987" y="1835" on="0"/>
        <pt x="737" y="1631" on="0"/>
        <pt x="664" y="1579" on="1"/>
        <pt x="461" y="1579" on="1"/>
        <pt x="461" y="1606" on="1"/>
        <pt x="629" y="1801" on="0"/>
        <pt x="696" y="1907" on="1"/>
      </contour>
      <contour>
        <pt x="793" y="0" on="1"/>
        <pt x="485" y="0" on="1"/>
        <pt x="485" y="559" on="1"/>
        <pt x="0" y="1462" on="1"/>
        <pt x="336" y="1462" on="1"/>
        <pt x="639" y="860" on="1"/>
        <pt x="944" y="1462" on="1"/>
        <pt x="1278" y="1462" on="1"/>
        <pt x="793" y="569" on="1"/>
      </contour>
    </TTGlyph>
    <TTGlyph name="Ydieresis" xMin="0" yMin="0" xMax="1278" yMax="1878">
      <contour>
        <pt x="371" y="1878" on="0"/>
        <pt x="501" y="1878" on="0"/>
        <pt x="577" y="1804" on="0"/>
        <pt x="577" y="1683" on="0"/>
        <pt x="501" y="1610" on="0"/>
        <pt x="372" y="1610" on="0"/>
        <pt x="297" y="1680" on="0"/>
        <pt x="297" y="1807" on="0"/>
      </contour>
      <contour>
        <pt x="700" y="1810" on="0"/>
        <pt x="778" y="1878" on="0"/>
        <pt x="906" y="1878" on="0"/>
        <pt x="983" y="1806" on="0"/>
        <pt x="983" y="1682" on="0"/>
        <pt x="905" y="1610" on="0"/>
        <pt x="778" y="1610" on="0"/>
        <pt x="700" y="1677" on="0"/>
      </contour>
      <contour>
        <pt x="793" y="0" on="1"/>
        <pt x="485" y="0" on="1"/>
        <pt x="485" y="559" on="1"/>
        <pt x="0" y="1462" on="1"/>
        <pt x="336" y="1462" on="1"/>
        <pt x="639" y="860" on="1"/>
        <pt x="944" y="1462" on="1"/>
        <pt x="1278" y="1462" on="1"/>
        <pt x="793" y="569" on="1"/>
      </contour>
    </TTGlyph>
    <TTGlyph name="Z" xMin="49" yMin="0" xMax="1137" yMax="1462">
      <contour>
        <pt x="1137" y="256" on="1"/>
        <pt x="1137" y="0" on="1"/>
        <pt x="49" y="0" on="1"/>
        <pt x="49" y="201" on="1"/>
        <pt x="750" y="1206" on="1"/>
        <pt x="68" y="1206" on="1"/>
        <pt x="68" y="1462" on="1"/>
        <pt x="1118" y="1462" on="1"/>
        <pt x="1118" y="1262" on="1"/>
        <pt x="418" y="256" on="1"/>
      </contour>
    </TTGlyph>
    <TTGlyph name="Zcaron" xMin="49" yMin="0" xMax="1137" yMax="1907">
      <contour>
        <pt x="1040" y="1907" on="1"/>
        <pt x="1040" y="1880" on="1"/>
        <pt x="957" y="1797" on="0"/>
        <pt x="815" y="1630" on="0"/>
        <pt x="784" y="1579" on="1"/>
        <pt x="427" y="1579" on="1"/>
        <pt x="399" y="1625" on="0"/>
        <pt x="290" y="1756" on="0"/>
        <pt x="171" y="1880" on="1"/>
        <pt x="171" y="1907" on="1"/>
        <pt x="374" y="1907" on="1"/>
        <pt x="518" y="1816" on="0"/>
        <pt x="603" y="1731" on="1"/>
        <pt x="688" y="1819" on="0"/>
        <pt x="837" y="1907" on="1"/>
      </contour>
      <contour>
        <pt x="1137" y="256" on="1"/>
        <pt x="1137" y="0" on="1"/>
        <pt x="49" y="0" on="1"/>
        <pt x="49" y="201" on="1"/>
        <pt x="750" y="1206" on="1"/>
        <pt x="68" y="1206" on="1"/>
        <pt x="68" y="1462" on="1"/>
        <pt x="1118" y="1462" on="1"/>
        <pt x="1118" y="1262" on="1"/>
        <pt x="418" y="256" on="1"/>
      </contour>
    </TTGlyph>
    <TTGlyph name="a" xMin="86" yMin="-20" xMax="1083" yMax="1141">
      <contour>
        <pt x="190" y="1040" on="1"/>
        <pt x="384" y="1141" on="0"/>
        <pt x="846" y="1141" on="0"/>
        <pt x="1083" y="943" on="0"/>
        <pt x="1083" y="745" on="1"/>
        <pt x="1083" y="0" on="1"/>
        <pt x="870" y="0" on="1"/>
        <pt x="811" y="152" on="1"/>
        <pt x="803" y="152" on="1"/>
        <pt x="726" y="54" on="0"/>
        <pt x="564" y="-20" on="0"/>
        <pt x="432" y="-20" on="1"/>
        <pt x="272" y="-20" on="0"/>
        <pt x="178" y="72" on="1"/>
        <pt x="86" y="164" on="0"/>
        <pt x="86" y="510" on="0"/>
        <pt x="332" y="681" on="0"/>
        <pt x="586" y="690" on="1"/>
        <pt x="780" y="696" on="1"/>
        <pt x="780" y="745" on="1"/>
        <pt x="780" y="915" on="0"/>
        <pt x="606" y="915" on="1"/>
        <pt x="472" y="915" on="0"/>
        <pt x="291" y="834" on="1"/>
      </contour>
      <contour>
        <pt x="399" y="332" on="1"/>
        <pt x="399" y="203" on="0"/>
        <pt x="547" y="203" on="1"/>
        <pt x="654" y="203" on="0"/>
        <pt x="780" y="325" on="0"/>
        <pt x="780" y="426" on="1"/>
        <pt x="780" y="518" on="1"/>
        <pt x="662" y="514" on="1"/>
        <pt x="529" y="510" on="0"/>
        <pt x="399" y="422" on="0"/>
      </contour>
    </TTGlyph>
    <TTGlyph name="aacute" xMin="86" yMin="-20" xMax="1083" yMax="1569">
      <contour>
        <pt x="1018" y="1569" on="1"/>
        <pt x="1018" y="1548" on="1"/>
        <pt x="967" y="1497" on="0"/>
        <pt x="717" y="1293" on="0"/>
        <pt x="644" y="1241" on="1"/>
        <pt x="441" y="1241" on="1"/>
        <pt x="441" y="1268" on="1"/>
        <pt x="609" y="1463" on="0"/>
        <pt x="676" y="1569" on="1"/>
      </contour>
      <contour>
        <pt x="190" y="1040" on="1"/>
        <pt x="384" y="1141" on="0"/>
        <pt x="846" y="1141" on="0"/>
        <pt x="1083" y="943" on="0"/>
        <pt x="1083" y="745" on="1"/>
        <pt x="1083" y="0" on="1"/>
        <pt x="870" y="0" on="1"/>
        <pt x="811" y="152" on="1"/>
        <pt x="803" y="152" on="1"/>
        <pt x="726" y="55" on="0"/>
        <pt x="563" y="-20" on="0"/>
        <pt x="432" y="-20" on="1"/>
        <pt x="269" y="-20" on="0"/>
        <pt x="86" y="165" on="0"/>
        <pt x="86" y="510" on="0"/>
        <pt x="332" y="681" on="0"/>
        <pt x="586" y="690" on="1"/>
        <pt x="780" y="696" on="1"/>
        <pt x="780" y="745" on="1"/>
        <pt x="780" y="915" on="0"/>
        <pt x="606" y="915" on="1"/>
        <pt x="472" y="915" on="0"/>
        <pt x="291" y="834" on="1"/>
      </contour>
      <contour>
        <pt x="399" y="332" on="1"/>
        <pt x="399" y="203" on="0"/>
        <pt x="547" y="203" on="1"/>
        <pt x="653" y="203" on="0"/>
        <pt x="780" y="325" on="0"/>
        <pt x="780" y="426" on="1"/>
        <pt x="780" y="518" on="1"/>
        <pt x="662" y="514" on="1"/>
        <pt x="529" y="510" on="0"/>
        <pt x="399" y="422" on="0"/>
      </contour>
    </TTGlyph>
    <TTGlyph name="acircumflex" xMin="86" yMin="-20" xMax="1083" yMax="1568">
      <contour>
        <pt x="1046" y="1240" on="1"/>
        <pt x="843" y="1240" on="1"/>
        <pt x="687" y="1332" on="0"/>
        <pt x="609" y="1416" on="1"/>
        <pt x="529" y="1333" on="0"/>
        <pt x="380" y="1240" on="1"/>
        <pt x="177" y="1240" on="1"/>
        <pt x="177" y="1267" on="1"/>
        <pt x="366" y="1456" on="0"/>
        <pt x="433" y="1568" on="1"/>
        <pt x="790" y="1568" on="1"/>
        <pt x="820" y="1517" on="0"/>
        <pt x="973" y="1337" on="0"/>
        <pt x="1046" y="1267" on="1"/>
      </contour>
      <contour>
        <pt x="190" y="1040" on="1"/>
        <pt x="384" y="1141" on="0"/>
        <pt x="846" y="1141" on="0"/>
        <pt x="1083" y="943" on="0"/>
        <pt x="1083" y="745" on="1"/>
        <pt x="1083" y="0" on="1"/>
        <pt x="870" y="0" on="1"/>
        <pt x="811" y="152" on="1"/>
        <pt x="803" y="152" on="1"/>
        <pt x="726" y="55" on="0"/>
        <pt x="563" y="-20" on="0"/>
        <pt x="432" y="-20" on="1"/>
        <pt x="269" y="-20" on="0"/>
        <pt x="86" y="165" on="0"/>
        <pt x="86" y="510" on="0"/>
        <pt x="332" y="681" on="0"/>
        <pt x="586" y="690" on="1"/>
        <pt x="780" y="696" on="1"/>
        <pt x="780" y="745" on="1"/>
        <pt x="780" y="915" on="0"/>
        <pt x="606" y="915" on="1"/>
        <pt x="472" y="915" on="0"/>
        <pt x="291" y="834" on="1"/>
      </contour>
      <contour>
        <pt x="399" y="332" on="1"/>
        <pt x="399" y="203" on="0"/>
        <pt x="547" y="203" on="1"/>
        <pt x="653" y="203" on="0"/>
        <pt x="780" y="325" on="0"/>
        <pt x="780" y="426" on="1"/>
        <pt x="780" y="518" on="1"/>
        <pt x="662" y="514" on="1"/>
        <pt x="529" y="510" on="0"/>
        <pt x="399" y="422" on="0"/>
      </contour>
    </TTGlyph>
    <TTGlyph name="acute" xMin="332" yMin="1241" xMax="909" yMax="1569">
      <contour>
        <pt x="909" y="1569" on="1"/>
        <pt x="909" y="1548" on="1"/>
        <pt x="858" y="1497" on="0"/>
        <pt x="608" y="1293" on="0"/>
        <pt x="535" y="1241" on="1"/>
        <pt x="332" y="1241" on="1"/>
        <pt x="332" y="1268" on="1"/>
        <pt x="500" y="1463" on="0"/>
        <pt x="567" y="1569" on="1"/>
      </contour>
    </TTGlyph>
    <TTGlyph name="adieresis" xMin="86" yMin="-20" xMax="1083" yMax="1540">
      <contour>
        <pt x="359" y="1540" on="0"/>
        <pt x="489" y="1540" on="0"/>
        <pt x="565" y="1466" on="0"/>
        <pt x="565" y="1345" on="0"/>
        <pt x="489" y="1272" on="0"/>
        <pt x="360" y="1272" on="0"/>
        <pt x="285" y="1342" on="0"/>
        <pt x="285" y="1469" on="0"/>
      </contour>
      <contour>
        <pt x="688" y="1472" on="0"/>
        <pt x="766" y="1540" on="0"/>
        <pt x="894" y="1540" on="0"/>
        <pt x="971" y="1468" on="0"/>
        <pt x="971" y="1344" on="0"/>
        <pt x="893" y="1272" on="0"/>
        <pt x="766" y="1272" on="0"/>
        <pt x="688" y="1339" on="0"/>
      </contour>
      <contour>
        <pt x="190" y="1040" on="1"/>
        <pt x="384" y="1141" on="0"/>
        <pt x="846" y="1141" on="0"/>
        <pt x="1083" y="943" on="0"/>
        <pt x="1083" y="745" on="1"/>
        <pt x="1083" y="0" on="1"/>
        <pt x="870" y="0" on="1"/>
        <pt x="811" y="152" on="1"/>
        <pt x="803" y="152" on="1"/>
        <pt x="726" y="55" on="0"/>
        <pt x="563" y="-20" on="0"/>
        <pt x="432" y="-20" on="1"/>
        <pt x="269" y="-20" on="0"/>
        <pt x="86" y="165" on="0"/>
        <pt x="86" y="510" on="0"/>
        <pt x="332" y="681" on="0"/>
        <pt x="586" y="690" on="1"/>
        <pt x="780" y="696" on="1"/>
        <pt x="780" y="745" on="1"/>
        <pt x="780" y="915" on="0"/>
        <pt x="606" y="915" on="1"/>
        <pt x="472" y="915" on="0"/>
        <pt x="291" y="834" on="1"/>
      </contour>
      <contour>
        <pt x="399" y="332" on="1"/>
        <pt x="399" y="203" on="0"/>
        <pt x="547" y="203" on="1"/>
        <pt x="653" y="203" on="0"/>
        <pt x="780" y="325" on="0"/>
        <pt x="780" y="426" on="1"/>
        <pt x="780" y="518" on="1"/>
        <pt x="662" y="514" on="1"/>
        <pt x="529" y="510" on="0"/>
        <pt x="399" y="422" on="0"/>
      </contour>
    </TTGlyph>
    <TTGlyph name="ae" xMin="86" yMin="-20" xMax="1790" yMax="1141">
      <contour>
        <pt x="190" y="1040" on="1"/>
        <pt x="380" y="1141" on="0"/>
        <pt x="838" y="1141" on="0"/>
        <pt x="954" y="1010" on="1"/>
        <pt x="1088" y="1139" on="0"/>
        <pt x="1534" y="1139" on="0"/>
        <pt x="1790" y="865" on="0"/>
        <pt x="1790" y="631" on="1"/>
        <pt x="1790" y="483" on="1"/>
        <pt x="1067" y="483" on="1"/>
        <pt x="1072" y="352" on="0"/>
        <pt x="1217" y="207" on="0"/>
        <pt x="1346" y="207" on="1"/>
        <pt x="1543" y="207" on="0"/>
        <pt x="1726" y="295" on="1"/>
        <pt x="1726" y="59" on="1"/>
        <pt x="1566" y="-20" on="0"/>
        <pt x="1329" y="-20" on="1"/>
        <pt x="1189" y="-20" on="0"/>
        <pt x="966" y="83" on="0"/>
        <pt x="895" y="186" on="1"/>
        <pt x="797" y="69" on="0"/>
        <pt x="600" y="-20" on="0"/>
        <pt x="280" y="-20" on="0"/>
        <pt x="86" y="170" on="0"/>
        <pt x="86" y="509" on="0"/>
        <pt x="325" y="681" on="0"/>
        <pt x="569" y="690" on="1"/>
        <pt x="760" y="696" on="1"/>
        <pt x="760" y="780" on="1"/>
        <pt x="760" y="848" on="0"/>
        <pt x="673" y="915" on="0"/>
        <pt x="594" y="915" on="1"/>
        <pt x="455" y="915" on="0"/>
        <pt x="289" y="838" on="1"/>
      </contour>
      <contour>
        <pt x="1307" y="922" on="1"/>
        <pt x="1090" y="922" on="0"/>
        <pt x="1073" y="686" on="1"/>
        <pt x="1503" y="686" on="1"/>
        <pt x="1501" y="797" on="0"/>
        <pt x="1395" y="922" on="0"/>
      </contour>
      <contour>
        <pt x="399" y="332" on="1"/>
        <pt x="399" y="203" on="0"/>
        <pt x="539" y="203" on="1"/>
        <pt x="640" y="203" on="0"/>
        <pt x="760" y="325" on="0"/>
        <pt x="760" y="426" on="1"/>
        <pt x="760" y="518" on="1"/>
        <pt x="647" y="514" on="1"/>
        <pt x="522" y="510" on="0"/>
        <pt x="399" y="422" on="0"/>
      </contour>
    </TTGlyph>
    <TTGlyph name="agrave" xMin="86" yMin="-20" xMax="1083" yMax="1569">
      <contour>
        <pt x="239" y="1569" on="1"/>
        <pt x="581" y="1569" on="1"/>
        <pt x="648" y="1463" on="0"/>
        <pt x="816" y="1268" on="1"/>
        <pt x="816" y="1241" on="1"/>
        <pt x="614" y="1241" on="1"/>
        <pt x="545" y="1289" on="0"/>
        <pt x="303" y="1486" on="0"/>
        <pt x="239" y="1548" on="1"/>
      </contour>
      <contour>
        <pt x="190" y="1040" on="1"/>
        <pt x="384" y="1141" on="0"/>
        <pt x="846" y="1141" on="0"/>
        <pt x="1083" y="943" on="0"/>
        <pt x="1083" y="745" on="1"/>
        <pt x="1083" y="0" on="1"/>
        <pt x="870" y="0" on="1"/>
        <pt x="811" y="152" on="1"/>
        <pt x="803" y="152" on="1"/>
        <pt x="726" y="55" on="0"/>
        <pt x="563" y="-20" on="0"/>
        <pt x="432" y="-20" on="1"/>
        <pt x="269" y="-20" on="0"/>
        <pt x="86" y="165" on="0"/>
        <pt x="86" y="510" on="0"/>
        <pt x="332" y="681" on="0"/>
        <pt x="586" y="690" on="1"/>
        <pt x="780" y="696" on="1"/>
        <pt x="780" y="745" on="1"/>
        <pt x="780" y="915" on="0"/>
        <pt x="606" y="915" on="1"/>
        <pt x="472" y="915" on="0"/>
        <pt x="291" y="834" on="1"/>
      </contour>
      <contour>
        <pt x="399" y="332" on="1"/>
        <pt x="399" y="203" on="0"/>
        <pt x="547" y="203" on="1"/>
        <pt x="653" y="203" on="0"/>
        <pt x="780" y="325" on="0"/>
        <pt x="780" y="426" on="1"/>
        <pt x="780" y="518" on="1"/>
        <pt x="662" y="514" on="1"/>
        <pt x="529" y="510" on="0"/>
        <pt x="399" y="422" on="0"/>
      </contour>
    </TTGlyph>
    <TTGlyph name="alefdageshhb" xMin="92" yMin="0" xMax="1237" yMax="1290">
      <contour>
        <pt x="1208" y="1290" on="1"/>
        <pt x="1208" y="828" on="1"/>
        <pt x="1208" y="659" on="0"/>
        <pt x="1141" y="572" on="1"/>
        <pt x="1114" y="537" on="0"/>
        <pt x="1016" y="472" on="0"/>
        <pt x="949" y="452" on="1"/>
        <pt x="1237" y="0" on="1"/>
        <pt x="890" y="0" on="1"/>
        <pt x="506" y="639" on="1"/>
        <pt x="459" y="619" on="0"/>
        <pt x="422" y="535" on="0"/>
        <pt x="421" y="464" on="1"/>
        <pt x="421" y="0" on="1"/>
        <pt x="117" y="0" on="1"/>
        <pt x="117" y="461" on="1"/>
        <pt x="117" y="511" on="0"/>
        <pt x="126" y="588" on="0"/>
        <pt x="157" y="682" on="0"/>
        <pt x="212" y="753" on="0"/>
        <pt x="311" y="818" on="0"/>
        <pt x="379" y="838" on="1"/>
        <pt x="92" y="1290" on="1"/>
        <pt x="438" y="1290" on="1"/>
        <pt x="698" y="848" on="1"/>
        <pt x="823" y="651" on="1"/>
        <pt x="867" y="671" on="0"/>
        <pt x="903" y="755" on="0"/>
        <pt x="904" y="825" on="1"/>
        <pt x="904" y="1290" on="1"/>
      </contour>
      <contour>
        <pt x="512" y="254" on="0"/>
        <pt x="562" y="300" on="0"/>
        <pt x="649" y="300" on="0"/>
        <pt x="701" y="252" on="0"/>
        <pt x="701" y="174" on="0"/>
        <pt x="649" y="127" on="0"/>
        <pt x="561" y="127" on="0"/>
        <pt x="512" y="172" on="0"/>
      </contour>
    </TTGlyph>
    <TTGlyph name="alefpatahhb" xMin="92" yMin="-249" xMax="1237" yMax="1290">
      <contour>
        <pt x="1208" y="1290" on="1"/>
        <pt x="1208" y="828" on="1"/>
        <pt x="1208" y="659" on="0"/>
        <pt x="1141" y="572" on="1"/>
        <pt x="1114" y="537" on="0"/>
        <pt x="1016" y="472" on="0"/>
        <pt x="949" y="452" on="1"/>
        <pt x="1237" y="0" on="1"/>
        <pt x="890" y="0" on="1"/>
        <pt x="506" y="639" on="1"/>
        <pt x="459" y="619" on="0"/>
        <pt x="422" y="535" on="0"/>
        <pt x="421" y="464" on="1"/>
        <pt x="421" y="0" on="1"/>
        <pt x="117" y="0" on="1"/>
        <pt x="117" y="461" on="1"/>
        <pt x="117" y="511" on="0"/>
        <pt x="126" y="588" on="0"/>
        <pt x="157" y="682" on="0"/>
        <pt x="212" y="753" on="0"/>
        <pt x="311" y="818" on="0"/>
        <pt x="379" y="838" on="1"/>
        <pt x="92" y="1290" on="1"/>
        <pt x="438" y="1290" on="1"/>
        <pt x="698" y="848" on="1"/>
        <pt x="823" y="651" on="1"/>
        <pt x="867" y="671" on="0"/>
        <pt x="903" y="755" on="0"/>
        <pt x="904" y="825" on="1"/>
        <pt x="904" y="1290" on="1"/>
      </contour>
      <contour>
        <pt x="862" y="-249" on="1"/>
        <pt x="469" y="-249" on="1"/>
        <pt x="469" y="-133" on="1"/>
        <pt x="862" y="-133" on="1"/>
      </contour>
    </TTGlyph>
    <TTGlyph name="alefqamatshb" xMin="92" yMin="-472" xMax="1237" yMax="1290">
      <contour>
        <pt x="1208" y="1290" on="1"/>
        <pt x="1208" y="828" on="1"/>
        <pt x="1208" y="659" on="0"/>
        <pt x="1141" y="572" on="1"/>
        <pt x="1114" y="537" on="0"/>
        <pt x="1016" y="472" on="0"/>
        <pt x="949" y="452" on="1"/>
        <pt x="1237" y="0" on="1"/>
        <pt x="890" y="0" on="1"/>
        <pt x="506" y="639" on="1"/>
        <pt x="459" y="619" on="0"/>
        <pt x="422" y="535" on="0"/>
        <pt x="421" y="464" on="1"/>
        <pt x="421" y="0" on="1"/>
        <pt x="117" y="0" on="1"/>
        <pt x="117" y="461" on="1"/>
        <pt x="117" y="511" on="0"/>
        <pt x="126" y="588" on="0"/>
        <pt x="157" y="682" on="0"/>
        <pt x="212" y="753" on="0"/>
        <pt x="311" y="818" on="0"/>
        <pt x="379" y="838" on="1"/>
        <pt x="92" y="1290" on="1"/>
        <pt x="438" y="1290" on="1"/>
        <pt x="698" y="848" on="1"/>
        <pt x="823" y="651" on="1"/>
        <pt x="867" y="671" on="0"/>
        <pt x="903" y="755" on="0"/>
        <pt x="904" y="825" on="1"/>
        <pt x="904" y="1290" on="1"/>
      </contour>
      <contour>
        <pt x="857" y="-270" on="1"/>
        <pt x="721" y="-270" on="1"/>
        <pt x="721" y="-472" on="1"/>
        <pt x="610" y="-472" on="1"/>
        <pt x="610" y="-270" on="1"/>
        <pt x="475" y="-270" on="1"/>
        <pt x="475" y="-153" on="1"/>
        <pt x="857" y="-153" on="1"/>
      </contour>
    </TTGlyph>
    <TTGlyph name="ampersand" xMin="82" yMin="-20" xMax="1536" yMax="1483">
      <contour>
        <pt x="1044" y="113" on="1"/>
        <pt x="854" y="-20" on="0"/>
        <pt x="367" y="-20" on="0"/>
        <pt x="82" y="205" on="0"/>
        <pt x="82" y="395" on="1"/>
        <pt x="82" y="532" on="0"/>
        <pt x="203" y="725" on="0"/>
        <pt x="350" y="809" on="1"/>
        <pt x="274" y="896" on="0"/>
        <pt x="207" y="1053" on="0"/>
        <pt x="207" y="1145" on="1"/>
        <pt x="207" y="1297" on="0"/>
        <pt x="323" y="1390" on="1"/>
        <pt x="440" y="1483" on="0"/>
        <pt x="821" y="1483" on="0"/>
        <pt x="932" y="1396" on="1"/>
        <pt x="1044" y="1311" on="0"/>
        <pt x="1044" y="1165" on="1"/>
        <pt x="1044" y="1045" on="0"/>
        <pt x="904" y="848" on="0"/>
        <pt x="752" y="760" on="1"/>
        <pt x="1036" y="483" on="1"/>
        <pt x="1107" y="600" on="0"/>
        <pt x="1159" y="784" on="1"/>
        <pt x="1477" y="784" on="1"/>
        <pt x="1441" y="648" on="0"/>
        <pt x="1315" y="391" on="0"/>
        <pt x="1235" y="293" on="1"/>
        <pt x="1536" y="0" on="1"/>
        <pt x="1159" y="0" on="1"/>
      </contour>
      <contour>
        <pt x="762" y="1186" on="0"/>
        <pt x="691" y="1247" on="0"/>
        <pt x="566" y="1247" on="0"/>
        <pt x="489" y="1183" on="0"/>
        <pt x="489" y="1124" on="1"/>
        <pt x="489" y="1037" on="0"/>
        <pt x="584" y="930" on="1"/>
        <pt x="675" y="980" on="0"/>
        <pt x="762" y="1073" on="0"/>
      </contour>
      <contour>
        <pt x="403" y="424" on="1"/>
        <pt x="403" y="338" on="0"/>
        <pt x="532" y="236" on="0"/>
        <pt x="633" y="236" on="1"/>
        <pt x="760" y="236" on="0"/>
        <pt x="860" y="297" on="1"/>
        <pt x="528" y="627" on="1"/>
        <pt x="466" y="579" on="0"/>
        <pt x="403" y="484" on="0"/>
      </contour>
    </TTGlyph>
    <TTGlyph name="aring" xMin="86" yMin="-20" xMax="1083" yMax="1714">
      <contour>
        <pt x="381" y="1585" on="0"/>
        <pt x="516" y="1714" on="0"/>
        <pt x="739" y="1714" on="0"/>
        <pt x="883" y="1582" on="0"/>
        <pt x="883" y="1372" on="0"/>
        <pt x="741" y="1239" on="0"/>
        <pt x="516" y="1239" on="0"/>
        <pt x="381" y="1367" on="0"/>
      </contour>
      <contour>
        <pt x="672" y="1573" on="0"/>
        <pt x="586" y="1573" on="0"/>
        <pt x="533" y="1521" on="0"/>
        <pt x="533" y="1431" on="0"/>
        <pt x="582" y="1380" on="0"/>
        <pt x="672" y="1380" on="0"/>
        <pt x="725" y="1433" on="0"/>
        <pt x="725" y="1521" on="0"/>
      </contour>
      <contour>
        <pt x="190" y="1040" on="1"/>
        <pt x="384" y="1141" on="0"/>
        <pt x="846" y="1141" on="0"/>
        <pt x="1083" y="943" on="0"/>
        <pt x="1083" y="745" on="1"/>
        <pt x="1083" y="0" on="1"/>
        <pt x="870" y="0" on="1"/>
        <pt x="811" y="152" on="1"/>
        <pt x="803" y="152" on="1"/>
        <pt x="726" y="55" on="0"/>
        <pt x="563" y="-20" on="0"/>
        <pt x="432" y="-20" on="1"/>
        <pt x="269" y="-20" on="0"/>
        <pt x="86" y="165" on="0"/>
        <pt x="86" y="510" on="0"/>
        <pt x="332" y="681" on="0"/>
        <pt x="586" y="690" on="1"/>
        <pt x="780" y="696" on="1"/>
        <pt x="780" y="745" on="1"/>
        <pt x="780" y="915" on="0"/>
        <pt x="606" y="915" on="1"/>
        <pt x="472" y="915" on="0"/>
        <pt x="291" y="834" on="1"/>
      </contour>
      <contour>
        <pt x="399" y="332" on="1"/>
        <pt x="399" y="203" on="0"/>
        <pt x="547" y="203" on="1"/>
        <pt x="653" y="203" on="0"/>
        <pt x="780" y="325" on="0"/>
        <pt x="780" y="426" on="1"/>
        <pt x="780" y="518" on="1"/>
        <pt x="662" y="514" on="1"/>
        <pt x="529" y="510" on="0"/>
        <pt x="399" y="422" on="0"/>
      </contour>
    </TTGlyph>
    <TTGlyph name="asciicircum" xMin="8" yMin="520" xMax="1085" yMax="1470">
      <contour>
        <pt x="1085" y="520" on="1"/>
        <pt x="846" y="520" on="1"/>
        <pt x="524" y="1163" on="1"/>
        <pt x="244" y="520" on="1"/>
        <pt x="8" y="520" on="1"/>
        <pt x="446" y="1470" on="1"/>
        <pt x="590" y="1470" on="1"/>
      </contour>
    </TTGlyph>
    <TTGlyph name="asciitilde" xMin="88" yMin="551" xMax="1081" yMax="893">
      <contour>
        <pt x="825" y="553" on="1"/>
        <pt x="757" y="553" on="0"/>
        <pt x="634" y="581" on="0"/>
        <pt x="549" y="616" on="1"/>
        <pt x="417" y="672" on="0"/>
        <pt x="322" y="672" on="1"/>
        <pt x="268" y="672" on="0"/>
        <pt x="143" y="606" on="0"/>
        <pt x="88" y="551" on="1"/>
        <pt x="88" y="782" on="1"/>
        <pt x="191" y="891" on="0"/>
        <pt x="344" y="891" on="1"/>
        <pt x="472" y="891" on="0"/>
        <pt x="749" y="772" on="0"/>
        <pt x="848" y="772" on="1"/>
        <pt x="902" y="772" on="0"/>
        <pt x="1028" y="837" on="0"/>
        <pt x="1081" y="893" on="1"/>
        <pt x="1081" y="662" on="1"/>
        <pt x="981" y="553" on="0"/>
      </contour>
    </TTGlyph>
    <TTGlyph name="asterisk" xMin="63" yMin="598" xMax="1053" yMax="1556">
      <contour>
        <pt x="647" y="1188" on="1"/>
        <pt x="1020" y="1292" on="1"/>
        <pt x="1053" y="1040" on="1"/>
        <pt x="713" y="1016" on="1"/>
        <pt x="936" y="719" on="1"/>
        <pt x="709" y="598" on="1"/>
        <pt x="553" y="911" on="1"/>
        <pt x="416" y="600" on="1"/>
        <pt x="180" y="719" on="1"/>
        <pt x="401" y="1016" on="1"/>
        <pt x="63" y="1042" on="1"/>
        <pt x="102" y="1292" on="1"/>
        <pt x="467" y="1188" on="1"/>
        <pt x="426" y="1556" on="1"/>
        <pt x="688" y="1556" on="1"/>
      </contour>
    </TTGlyph>
    <TTGlyph name="at" xMin="102" yMin="-154" xMax="1735" yMax="1481">
      <contour>
        <pt x="907" y="-154" on="1"/>
        <pt x="528" y="-154" on="0"/>
        <pt x="314" y="46" on="1"/>
        <pt x="102" y="246" on="0"/>
        <pt x="102" y="602" on="1"/>
        <pt x="102" y="849" on="0"/>
        <pt x="319" y="1252" on="0"/>
        <pt x="719" y="1481" on="0"/>
        <pt x="980" y="1481" on="1"/>
        <pt x="1202" y="1481" on="0"/>
        <pt x="1547" y="1301" on="0"/>
        <pt x="1735" y="969" on="0"/>
        <pt x="1735" y="752" on="1"/>
        <pt x="1735" y="749" on="0"/>
        <pt x="1735" y="746" on="1"/>
        <pt x="1735" y="606" on="0"/>
        <pt x="1644" y="370" on="0"/>
        <pt x="1476" y="233" on="0"/>
        <pt x="1373" y="233" on="1"/>
        <pt x="1368" y="233" on="0"/>
        <pt x="1364" y="233" on="1"/>
        <pt x="1291" y="233" on="0"/>
        <pt x="1176" y="304" on="0"/>
        <pt x="1151" y="362" on="1"/>
        <pt x="1135" y="362" on="1"/>
        <pt x="1027" y="233" on="0"/>
        <pt x="683" y="233" on="0"/>
        <pt x="479" y="446" on="0"/>
        <pt x="479" y="631" on="1"/>
        <pt x="479" y="842" on="0"/>
        <pt x="613" y="970" on="1"/>
        <pt x="746" y="1100" on="0"/>
        <pt x="963" y="1100" on="1"/>
        <pt x="1045" y="1100" on="0"/>
        <pt x="1256" y="1066" on="0"/>
        <pt x="1323" y="1044" on="1"/>
        <pt x="1300" y="555" on="1"/>
        <pt x="1300" y="416" on="0"/>
        <pt x="1376" y="416" on="1"/>
        <pt x="1440" y="416" on="0"/>
        <pt x="1516" y="605" on="0"/>
        <pt x="1516" y="754" on="1"/>
        <pt x="1516" y="759" on="0"/>
        <pt x="1516" y="763" on="1"/>
        <pt x="1516" y="917" on="0"/>
        <pt x="1382" y="1161" on="0"/>
        <pt x="1142" y="1292" on="0"/>
        <pt x="995" y="1292" on="1"/>
        <pt x="989" y="1292" on="0"/>
        <pt x="982" y="1292" on="1"/>
        <pt x="781" y="1292" on="0"/>
        <pt x="482" y="1126" on="0"/>
        <pt x="403" y="968" on="1"/>
        <pt x="324" y="814" on="0"/>
        <pt x="324" y="608" on="1"/>
        <pt x="324" y="332" on="0"/>
        <pt x="620" y="37" on="0"/>
        <pt x="899" y="37" on="1"/>
        <pt x="1131" y="37" on="0"/>
        <pt x="1382" y="129" on="1"/>
        <pt x="1382" y="-63" on="1"/>
        <pt x="1169" y="-154" on="0"/>
      </contour>
      <contour>
        <pt x="974" y="918" on="1"/>
        <pt x="850" y="918" on="0"/>
        <pt x="711" y="763" on="0"/>
        <pt x="711" y="627" on="1"/>
        <pt x="711" y="416" on="0"/>
        <pt x="883" y="416" on="1"/>
        <pt x="974" y="416" on="0"/>
        <pt x="1067" y="544" on="0"/>
        <pt x="1077" y="686" on="1"/>
        <pt x="1090" y="907" on="1"/>
        <pt x="1037" y="918" on="0"/>
      </contour>
    </TTGlyph>
    <TTGlyph name="atilde" xMin="86" yMin="-20" xMax="1083" yMax="1550">
      <contour>
        <pt x="774" y="1241" on="1"/>
        <pt x="727" y="1241" on="0"/>
        <pt x="670" y="1268" on="1"/>
        <pt x="651" y="1276" on="0"/>
        <pt x="632" y="1286" on="1"/>
        <pt x="515" y="1346" on="0"/>
        <pt x="434" y="1346" on="0"/>
        <pt x="378" y="1291" on="0"/>
        <pt x="366" y="1239" on="1"/>
        <pt x="217" y="1239" on="1"/>
        <pt x="228" y="1384" on="0"/>
        <pt x="372" y="1548" on="0"/>
        <pt x="489" y="1548" on="1"/>
        <pt x="544" y="1548" on="0"/>
        <pt x="648" y="1496" on="1"/>
        <pt x="684" y="1478" on="0"/>
        <pt x="700" y="1470" on="1"/>
        <pt x="754" y="1444" on="0"/>
        <pt x="829" y="1444" on="0"/>
        <pt x="885" y="1499" on="0"/>
        <pt x="897" y="1550" on="1"/>
        <pt x="1046" y="1550" on="1"/>
        <pt x="1035" y="1405" on="0"/>
        <pt x="890" y="1241" on="0"/>
      </contour>
      <contour>
        <pt x="190" y="1040" on="1"/>
        <pt x="384" y="1141" on="0"/>
        <pt x="846" y="1141" on="0"/>
        <pt x="1083" y="943" on="0"/>
        <pt x="1083" y="745" on="1"/>
        <pt x="1083" y="0" on="1"/>
        <pt x="870" y="0" on="1"/>
        <pt x="811" y="152" on="1"/>
        <pt x="803" y="152" on="1"/>
        <pt x="726" y="55" on="0"/>
        <pt x="563" y="-20" on="0"/>
        <pt x="432" y="-20" on="1"/>
        <pt x="269" y="-20" on="0"/>
        <pt x="86" y="165" on="0"/>
        <pt x="86" y="510" on="0"/>
        <pt x="332" y="681" on="0"/>
        <pt x="586" y="690" on="1"/>
        <pt x="780" y="696" on="1"/>
        <pt x="780" y="745" on="1"/>
        <pt x="780" y="915" on="0"/>
        <pt x="606" y="915" on="1"/>
        <pt x="472" y="915" on="0"/>
        <pt x="291" y="834" on="1"/>
      </contour>
      <contour>
        <pt x="399" y="332" on="1"/>
        <pt x="399" y="203" on="0"/>
        <pt x="547" y="203" on="1"/>
        <pt x="653" y="203" on="0"/>
        <pt x="780" y="325" on="0"/>
        <pt x="780" y="426" on="1"/>
        <pt x="780" y="518" on="1"/>
        <pt x="662" y="514" on="1"/>
        <pt x="529" y="510" on="0"/>
        <pt x="399" y="422" on="0"/>
      </contour>
    </TTGlyph>
    <TTGlyph name="b" xMin="160" yMin="-20" xMax="1204" yMax="1556">
      <contour>
        <pt x="465" y="1556" on="1"/>
        <pt x="465" y="1194" on="1"/>
        <pt x="465" y="1125" on="0"/>
        <pt x="453" y="972" on="1"/>
        <pt x="465" y="972" on="1"/>
        <pt x="571" y="1139" on="0"/>
        <pt x="980" y="1139" on="0"/>
        <pt x="1092" y="983" on="1"/>
        <pt x="1204" y="831" on="0"/>
        <pt x="1204" y="284" on="0"/>
        <pt x="972" y="-20" on="0"/>
        <pt x="578" y="-20" on="0"/>
        <pt x="465" y="123" on="1"/>
        <pt x="444" y="123" on="1"/>
        <pt x="393" y="0" on="1"/>
        <pt x="160" y="0" on="1"/>
        <pt x="160" y="1556" on="1"/>
      </contour>
      <contour>
        <pt x="465" y="563" on="1"/>
        <pt x="465" y="384" on="0"/>
        <pt x="571" y="227" on="0"/>
        <pt x="688" y="227" on="1"/>
        <pt x="783" y="227" on="0"/>
        <pt x="893" y="402" on="0"/>
        <pt x="893" y="727" on="0"/>
        <pt x="783" y="895" on="0"/>
        <pt x="684" y="895" on="1"/>
        <pt x="570" y="895" on="0"/>
        <pt x="467" y="755" on="0"/>
        <pt x="465" y="596" on="1"/>
      </contour>
    </TTGlyph>
    <TTGlyph name="backslash" xMin="12" yMin="0" xMax="834" yMax="1462">
      <contour>
        <pt x="834" y="0" on="1"/>
        <pt x="557" y="0" on="1"/>
        <pt x="12" y="1462" on="1"/>
        <pt x="289" y="1462" on="1"/>
      </contour>
    </TTGlyph>
    <TTGlyph name="bar" xMin="455" yMin="-465" xMax="674" yMax="1550">
      <contour>
        <pt x="674" y="-465" on="1"/>
        <pt x="455" y="-465" on="1"/>
        <pt x="455" y="1550" on="1"/>
        <pt x="674" y="1550" on="1"/>
      </contour>
    </TTGlyph>
    <TTGlyph name="betdageshhb" xMin="102" yMin="0" xMax="1134" yMax="1310">
      <contour>
        <pt x="466" y="1310" on="1"/>
        <pt x="791" y="1310" on="0"/>
        <pt x="896" y="1185" on="1"/>
        <pt x="952" y="1118" on="0"/>
        <pt x="968" y="1038" on="1"/>
        <pt x="986" y="953" on="0"/>
        <pt x="986" y="843" on="1"/>
        <pt x="986" y="233" on="1"/>
        <pt x="1134" y="233" on="1"/>
        <pt x="1134" y="0" on="1"/>
        <pt x="102" y="0" on="1"/>
        <pt x="102" y="233" on="1"/>
        <pt x="681" y="233" on="1"/>
        <pt x="681" y="844" on="1"/>
        <pt x="681" y="1075" on="0"/>
        <pt x="427" y="1075" on="1"/>
        <pt x="298" y="1075" on="0"/>
        <pt x="151" y="1057" on="1"/>
        <pt x="102" y="1051" on="1"/>
        <pt x="102" y="1292" on="1"/>
        <pt x="249" y="1310" on="0"/>
      </contour>
      <contour>
        <pt x="288" y="714" on="0"/>
        <pt x="338" y="760" on="0"/>
        <pt x="425" y="760" on="0"/>
        <pt x="477" y="712" on="0"/>
        <pt x="477" y="634" on="0"/>
        <pt x="425" y="587" on="0"/>
        <pt x="337" y="587" on="0"/>
        <pt x="288" y="632" on="0"/>
      </contour>
    </TTGlyph>
    <TTGlyph name="braceleft" xMin="31" yMin="-324" xMax="725" yMax="1462">
      <contour>
        <pt x="725" y="1462" on="1"/>
        <pt x="725" y="1237" on="1"/>
        <pt x="629" y="1234" on="0"/>
        <pt x="551" y="1167" on="0"/>
        <pt x="551" y="1096" on="1"/>
        <pt x="551" y="797" on="1"/>
        <pt x="545" y="610" on="0"/>
        <pt x="317" y="575" on="1"/>
        <pt x="317" y="563" on="1"/>
        <pt x="551" y="528" on="0"/>
        <pt x="551" y="351" on="1"/>
        <pt x="551" y="43" on="1"/>
        <pt x="551" y="-26" on="0"/>
        <pt x="625" y="-94" on="0"/>
        <pt x="725" y="-97" on="1"/>
        <pt x="725" y="-324" on="1"/>
        <pt x="482" y="-324" on="0"/>
        <pt x="384" y="-261" on="1"/>
        <pt x="287" y="-200" on="0"/>
        <pt x="287" y="-45" on="1"/>
        <pt x="287" y="270" on="1"/>
        <pt x="287" y="357" on="0"/>
        <pt x="156" y="449" on="0"/>
        <pt x="31" y="449" on="1"/>
        <pt x="31" y="688" on="1"/>
        <pt x="156" y="688" on="0"/>
        <pt x="287" y="776" on="0"/>
        <pt x="287" y="858" on="1"/>
        <pt x="287" y="1184" on="1"/>
        <pt x="287" y="1338" on="0"/>
        <pt x="384" y="1399" on="1"/>
        <pt x="482" y="1462" on="0"/>
      </contour>
    </TTGlyph>
    <TTGlyph name="braceright" xMin="82" yMin="-324" xMax="776" yMax="1462">
      <contour>
        <pt x="82" y="1462" on="1"/>
        <pt x="249" y="1462" on="0"/>
        <pt x="439" y="1409" on="0"/>
        <pt x="520" y="1294" on="0"/>
        <pt x="520" y="1184" on="1"/>
        <pt x="520" y="856" on="1"/>
        <pt x="520" y="771" on="0"/>
        <pt x="644" y="688" on="0"/>
        <pt x="776" y="688" on="1"/>
        <pt x="776" y="449" on="1"/>
        <pt x="647" y="449" on="0"/>
        <pt x="520" y="364" on="0"/>
        <pt x="520" y="270" on="1"/>
        <pt x="520" y="-45" on="1"/>
        <pt x="520" y="-156" on="0"/>
        <pt x="438" y="-271" on="0"/>
        <pt x="249" y="-324" on="0"/>
        <pt x="82" y="-324" on="1"/>
        <pt x="82" y="-97" on="1"/>
        <pt x="179" y="-95" on="0"/>
        <pt x="256" y="-30" on="0"/>
        <pt x="256" y="43" on="1"/>
        <pt x="256" y="353" on="1"/>
        <pt x="256" y="439" on="0"/>
        <pt x="374" y="546" on="0"/>
        <pt x="489" y="563" on="1"/>
        <pt x="489" y="575" on="1"/>
        <pt x="262" y="610" on="0"/>
        <pt x="256" y="797" on="1"/>
        <pt x="256" y="1096" on="1"/>
        <pt x="256" y="1166" on="0"/>
        <pt x="182" y="1234" on="0"/>
        <pt x="82" y="1237" on="1"/>
      </contour>
    </TTGlyph>
    <TTGlyph name="bracketleft" xMin="143" yMin="-324" xMax="627" yMax="1462">
      <contour>
        <pt x="627" y="1251" on="1"/>
        <pt x="403" y="1251" on="1"/>
        <pt x="403" y="-113" on="1"/>
        <pt x="627" y="-113" on="1"/>
        <pt x="627" y="-324" on="1"/>
        <pt x="143" y="-324" on="1"/>
        <pt x="143" y="1462" on="1"/>
        <pt x="627" y="1462" on="1"/>
      </contour>
    </TTGlyph>
    <TTGlyph name="bracketright" xMin="51" yMin="-324" xMax="535" yMax="1462">
      <contour>
        <pt x="535" y="-324" on="1"/>
        <pt x="51" y="-324" on="1"/>
        <pt x="51" y="-113" on="1"/>
        <pt x="274" y="-113" on="1"/>
        <pt x="274" y="1251" on="1"/>
        <pt x="51" y="1251" on="1"/>
        <pt x="51" y="1462" on="1"/>
        <pt x="535" y="1462" on="1"/>
      </contour>
    </TTGlyph>
    <TTGlyph name="breve" xMin="227" yMin="1241" xMax="1014" yMax="1579">
      <contour>
        <pt x="1002" y="1426" on="0"/>
        <pt x="783" y="1241" on="0"/>
        <pt x="443" y="1241" on="0"/>
        <pt x="235" y="1422" on="0"/>
        <pt x="227" y="1579" on="1"/>
        <pt x="397" y="1579" on="1"/>
        <pt x="404" y="1490" on="0"/>
        <pt x="491" y="1466" on="1"/>
        <pt x="533" y="1454" on="0"/>
        <pt x="618" y="1454" on="1"/>
        <pt x="823" y="1454" on="0"/>
        <pt x="840" y="1579" on="1"/>
        <pt x="1014" y="1579" on="1"/>
      </contour>
    </TTGlyph>
    <TTGlyph name="brokenbar" xMin="455" yMin="-465" xMax="674" yMax="1550">
      <contour>
        <pt x="674" y="735" on="1"/>
        <pt x="455" y="735" on="1"/>
        <pt x="455" y="1550" on="1"/>
        <pt x="674" y="1550" on="1"/>
      </contour>
      <contour>
        <pt x="674" y="-465" on="1"/>
        <pt x="455" y="-465" on="1"/>
        <pt x="455" y="350" on="1"/>
        <pt x="674" y="350" on="1"/>
      </contour>
    </TTGlyph>
    <TTGlyph name="bullet" xMin="97" yMin="430" xMax="672" yMax="1065">
      <contour>
        <pt x="97" y="901" on="0"/>
        <pt x="246" y="1065" on="0"/>
        <pt x="523" y="1065" on="0"/>
        <pt x="672" y="901" on="0"/>
        <pt x="672" y="596" on="0"/>
        <pt x="521" y="430" on="0"/>
        <pt x="247" y="430" on="0"/>
        <pt x="97" y="596" on="0"/>
      </contour>
    </TTGlyph>
    <TTGlyph name="c" xMin="92" yMin="-20" xMax="988" yMax="1139">
      <contour>
        <pt x="614" y="-20" on="1"/>
        <pt x="92" y="-20" on="0"/>
        <pt x="92" y="553" on="1"/>
        <pt x="92" y="837" on="0"/>
        <pt x="376" y="1139" on="0"/>
        <pt x="641" y="1139" on="1"/>
        <pt x="836" y="1139" on="0"/>
        <pt x="988" y="1063" on="1"/>
        <pt x="899" y="827" on="1"/>
        <pt x="737" y="893" on="0"/>
        <pt x="641" y="893" on="1"/>
        <pt x="403" y="893" on="0"/>
        <pt x="403" y="227" on="0"/>
        <pt x="641" y="227" on="1"/>
        <pt x="809" y="227" on="0"/>
        <pt x="954" y="324" on="1"/>
        <pt x="954" y="63" on="1"/>
        <pt x="876" y="13" on="0"/>
        <pt x="804" y="-2" on="1"/>
        <pt x="729" y="-20" on="0"/>
      </contour>
    </TTGlyph>
    <TTGlyph name="caron" xMin="186" yMin="1241" xMax="1055" yMax="1569">
      <contour>
        <pt x="1055" y="1569" on="1"/>
        <pt x="1055" y="1542" on="1"/>
        <pt x="972" y="1459" on="0"/>
        <pt x="830" y="1292" on="0"/>
        <pt x="799" y="1241" on="1"/>
        <pt x="442" y="1241" on="1"/>
        <pt x="414" y="1287" on="0"/>
        <pt x="305" y="1418" on="0"/>
        <pt x="186" y="1542" on="1"/>
        <pt x="186" y="1569" on="1"/>
        <pt x="389" y="1569" on="1"/>
        <pt x="533" y="1478" on="0"/>
        <pt x="618" y="1393" on="1"/>
        <pt x="703" y="1481" on="0"/>
        <pt x="852" y="1569" on="1"/>
      </contour>
    </TTGlyph>
    <TTGlyph name="ccedilla" xMin="92" yMin="-492" xMax="989" yMax="1139">
      <contour>
        <pt x="641" y="893" on="1"/>
        <pt x="403" y="893" on="0"/>
        <pt x="403" y="227" on="0"/>
        <pt x="641" y="227" on="1"/>
        <pt x="809" y="227" on="0"/>
        <pt x="954" y="324" on="1"/>
        <pt x="954" y="63" on="1"/>
        <pt x="888" y="21" on="0"/>
        <pt x="755" y="-16" on="0"/>
        <pt x="661" y="-19" on="1"/>
        <pt x="643" y="-61" on="1"/>
        <pt x="718" y="-85" on="0"/>
        <pt x="805" y="-187" on="0"/>
        <pt x="805" y="-250" on="1"/>
        <pt x="805" y="-377" on="0"/>
        <pt x="656" y="-492" on="0"/>
        <pt x="496" y="-492" on="1"/>
        <pt x="418" y="-492" on="0"/>
        <pt x="350" y="-471" on="1"/>
        <pt x="350" y="-303" on="1"/>
        <pt x="434" y="-324" on="0"/>
        <pt x="493" y="-324" on="1"/>
        <pt x="565" y="-324" on="0"/>
        <pt x="565" y="-262" on="1"/>
        <pt x="565" y="-179" on="0"/>
        <pt x="399" y="-154" on="1"/>
        <pt x="473" y="-8" on="1"/>
        <pt x="92" y="64" on="0"/>
        <pt x="92" y="553" on="1"/>
        <pt x="92" y="837" on="0"/>
        <pt x="376" y="1139" on="0"/>
        <pt x="641" y="1139" on="1"/>
        <pt x="836" y="1139" on="0"/>
        <pt x="989" y="1063" on="1"/>
        <pt x="899" y="827" on="1"/>
        <pt x="737" y="893" on="0"/>
      </contour>
    </TTGlyph>
    <TTGlyph name="cedilla" xMin="-37" yMin="-492" xMax="418" yMax="0">
      <contour>
        <pt x="418" y="-250" on="1"/>
        <pt x="418" y="-377" on="0"/>
        <pt x="269" y="-492" on="0"/>
        <pt x="109" y="-492" on="1"/>
        <pt x="30" y="-492" on="0"/>
        <pt x="-37" y="-471" on="1"/>
        <pt x="-37" y="-303" on="1"/>
        <pt x="47" y="-324" on="0"/>
        <pt x="106" y="-324" on="1"/>
        <pt x="178" y="-324" on="0"/>
        <pt x="178" y="-262" on="1"/>
        <pt x="178" y="-179" on="0"/>
        <pt x="12" y="-154" on="1"/>
        <pt x="90" y="0" on="1"/>
        <pt x="283" y="0" on="1"/>
        <pt x="256" y="-61" on="1"/>
        <pt x="331" y="-85" on="0"/>
        <pt x="418" y="-187" on="0"/>
      </contour>
    </TTGlyph>
    <TTGlyph name="cent" xMin="143" yMin="-20" xMax="1040" yMax="1483">
      <contour>
        <pt x="741" y="1483" on="1"/>
        <pt x="741" y="1325" on="1"/>
        <pt x="905" y="1316" on="0"/>
        <pt x="1040" y="1251" on="1"/>
        <pt x="950" y="1016" on="1"/>
        <pt x="790" y="1081" on="0"/>
        <pt x="692" y="1081" on="1"/>
        <pt x="572" y="1081" on="0"/>
        <pt x="455" y="914" on="0"/>
        <pt x="455" y="743" on="1"/>
        <pt x="455" y="416" on="0"/>
        <pt x="692" y="416" on="1"/>
        <pt x="774" y="416" on="0"/>
        <pt x="907" y="448" on="0"/>
        <pt x="1006" y="492" on="1"/>
        <pt x="1006" y="238" on="1"/>
        <pt x="880" y="177" on="0"/>
        <pt x="741" y="168" on="1"/>
        <pt x="741" y="-20" on="1"/>
        <pt x="563" y="-20" on="1"/>
        <pt x="563" y="176" on="1"/>
        <pt x="143" y="234" on="0"/>
        <pt x="143" y="741" on="1"/>
        <pt x="143" y="1001" on="0"/>
        <pt x="352" y="1286" on="0"/>
        <pt x="563" y="1317" on="1"/>
        <pt x="563" y="1483" on="1"/>
      </contour>
    </TTGlyph>
    <TTGlyph name="circumflex" xMin="186" yMin="1241" xMax="1055" yMax="1569">
      <contour>
        <pt x="1055" y="1241" on="1"/>
        <pt x="852" y="1241" on="1"/>
        <pt x="696" y="1333" on="0"/>
        <pt x="618" y="1417" on="1"/>
        <pt x="538" y="1334" on="0"/>
        <pt x="389" y="1241" on="1"/>
        <pt x="186" y="1241" on="1"/>
        <pt x="186" y="1268" on="1"/>
        <pt x="375" y="1456" on="0"/>
        <pt x="442" y="1569" on="1"/>
        <pt x="799" y="1569" on="1"/>
        <pt x="829" y="1518" on="0"/>
        <pt x="982" y="1338" on="0"/>
        <pt x="1055" y="1268" on="1"/>
      </contour>
    </TTGlyph>
    <TTGlyph name="colon" xMin="117" yMin="-27" xMax="467" yMax="1139">
      <contour>
        <pt x="293" y="1139" on="1"/>
        <pt x="376" y="1139" on="0"/>
        <pt x="467" y="1050" on="0"/>
        <pt x="467" y="888" on="0"/>
        <pt x="374" y="799" on="0"/>
        <pt x="209" y="799" on="0"/>
        <pt x="117" y="887" on="0"/>
        <pt x="117" y="968" on="1"/>
        <pt x="117" y="1139" on="0"/>
      </contour>
      <contour>
        <pt x="117" y="227" on="0"/>
        <pt x="207" y="313" on="0"/>
        <pt x="376" y="313" on="0"/>
        <pt x="467" y="225" on="0"/>
        <pt x="467" y="64" on="0"/>
        <pt x="374" y="-27" on="0"/>
        <pt x="209" y="-27" on="0"/>
        <pt x="117" y="62" on="0"/>
      </contour>
    </TTGlyph>
    <TTGlyph name="comma" xMin="63" yMin="-264" xMax="459" yMax="238">
      <contour>
        <pt x="444" y="238" on="1"/>
        <pt x="459" y="215" on="1"/>
        <pt x="406" y="10" on="0"/>
        <pt x="283" y="-264" on="1"/>
        <pt x="63" y="-264" on="1"/>
        <pt x="128" y="5" on="0"/>
        <pt x="164" y="238" on="1"/>
      </contour>
    </TTGlyph>
    <TTGlyph name="copyright" xMin="99" yMin="-20" xMax="1604" yMax="1483">
      <contour>
        <pt x="645" y="-20" on="0"/>
        <pt x="295" y="186" on="0"/>
        <pt x="99" y="533" on="0"/>
        <pt x="99" y="928" on="0"/>
        <pt x="301" y="1282" on="0"/>
        <pt x="651" y="1483" on="0"/>
        <pt x="1052" y="1483" on="0"/>
        <pt x="1403" y="1282" on="0"/>
        <pt x="1604" y="930" on="0"/>
        <pt x="1604" y="533" on="0"/>
        <pt x="1408" y="186" on="0"/>
        <pt x="1059" y="-20" on="0"/>
      </contour>
      <contour>
        <pt x="548" y="202" on="1"/>
        <pt x="691" y="121" on="0"/>
        <pt x="1017" y="121" on="0"/>
        <pt x="1300" y="286" on="0"/>
        <pt x="1462" y="569" on="0"/>
        <pt x="1462" y="896" on="0"/>
        <pt x="1297" y="1179" on="0"/>
        <pt x="1014" y="1341" on="0"/>
        <pt x="688" y="1341" on="0"/>
        <pt x="546" y="1259" on="1"/>
        <pt x="405" y="1176" on="0"/>
        <pt x="323" y="1035" on="1"/>
        <pt x="242" y="892" on="0"/>
        <pt x="242" y="567" on="0"/>
        <pt x="407" y="284" on="0"/>
      </contour>
      <contour>
        <pt x="889" y="262" on="1"/>
        <pt x="686" y="262" on="0"/>
        <pt x="461" y="511" on="0"/>
        <pt x="461" y="951" on="0"/>
        <pt x="571" y="1075" on="1"/>
        <pt x="682" y="1198" on="0"/>
        <pt x="881" y="1198" on="1"/>
        <pt x="1030" y="1198" on="0"/>
        <pt x="1186" y="1120" on="1"/>
        <pt x="1112" y="952" on="1"/>
        <pt x="998" y="1010" on="0"/>
        <pt x="799" y="1010" on="0"/>
        <pt x="692" y="863" on="0"/>
        <pt x="692" y="731" on="1"/>
        <pt x="692" y="451" on="0"/>
        <pt x="895" y="451" on="1"/>
        <pt x="1026" y="451" on="0"/>
        <pt x="1141" y="510" on="1"/>
        <pt x="1141" y="319" on="1"/>
        <pt x="1021" y="262" on="0"/>
      </contour>
    </TTGlyph>
    <TTGlyph name="d" xMin="92" yMin="-20" xMax="1137" yMax="1556">
      <contour>
        <pt x="1137" y="0" on="1"/>
        <pt x="903" y="0" on="1"/>
        <pt x="844" y="145" on="1"/>
        <pt x="831" y="145" on="1"/>
        <pt x="728" y="-20" on="0"/>
        <pt x="514" y="-20" on="1"/>
        <pt x="316" y="-20" on="0"/>
        <pt x="92" y="285" on="0"/>
        <pt x="92" y="832" on="0"/>
        <pt x="321" y="1139" on="0"/>
        <pt x="733" y="1139" on="0"/>
        <pt x="844" y="974" on="1"/>
        <pt x="854" y="974" on="1"/>
        <pt x="831" y="1103" on="0"/>
        <pt x="831" y="1198" on="1"/>
        <pt x="831" y="1556" on="1"/>
        <pt x="1137" y="1556" on="1"/>
      </contour>
      <contour>
        <pt x="852" y="555" on="1"/>
        <pt x="852" y="734" on="0"/>
        <pt x="740" y="891" on="0"/>
        <pt x="616" y="891" on="1"/>
        <pt x="513" y="891" on="0"/>
        <pt x="401" y="717" on="0"/>
        <pt x="401" y="390" on="0"/>
        <pt x="514" y="223" on="0"/>
        <pt x="738" y="223" on="0"/>
        <pt x="848" y="358" on="0"/>
        <pt x="852" y="522" on="1"/>
      </contour>
    </TTGlyph>
    <TTGlyph name="dagger" xMin="123" yMin="0" xMax="934" yMax="1556">
      <contour>
        <pt x="602" y="1139" on="1"/>
        <pt x="934" y="1169" on="1"/>
        <pt x="934" y="928" on="1"/>
        <pt x="602" y="958" on="1"/>
        <pt x="657" y="0" on="1"/>
        <pt x="379" y="0" on="1"/>
        <pt x="434" y="958" on="1"/>
        <pt x="123" y="928" on="1"/>
        <pt x="123" y="1169" on="1"/>
        <pt x="434" y="1139" on="1"/>
        <pt x="379" y="1556" on="1"/>
        <pt x="657" y="1556" on="1"/>
      </contour>
    </TTGlyph>
    <TTGlyph name="daggerdbl" xMin="123" yMin="0" xMax="954" yMax="1556">
      <contour>
        <pt x="623" y="1180" on="1"/>
        <pt x="954" y="1210" on="1"/>
        <pt x="954" y="968" on="1"/>
        <pt x="623" y="998" on="1"/>
        <pt x="670" y="786" on="1"/>
        <pt x="623" y="557" on="1"/>
        <pt x="954" y="588" on="1"/>
        <pt x="954" y="346" on="1"/>
        <pt x="623" y="377" on="1"/>
        <pt x="678" y="0" on="1"/>
        <pt x="399" y="0" on="1"/>
        <pt x="455" y="377" on="1"/>
        <pt x="123" y="346" on="1"/>
        <pt x="123" y="588" on="1"/>
        <pt x="455" y="557" on="1"/>
        <pt x="408" y="786" on="1"/>
        <pt x="455" y="998" on="1"/>
        <pt x="123" y="968" on="1"/>
        <pt x="123" y="1210" on="1"/>
        <pt x="455" y="1180" on="1"/>
        <pt x="399" y="1556" on="1"/>
        <pt x="678" y="1556" on="1"/>
      </contour>
    </TTGlyph>
    <TTGlyph name="daletdageshhb" xMin="43" yMin="0" xMax="1074" yMax="1290">
      <contour>
        <pt x="1074" y="1290" on="1"/>
        <pt x="1074" y="1069" on="1"/>
        <pt x="1032" y="1053" on="0"/>
        <pt x="986" y="1022" on="1"/>
        <pt x="936" y="985" on="0"/>
        <pt x="898" y="883" on="0"/>
        <pt x="898" y="801" on="1"/>
        <pt x="898" y="0" on="1"/>
        <pt x="593" y="0" on="1"/>
        <pt x="593" y="808" on="1"/>
        <pt x="593" y="863" on="0"/>
        <pt x="624" y="953" on="0"/>
        <pt x="646" y="978" on="1"/>
        <pt x="691" y="1030" on="0"/>
        <pt x="728" y="1044" on="1"/>
        <pt x="744" y="1050" on="1"/>
        <pt x="744" y="1057" on="1"/>
        <pt x="43" y="1057" on="1"/>
        <pt x="43" y="1290" on="1"/>
      </contour>
      <contour>
        <pt x="264" y="714" on="0"/>
        <pt x="314" y="760" on="0"/>
        <pt x="401" y="760" on="0"/>
        <pt x="453" y="712" on="0"/>
        <pt x="453" y="634" on="0"/>
        <pt x="401" y="587" on="0"/>
        <pt x="313" y="587" on="0"/>
        <pt x="264" y="632" on="0"/>
      </contour>
    </TTGlyph>
    <TTGlyph name="degree" xMin="92" yMin="793" xMax="784" yMax="1483">
      <contour>
        <pt x="784" y="1130" on="1"/>
        <pt x="784" y="1042" on="0"/>
        <pt x="691" y="884" on="0"/>
        <pt x="534" y="793" on="0"/>
        <pt x="449" y="793" on="1"/>
        <pt x="443" y="793" on="0"/>
        <pt x="438" y="793" on="1"/>
        <pt x="292" y="793" on="0"/>
        <pt x="192" y="892" on="1"/>
        <pt x="92" y="992" on="0"/>
        <pt x="92" y="1137" on="1"/>
        <pt x="92" y="1141" on="0"/>
        <pt x="92" y="1144" on="1"/>
        <pt x="92" y="1230" on="0"/>
        <pt x="184" y="1389" on="0"/>
        <pt x="344" y="1483" on="0"/>
        <pt x="431" y="1483" on="1"/>
        <pt x="434" y="1483" on="0"/>
        <pt x="438" y="1483" on="1"/>
        <pt x="531" y="1483" on="0"/>
        <pt x="691" y="1391" on="0"/>
        <pt x="784" y="1228" on="0"/>
        <pt x="784" y="1137" on="1"/>
        <pt x="784" y="1133" on="0"/>
      </contour>
      <contour>
        <pt x="328" y="1248" on="1"/>
        <pt x="283" y="1202" on="0"/>
        <pt x="283" y="1074" on="0"/>
        <pt x="372" y="982" on="0"/>
        <pt x="505" y="982" on="0"/>
        <pt x="594" y="1076" on="0"/>
        <pt x="594" y="1201" on="0"/>
        <pt x="503" y="1294" on="0"/>
        <pt x="374" y="1294" on="0"/>
      </contour>
    </TTGlyph>
    <TTGlyph name="dieresis" xMin="279" yMin="1272" xMax="965" yMax="1540">
      <contour>
        <pt x="353" y="1540" on="0"/>
        <pt x="483" y="1540" on="0"/>
        <pt x="559" y="1466" on="0"/>
        <pt x="559" y="1345" on="0"/>
        <pt x="483" y="1272" on="0"/>
        <pt x="354" y="1272" on="0"/>
        <pt x="279" y="1342" on="0"/>
        <pt x="279" y="1469" on="0"/>
      </contour>
      <contour>
        <pt x="682" y="1472" on="0"/>
        <pt x="760" y="1540" on="0"/>
        <pt x="888" y="1540" on="0"/>
        <pt x="965" y="1468" on="0"/>
        <pt x="965" y="1344" on="0"/>
        <pt x="887" y="1272" on="0"/>
        <pt x="760" y="1272" on="0"/>
        <pt x="682" y="1339" on="0"/>
      </contour>
    </TTGlyph>
    <TTGlyph name="divide" xMin="88" yMin="221" xMax="1081" yMax="1223">
      <contour>
        <pt x="444" y="1145" on="0"/>
        <pt x="517" y="1223" on="0"/>
        <pt x="650" y="1223" on="0"/>
        <pt x="723" y="1143" on="0"/>
        <pt x="723" y="1000" on="0"/>
        <pt x="649" y="920" on="0"/>
        <pt x="518" y="920" on="0"/>
        <pt x="444" y="998" on="0"/>
      </contour>
      <contour>
        <pt x="1081" y="612" on="1"/>
        <pt x="88" y="612" on="1"/>
        <pt x="88" y="831" on="1"/>
        <pt x="1081" y="831" on="1"/>
      </contour>
      <contour>
        <pt x="444" y="448" on="0"/>
        <pt x="517" y="524" on="0"/>
        <pt x="650" y="524" on="0"/>
        <pt x="723" y="445" on="0"/>
        <pt x="723" y="303" on="0"/>
        <pt x="649" y="221" on="0"/>
        <pt x="518" y="221" on="0"/>
        <pt x="444" y="300" on="0"/>
      </contour>
    </TTGlyph>
    <TTGlyph name="dollar" xMin="88" yMin="-119" xMax="1092" yMax="1554">
      <contour>
        <pt x="655" y="1554" on="1"/>
        <pt x="655" y="1405" on="1"/>
        <pt x="887" y="1394" on="0"/>
        <pt x="1069" y="1313" on="1"/>
        <pt x="974" y="1079" on="1"/>
        <pt x="820" y="1143" on="0"/>
        <pt x="655" y="1157" on="1"/>
        <pt x="655" y="862" on="1"/>
        <pt x="851" y="787" on="0"/>
        <pt x="1015" y="677" on="0"/>
        <pt x="1092" y="545" on="0"/>
        <pt x="1092" y="457" on="1"/>
        <pt x="1092" y="298" on="0"/>
        <pt x="861" y="104" on="0"/>
        <pt x="655" y="86" on="1"/>
        <pt x="655" y="-119" on="1"/>
        <pt x="518" y="-119" on="1"/>
        <pt x="518" y="82" on="1"/>
        <pt x="276" y="86" on="0"/>
        <pt x="90" y="168" on="1"/>
        <pt x="90" y="432" on="1"/>
        <pt x="174" y="390" on="0"/>
        <pt x="422" y="323" on="0"/>
        <pt x="518" y="317" on="1"/>
        <pt x="518" y="627" on="1"/>
        <pt x="451" y="653" on="1"/>
        <pt x="252" y="732" on="0"/>
        <pt x="88" y="913" on="0"/>
        <pt x="88" y="1194" on="0"/>
        <pt x="315" y="1381" on="0"/>
        <pt x="518" y="1401" on="1"/>
        <pt x="518" y="1554" on="1"/>
      </contour>
      <contour>
        <pt x="389" y="1049" on="1"/>
        <pt x="389" y="1005" on="0"/>
        <pt x="447" y="949" on="0"/>
        <pt x="518" y="918" on="1"/>
        <pt x="518" y="1153" on="1"/>
        <pt x="389" y="1134" on="0"/>
      </contour>
      <contour>
        <pt x="791" y="442" on="1"/>
        <pt x="791" y="482" on="0"/>
        <pt x="727" y="541" on="0"/>
        <pt x="655" y="573" on="1"/>
        <pt x="655" y="324" on="1"/>
        <pt x="791" y="346" on="0"/>
      </contour>
    </TTGlyph>
    <TTGlyph name="dotaccent" xMin="147" yMin="1257" xMax="479" yMax="1556">
      <contour>
        <pt x="147" y="1556" on="0"/>
        <pt x="479" y="1556" on="0"/>
        <pt x="479" y="1407" on="1"/>
        <pt x="479" y="1335" on="0"/>
        <pt x="395" y="1257" on="0"/>
        <pt x="313" y="1257" on="1"/>
        <pt x="147" y="1257" on="0"/>
      </contour>
    </TTGlyph>
    <TTGlyph name="dotlessi" xMin="160" yMin="0" xMax="465" yMax="1118">
      <contour>
        <pt x="465" y="0" on="1"/>
        <pt x="160" y="0" on="1"/>
        <pt x="160" y="1118" on="1"/>
        <pt x="465" y="1118" on="1"/>
      </contour>
    </TTGlyph>
    <TTGlyph name="e" xMin="92" yMin="-20" xMax="1122" yMax="1139">
      <contour>
        <pt x="1059" y="59" on="1"/>
        <pt x="905" y="-20" on="0"/>
        <pt x="666" y="-20" on="1"/>
        <pt x="396" y="-20" on="0"/>
        <pt x="92" y="278" on="0"/>
        <pt x="92" y="832" on="0"/>
        <pt x="232" y="984" on="1"/>
        <pt x="372" y="1139" on="0"/>
        <pt x="858" y="1139" on="0"/>
        <pt x="989" y="1004" on="1"/>
        <pt x="1122" y="870" on="0"/>
        <pt x="1122" y="631" on="1"/>
        <pt x="1122" y="483" on="1"/>
        <pt x="401" y="483" on="1"/>
        <pt x="406" y="352" on="0"/>
        <pt x="551" y="207" on="0"/>
        <pt x="680" y="207" on="1"/>
        <pt x="870" y="207" on="0"/>
        <pt x="1059" y="295" on="1"/>
      </contour>
      <contour>
        <pt x="834" y="798" on="0"/>
        <pt x="721" y="922" on="0"/>
        <pt x="527" y="922" on="0"/>
        <pt x="416" y="800" on="0"/>
        <pt x="408" y="686" on="1"/>
        <pt x="836" y="686" on="1"/>
      </contour>
    </TTGlyph>
    <TTGlyph name="eacute" xMin="92" yMin="-20" xMax="1122" yMax="1569">
      <contour>
        <pt x="1024" y="1569" on="1"/>
        <pt x="1024" y="1548" on="1"/>
        <pt x="973" y="1497" on="0"/>
        <pt x="723" y="1293" on="0"/>
        <pt x="650" y="1241" on="1"/>
        <pt x="447" y="1241" on="1"/>
        <pt x="447" y="1268" on="1"/>
        <pt x="615" y="1463" on="0"/>
        <pt x="682" y="1569" on="1"/>
      </contour>
      <contour>
        <pt x="666" y="-20" on="1"/>
        <pt x="395" y="-20" on="0"/>
        <pt x="92" y="279" on="0"/>
        <pt x="92" y="831" on="0"/>
        <pt x="372" y="1139" on="0"/>
        <pt x="857" y="1139" on="0"/>
        <pt x="1122" y="869" on="0"/>
        <pt x="1122" y="631" on="1"/>
        <pt x="1122" y="483" on="1"/>
        <pt x="401" y="483" on="1"/>
        <pt x="406" y="352" on="0"/>
        <pt x="551" y="207" on="0"/>
        <pt x="680" y="207" on="1"/>
        <pt x="870" y="207" on="0"/>
        <pt x="1059" y="295" on="1"/>
        <pt x="1059" y="59" on="1"/>
        <pt x="976" y="18" on="0"/>
        <pt x="794" y="-20" on="0"/>
      </contour>
      <contour>
        <pt x="834" y="798" on="0"/>
        <pt x="721" y="922" on="0"/>
        <pt x="527" y="922" on="0"/>
        <pt x="416" y="800" on="0"/>
        <pt x="408" y="686" on="1"/>
        <pt x="836" y="686" on="1"/>
      </contour>
    </TTGlyph>
    <TTGlyph name="ecircumflex" xMin="92" yMin="-20" xMax="1122" yMax="1569">
      <contour>
        <pt x="1063" y="1241" on="1"/>
        <pt x="860" y="1241" on="1"/>
        <pt x="704" y="1333" on="0"/>
        <pt x="626" y="1417" on="1"/>
        <pt x="546" y="1334" on="0"/>
        <pt x="397" y="1241" on="1"/>
        <pt x="194" y="1241" on="1"/>
        <pt x="194" y="1268" on="1"/>
        <pt x="382" y="1456" on="0"/>
        <pt x="450" y="1569" on="1"/>
        <pt x="807" y="1569" on="1"/>
        <pt x="837" y="1518" on="0"/>
        <pt x="990" y="1338" on="0"/>
        <pt x="1063" y="1268" on="1"/>
      </contour>
      <contour>
        <pt x="666" y="-20" on="1"/>
        <pt x="395" y="-20" on="0"/>
        <pt x="92" y="279" on="0"/>
        <pt x="92" y="831" on="0"/>
        <pt x="372" y="1139" on="0"/>
        <pt x="857" y="1139" on="0"/>
        <pt x="1122" y="869" on="0"/>
        <pt x="1122" y="631" on="1"/>
        <pt x="1122" y="483" on="1"/>
        <pt x="401" y="483" on="1"/>
        <pt x="406" y="352" on="0"/>
        <pt x="551" y="207" on="0"/>
        <pt x="680" y="207" on="1"/>
        <pt x="870" y="207" on="0"/>
        <pt x="1059" y="295" on="1"/>
        <pt x="1059" y="59" on="1"/>
        <pt x="976" y="18" on="0"/>
        <pt x="794" y="-20" on="0"/>
      </contour>
      <contour>
        <pt x="834" y="798" on="0"/>
        <pt x="721" y="922" on="0"/>
        <pt x="527" y="922" on="0"/>
        <pt x="416" y="800" on="0"/>
        <pt x="408" y="686" on="1"/>
        <pt x="836" y="686" on="1"/>
      </contour>
    </TTGlyph>
    <TTGlyph name="edieresis" xMin="92" yMin="-20" xMax="1122" yMax="1540">
      <contour>
        <pt x="371" y="1540" on="0"/>
        <pt x="501" y="1540" on="0"/>
        <pt x="577" y="1466" on="0"/>
        <pt x="577" y="1345" on="0"/>
        <pt x="501" y="1272" on="0"/>
        <pt x="372" y="1272" on="0"/>
        <pt x="297" y="1342" on="0"/>
        <pt x="297" y="1469" on="0"/>
      </contour>
      <contour>
        <pt x="700" y="1472" on="0"/>
        <pt x="778" y="1540" on="0"/>
        <pt x="906" y="1540" on="0"/>
        <pt x="983" y="1468" on="0"/>
        <pt x="983" y="1344" on="0"/>
        <pt x="905" y="1272" on="0"/>
        <pt x="778" y="1272" on="0"/>
        <pt x="700" y="1339" on="0"/>
      </contour>
      <contour>
        <pt x="666" y="-20" on="1"/>
        <pt x="395" y="-20" on="0"/>
        <pt x="92" y="279" on="0"/>
        <pt x="92" y="831" on="0"/>
        <pt x="372" y="1139" on="0"/>
        <pt x="857" y="1139" on="0"/>
        <pt x="1122" y="869" on="0"/>
        <pt x="1122" y="631" on="1"/>
        <pt x="1122" y="483" on="1"/>
        <pt x="401" y="483" on="1"/>
        <pt x="406" y="352" on="0"/>
        <pt x="551" y="207" on="0"/>
        <pt x="680" y="207" on="1"/>
        <pt x="870" y="207" on="0"/>
        <pt x="1059" y="295" on="1"/>
        <pt x="1059" y="59" on="1"/>
        <pt x="976" y="18" on="0"/>
        <pt x="794" y="-20" on="0"/>
      </contour>
      <contour>
        <pt x="834" y="798" on="0"/>
        <pt x="721" y="922" on="0"/>
        <pt x="527" y="922" on="0"/>
        <pt x="416" y="800" on="0"/>
        <pt x="408" y="686" on="1"/>
        <pt x="836" y="686" on="1"/>
      </contour>
    </TTGlyph>
    <TTGlyph name="egrave" xMin="92" yMin="-20" xMax="1122" yMax="1569">
      <contour>
        <pt x="245" y="1569" on="1"/>
        <pt x="587" y="1569" on="1"/>
        <pt x="654" y="1463" on="0"/>
        <pt x="822" y="1268" on="1"/>
        <pt x="822" y="1241" on="1"/>
        <pt x="620" y="1241" on="1"/>
        <pt x="551" y="1289" on="0"/>
        <pt x="309" y="1486" on="0"/>
        <pt x="245" y="1548" on="1"/>
      </contour>
      <contour>
        <pt x="666" y="-20" on="1"/>
        <pt x="395" y="-20" on="0"/>
        <pt x="92" y="279" on="0"/>
        <pt x="92" y="831" on="0"/>
        <pt x="372" y="1139" on="0"/>
        <pt x="857" y="1139" on="0"/>
        <pt x="1122" y="869" on="0"/>
        <pt x="1122" y="631" on="1"/>
        <pt x="1122" y="483" on="1"/>
        <pt x="401" y="483" on="1"/>
        <pt x="406" y="352" on="0"/>
        <pt x="551" y="207" on="0"/>
        <pt x="680" y="207" on="1"/>
        <pt x="870" y="207" on="0"/>
        <pt x="1059" y="295" on="1"/>
        <pt x="1059" y="59" on="1"/>
        <pt x="976" y="18" on="0"/>
        <pt x="794" y="-20" on="0"/>
      </contour>
      <contour>
        <pt x="834" y="798" on="0"/>
        <pt x="721" y="922" on="0"/>
        <pt x="527" y="922" on="0"/>
        <pt x="416" y="800" on="0"/>
        <pt x="408" y="686" on="1"/>
        <pt x="836" y="686" on="1"/>
      </contour>
    </TTGlyph>
    <TTGlyph name="eight" xMin="72" yMin="-20" xMax="1098" yMax="1481">
      <contour>
        <pt x="117" y="1287" on="0"/>
        <pt x="377" y="1481" on="0"/>
        <pt x="796" y="1481" on="0"/>
        <pt x="1053" y="1290" on="0"/>
        <pt x="1053" y="1128" on="1"/>
        <pt x="1053" y="1014" on="0"/>
        <pt x="927" y="840" on="0"/>
        <pt x="791" y="772" on="1"/>
        <pt x="952" y="686" on="0"/>
        <pt x="1098" y="495" on="0"/>
        <pt x="1098" y="379" on="1"/>
        <pt x="1098" y="198" on="0"/>
        <pt x="817" y="-20" on="0"/>
        <pt x="346" y="-20" on="0"/>
        <pt x="72" y="184" on="0"/>
        <pt x="72" y="371" on="1"/>
        <pt x="72" y="498" on="0"/>
        <pt x="207" y="691" on="0"/>
        <pt x="352" y="764" on="1"/>
        <pt x="229" y="841" on="0"/>
        <pt x="117" y="1020" on="0"/>
        <pt x="117" y="1130" on="1"/>
      </contour>
      <contour>
        <pt x="663" y="1255" on="0"/>
        <pt x="505" y="1255" on="0"/>
        <pt x="408" y="1174" on="0"/>
        <pt x="408" y="1047" on="0"/>
        <pt x="446" y="997" on="1"/>
        <pt x="487" y="950" on="0"/>
        <pt x="586" y="901" on="1"/>
        <pt x="682" y="946" on="0"/>
        <pt x="762" y="1041" on="0"/>
        <pt x="762" y="1174" on="0"/>
      </contour>
      <contour>
        <pt x="358" y="389" on="1"/>
        <pt x="358" y="303" on="0"/>
        <pt x="477" y="207" on="0"/>
        <pt x="694" y="207" on="0"/>
        <pt x="811" y="304" on="0"/>
        <pt x="811" y="387" on="1"/>
        <pt x="811" y="454" on="0"/>
        <pt x="698" y="571" on="0"/>
        <pt x="571" y="637" on="1"/>
        <pt x="358" y="540" on="0"/>
      </contour>
    </TTGlyph>
    <TTGlyph name="ellipsis" xMin="117" yMin="-27" xMax="1634" yMax="313">
      <contour>
        <pt x="117" y="227" on="0"/>
        <pt x="207" y="313" on="0"/>
        <pt x="376" y="313" on="0"/>
        <pt x="467" y="225" on="0"/>
        <pt x="467" y="64" on="0"/>
        <pt x="374" y="-27" on="0"/>
        <pt x="209" y="-27" on="0"/>
        <pt x="117" y="62" on="0"/>
      </contour>
      <contour>
        <pt x="877" y="313" on="1"/>
        <pt x="960" y="313" on="0"/>
        <pt x="1051" y="224" on="0"/>
        <pt x="1051" y="64" on="0"/>
        <pt x="958" y="-27" on="0"/>
        <pt x="792" y="-27" on="0"/>
        <pt x="700" y="62" on="0"/>
        <pt x="700" y="143" on="1"/>
        <pt x="700" y="313" on="0"/>
      </contour>
      <contour>
        <pt x="1284" y="227" on="0"/>
        <pt x="1374" y="313" on="0"/>
        <pt x="1543" y="313" on="0"/>
        <pt x="1634" y="225" on="0"/>
        <pt x="1634" y="64" on="0"/>
        <pt x="1541" y="-27" on="0"/>
        <pt x="1376" y="-27" on="0"/>
        <pt x="1284" y="62" on="0"/>
      </contour>
    </TTGlyph>
    <TTGlyph name="emdash" xMin="82" yMin="436" xMax="1966" yMax="666">
      <contour>
        <pt x="1966" y="436" on="1"/>
        <pt x="82" y="436" on="1"/>
        <pt x="82" y="666" on="1"/>
        <pt x="1966" y="666" on="1"/>
      </contour>
    </TTGlyph>
    <TTGlyph name="endash" xMin="82" yMin="436" xMax="942" yMax="666">
      <contour>
        <pt x="942" y="436" on="1"/>
        <pt x="82" y="436" on="1"/>
        <pt x="82" y="666" on="1"/>
        <pt x="942" y="666" on="1"/>
      </contour>
    </TTGlyph>
    <TTGlyph name="equal" xMin="88" yMin="418" xMax="1081" yMax="1024">
      <contour>
        <pt x="1081" y="805" on="1"/>
        <pt x="88" y="805" on="1"/>
        <pt x="88" y="1024" on="1"/>
        <pt x="1081" y="1024" on="1"/>
      </contour>
      <contour>
        <pt x="1081" y="418" on="1"/>
        <pt x="88" y="418" on="1"/>
        <pt x="88" y="637" on="1"/>
        <pt x="1081" y="637" on="1"/>
      </contour>
    </TTGlyph>
    <TTGlyph name="eth" xMin="92" yMin="-20" xMax="1176" yMax="1571">
      <contour>
        <pt x="1176" y="573" on="1"/>
        <pt x="1176" y="294" on="0"/>
        <pt x="887" y="-20" on="0"/>
        <pt x="385" y="-20" on="0"/>
        <pt x="92" y="255" on="0"/>
        <pt x="92" y="722" on="0"/>
        <pt x="352" y="995" on="0"/>
        <pt x="777" y="995" on="0"/>
        <pt x="848" y="897" on="1"/>
        <pt x="856" y="901" on="1"/>
        <pt x="788" y="1064" on="0"/>
        <pt x="664" y="1182" on="1"/>
        <pt x="434" y="1040" on="1"/>
        <pt x="334" y="1196" on="1"/>
        <pt x="510" y="1303" on="1"/>
        <pt x="429" y="1357" on="0"/>
        <pt x="358" y="1395" on="1"/>
        <pt x="459" y="1571" on="1"/>
        <pt x="603" y="1506" on="0"/>
        <pt x="717" y="1430" on="1"/>
        <pt x="942" y="1569" on="1"/>
        <pt x="1042" y="1415" on="1"/>
        <pt x="872" y="1311" on="1"/>
        <pt x="1027" y="1168" on="0"/>
        <pt x="1176" y="806" on="0"/>
      </contour>
      <contour>
        <pt x="864" y="641" on="0"/>
        <pt x="741" y="770" on="0"/>
        <pt x="514" y="770" on="0"/>
        <pt x="403" y="634" on="0"/>
        <pt x="403" y="348" on="0"/>
        <pt x="522" y="205" on="0"/>
        <pt x="756" y="205" on="0"/>
        <pt x="864" y="366" on="0"/>
        <pt x="864" y="532" on="1"/>
      </contour>
    </TTGlyph>
    <TTGlyph name="exclam" xMin="117" yMin="-27" xMax="467" yMax="1462">
      <contour>
        <pt x="416" y="485" on="1"/>
        <pt x="172" y="485" on="1"/>
        <pt x="121" y="1462" on="1"/>
        <pt x="467" y="1462" on="1"/>
      </contour>
      <contour>
        <pt x="117" y="227" on="0"/>
        <pt x="207" y="313" on="0"/>
        <pt x="376" y="313" on="0"/>
        <pt x="467" y="225" on="0"/>
        <pt x="467" y="64" on="0"/>
        <pt x="374" y="-27" on="0"/>
        <pt x="209" y="-27" on="0"/>
        <pt x="117" y="62" on="0"/>
      </contour>
    </TTGlyph>
    <TTGlyph name="exclamdown" xMin="117" yMin="-369" xMax="467" yMax="1118">
      <contour>
        <pt x="117" y="1029" on="0"/>
        <pt x="210" y="1118" on="0"/>
        <pt x="375" y="1118" on="0"/>
        <pt x="467" y="1030" on="0"/>
        <pt x="467" y="864" on="0"/>
        <pt x="377" y="778" on="0"/>
        <pt x="208" y="778" on="0"/>
        <pt x="117" y="866" on="0"/>
      </contour>
      <contour>
        <pt x="463" y="-369" on="1"/>
        <pt x="117" y="-369" on="1"/>
        <pt x="168" y="606" on="1"/>
        <pt x="412" y="606" on="1"/>
      </contour>
    </TTGlyph>
    <TTGlyph name="f" xMin="41" yMin="0" xMax="885" yMax="1567">
      <contour>
        <pt x="209" y="1200" on="1"/>
        <pt x="209" y="1392" on="0"/>
        <pt x="397" y="1567" on="0"/>
        <pt x="604" y="1567" on="1"/>
        <pt x="761" y="1567" on="0"/>
        <pt x="885" y="1520" on="1"/>
        <pt x="807" y="1296" on="1"/>
        <pt x="714" y="1325" on="0"/>
        <pt x="574" y="1325" on="0"/>
        <pt x="514" y="1251" on="0"/>
        <pt x="514" y="1188" on="1"/>
        <pt x="514" y="1118" on="1"/>
        <pt x="778" y="1118" on="1"/>
        <pt x="778" y="889" on="1"/>
        <pt x="514" y="889" on="1"/>
        <pt x="514" y="0" on="1"/>
        <pt x="209" y="0" on="1"/>
        <pt x="209" y="889" on="1"/>
        <pt x="41" y="889" on="1"/>
        <pt x="41" y="1036" on="1"/>
        <pt x="209" y="1118" on="1"/>
      </contour>
    </TTGlyph>
    <TTGlyph name="finalkafdageshhb" xMin="43" yMin="-492" xMax="939" yMax="1310">
      <contour>
        <pt x="418" y="1310" on="1"/>
        <pt x="536" y="1310" on="0"/>
        <pt x="720" y="1242" on="0"/>
        <pt x="835" y="1130" on="0"/>
        <pt x="872" y="1052" on="1"/>
        <pt x="939" y="911" on="0"/>
        <pt x="939" y="719" on="1"/>
        <pt x="939" y="-492" on="1"/>
        <pt x="633" y="-492" on="1"/>
        <pt x="633" y="750" on="1"/>
        <pt x="633" y="985" on="0"/>
        <pt x="504" y="1050" on="1"/>
        <pt x="452" y="1075" on="0"/>
        <pt x="379" y="1075" on="1"/>
        <pt x="252" y="1075" on="0"/>
        <pt x="43" y="1053" on="1"/>
        <pt x="43" y="1288" on="1"/>
        <pt x="221" y="1310" on="0"/>
      </contour>
      <contour>
        <pt x="221" y="714" on="0"/>
        <pt x="271" y="760" on="0"/>
        <pt x="358" y="760" on="0"/>
        <pt x="410" y="712" on="0"/>
        <pt x="410" y="634" on="0"/>
        <pt x="358" y="587" on="0"/>
        <pt x="270" y="587" on="0"/>
        <pt x="221" y="632" on="0"/>
      </contour>
    </TTGlyph>
    <TTGlyph name="finalpedageshhb" xMin="70" yMin="-492" xMax="1155" yMax="1312">
      <contour>
        <pt x="70" y="853" on="1"/>
        <pt x="70" y="956" on="0"/>
        <pt x="137" y="1118" on="0"/>
        <pt x="244" y="1219" on="0"/>
        <pt x="316" y="1252" on="1"/>
        <pt x="445" y="1312" on="0"/>
        <pt x="613" y="1312" on="1"/>
        <pt x="803" y="1312" on="0"/>
        <pt x="930" y="1225" on="1"/>
        <pt x="976" y="1193" on="0"/>
        <pt x="1061" y="1089" on="0"/>
        <pt x="1090" y="1021" on="1"/>
        <pt x="1155" y="872" on="0"/>
        <pt x="1155" y="646" on="1"/>
        <pt x="1155" y="-492" on="1"/>
        <pt x="844" y="-492" on="1"/>
        <pt x="844" y="646" on="1"/>
        <pt x="844" y="820" on="0"/>
        <pt x="823" y="895" on="1"/>
        <pt x="798" y="982" on="0"/>
        <pt x="756" y="1018" on="1"/>
        <pt x="699" y="1067" on="0"/>
        <pt x="613" y="1067" on="1"/>
        <pt x="550" y="1067" on="0"/>
        <pt x="457" y="1030" on="0"/>
        <pt x="412" y="982" on="0"/>
        <pt x="398" y="950" on="1"/>
        <pt x="380" y="905" on="0"/>
        <pt x="380" y="814" on="0"/>
        <pt x="419" y="734" on="0"/>
        <pt x="448" y="712" on="1"/>
        <pt x="503" y="670" on="0"/>
        <pt x="549" y="661" on="1"/>
        <pt x="587" y="654" on="1"/>
        <pt x="536" y="426" on="1"/>
        <pt x="483" y="433" on="1"/>
        <pt x="344" y="451" on="0"/>
        <pt x="273" y="484" on="1"/>
        <pt x="70" y="577" on="0"/>
      </contour>
      <contour>
        <pt x="519" y="914" on="0"/>
        <pt x="569" y="960" on="0"/>
        <pt x="656" y="960" on="0"/>
        <pt x="708" y="912" on="0"/>
        <pt x="708" y="834" on="0"/>
        <pt x="656" y="787" on="0"/>
        <pt x="568" y="787" on="0"/>
        <pt x="519" y="832" on="0"/>
      </contour>
    </TTGlyph>
    <TTGlyph name="five" xMin="99" yMin="-20" xMax="1077" yMax="1462">
      <contour>
        <pt x="976" y="1200" on="1"/>
        <pt x="455" y="1200" on="1"/>
        <pt x="428" y="913" on="1"/>
        <pt x="463" y="920" on="1"/>
        <pt x="527" y="934" on="0"/>
        <pt x="614" y="934" on="1"/>
        <pt x="826" y="934" on="0"/>
        <pt x="1077" y="696" on="0"/>
        <pt x="1077" y="489" on="1"/>
        <pt x="1077" y="244" on="0"/>
        <pt x="774" y="-20" on="0"/>
        <pt x="494" y="-20" on="1"/>
        <pt x="250" y="-20" on="0"/>
        <pt x="99" y="59" on="1"/>
        <pt x="99" y="326" on="1"/>
        <pt x="181" y="283" on="0"/>
        <pt x="391" y="231" on="0"/>
        <pt x="483" y="231" on="1"/>
        <pt x="766" y="231" on="0"/>
        <pt x="766" y="463" on="1"/>
        <pt x="766" y="684" on="0"/>
        <pt x="473" y="684" on="1"/>
        <pt x="424" y="684" on="0"/>
        <pt x="290" y="662" on="0"/>
        <pt x="252" y="651" on="1"/>
        <pt x="129" y="717" on="1"/>
        <pt x="184" y="1462" on="1"/>
        <pt x="976" y="1462" on="1"/>
      </contour>
    </TTGlyph>
    <TTGlyph name="florin" xMin="197" yMin="-492" xMax="1071" yMax="1483">
      <contour>
        <pt x="440" y="1116" on="1"/>
        <pt x="440" y="1306" on="0"/>
        <pt x="616" y="1483" on="0"/>
        <pt x="809" y="1483" on="1"/>
        <pt x="956" y="1483" on="0"/>
        <pt x="1071" y="1436" on="1"/>
        <pt x="998" y="1212" on="1"/>
        <pt x="916" y="1241" on="0"/>
        <pt x="854" y="1241" on="1"/>
        <pt x="745" y="1241" on="0"/>
        <pt x="745" y="1104" on="1"/>
        <pt x="745" y="1034" on="1"/>
        <pt x="972" y="1034" on="1"/>
        <pt x="972" y="805" on="1"/>
        <pt x="745" y="805" on="1"/>
        <pt x="745" y="-121" on="1"/>
        <pt x="745" y="-299" on="0"/>
        <pt x="557" y="-492" on="0"/>
        <pt x="381" y="-492" on="1"/>
        <pt x="272" y="-492" on="0"/>
        <pt x="197" y="-467" on="1"/>
        <pt x="197" y="-227" on="1"/>
        <pt x="254" y="-246" on="0"/>
        <pt x="315" y="-246" on="1"/>
        <pt x="440" y="-246" on="0"/>
        <pt x="440" y="-76" on="1"/>
        <pt x="440" y="805" on="1"/>
        <pt x="272" y="805" on="1"/>
        <pt x="272" y="952" on="1"/>
        <pt x="440" y="1034" on="1"/>
      </contour>
    </TTGlyph>
    <TTGlyph name="four" xMin="35" yMin="0" xMax="1137" yMax="1462">
      <contour>
        <pt x="961" y="543" on="1"/>
        <pt x="1137" y="543" on="1"/>
        <pt x="1137" y="303" on="1"/>
        <pt x="961" y="303" on="1"/>
        <pt x="961" y="0" on="1"/>
        <pt x="659" y="0" on="1"/>
        <pt x="659" y="303" on="1"/>
        <pt x="35" y="303" on="1"/>
        <pt x="35" y="518" on="1"/>
        <pt x="676" y="1462" on="1"/>
        <pt x="961" y="1462" on="1"/>
      </contour>
      <contour>
        <pt x="659" y="543" on="1"/>
        <pt x="659" y="791" on="1"/>
        <pt x="659" y="840" on="0"/>
        <pt x="668" y="1084" on="0"/>
        <pt x="672" y="1108" on="1"/>
        <pt x="664" y="1108" on="1"/>
        <pt x="623" y="1018" on="0"/>
        <pt x="575" y="948" on="1"/>
        <pt x="307" y="543" on="1"/>
      </contour>
    </TTGlyph>
    <TTGlyph name="g" xMin="6" yMin="-492" xMax="1133" yMax="1139">
      <contour>
        <pt x="553" y="231" on="1"/>
        <pt x="743" y="231" on="1"/>
        <pt x="927" y="231" on="0"/>
        <pt x="1120" y="72" on="0"/>
        <pt x="1120" y="-80" on="1"/>
        <pt x="1120" y="-276" on="0"/>
        <pt x="793" y="-492" on="0"/>
        <pt x="487" y="-492" on="1"/>
        <pt x="254" y="-492" on="0"/>
        <pt x="6" y="-330" on="0"/>
        <pt x="6" y="-182" on="1"/>
        <pt x="6" y="-81" on="0"/>
        <pt x="132" y="55" on="0"/>
        <pt x="254" y="84" on="1"/>
        <pt x="208" y="102" on="0"/>
        <pt x="172" y="149" on="1"/>
        <pt x="137" y="196" on="0"/>
        <pt x="137" y="307" on="0"/>
        <pt x="206" y="392" on="0"/>
        <pt x="281" y="436" on="1"/>
        <pt x="192" y="475" on="0"/>
        <pt x="90" y="643" on="0"/>
        <pt x="90" y="756" on="1"/>
        <pt x="90" y="939" on="0"/>
        <pt x="328" y="1139" on="0"/>
        <pt x="549" y="1139" on="1"/>
        <pt x="596" y="1139" on="0"/>
        <pt x="725" y="1122" on="0"/>
        <pt x="743" y="1118" on="1"/>
        <pt x="1133" y="1118" on="1"/>
        <pt x="1133" y="963" on="1"/>
        <pt x="958" y="918" on="1"/>
        <pt x="1006" y="841" on="0"/>
        <pt x="1006" y="750" on="1"/>
        <pt x="1006" y="570" on="0"/>
        <pt x="756" y="369" on="0"/>
        <pt x="532" y="369" on="1"/>
        <pt x="477" y="372" on="1"/>
        <pt x="432" y="377" on="1"/>
        <pt x="385" y="341" on="0"/>
        <pt x="385" y="297" on="1"/>
        <pt x="385" y="231" on="0"/>
      </contour>
      <contour>
        <pt x="549" y="954" on="1"/>
        <pt x="381" y="954" on="0"/>
        <pt x="381" y="752" on="1"/>
        <pt x="381" y="659" on="0"/>
        <pt x="466" y="555" on="0"/>
        <pt x="633" y="555" on="0"/>
        <pt x="715" y="658" on="0"/>
        <pt x="715" y="752" on="1"/>
        <pt x="715" y="954" on="0"/>
      </contour>
      <contour>
        <pt x="625" y="-14" on="1"/>
        <pt x="467" y="-14" on="1"/>
        <pt x="383" y="-14" on="0"/>
        <pt x="326" y="-53" on="1"/>
        <pt x="270" y="-94" on="0"/>
        <pt x="270" y="-221" on="0"/>
        <pt x="392" y="-293" on="0"/>
        <pt x="500" y="-293" on="1"/>
        <pt x="664" y="-293" on="0"/>
        <pt x="850" y="-203" on="0"/>
        <pt x="850" y="-125" on="1"/>
        <pt x="850" y="-64" on="0"/>
        <pt x="743" y="-14" on="0"/>
      </contour>
    </TTGlyph>
    <TTGlyph name="gereshhb" xMin="25" yMin="789" xMax="420" yMax="1290">
      <contour>
        <pt x="406" y="1290" on="1"/>
        <pt x="420" y="1268" on="1"/>
        <pt x="370" y="1069" on="0"/>
        <pt x="244" y="789" on="1"/>
        <pt x="25" y="789" on="1"/>
        <pt x="92" y="1074" on="0"/>
        <pt x="125" y="1290" on="1"/>
      </contour>
    </TTGlyph>
    <TTGlyph name="germandbls" xMin="160" yMin="-20" xMax="1384" yMax="1567">
      <contour>
        <pt x="160" y="0" on="1"/>
        <pt x="160" y="1139" on="1"/>
        <pt x="160" y="1340" on="0"/>
        <pt x="453" y="1567" on="0"/>
        <pt x="955" y="1567" on="0"/>
        <pt x="1249" y="1390" on="0"/>
        <pt x="1249" y="1241" on="1"/>
        <pt x="1249" y="1130" on="0"/>
        <pt x="1175" y="1042" on="1"/>
        <pt x="1136" y="996" on="0"/>
        <pt x="1037" y="922" on="1"/>
        <pt x="963" y="867" on="0"/>
        <pt x="963" y="806" on="0"/>
        <pt x="1015" y="756" on="0"/>
        <pt x="1234" y="620" on="0"/>
        <pt x="1281" y="575" on="1"/>
        <pt x="1384" y="479" on="0"/>
        <pt x="1384" y="326" on="1"/>
        <pt x="1384" y="154" on="0"/>
        <pt x="1152" y="-20" on="0"/>
        <pt x="924" y="-20" on="1"/>
        <pt x="733" y="-20" on="0"/>
        <pt x="621" y="43" on="1"/>
        <pt x="621" y="285" on="1"/>
        <pt x="674" y="249" on="0"/>
        <pt x="839" y="199" on="0"/>
        <pt x="903" y="199" on="1"/>
        <pt x="1071" y="199" on="0"/>
        <pt x="1071" y="322" on="1"/>
        <pt x="1071" y="363" on="0"/>
        <pt x="1040" y="414" on="0"/>
        <pt x="961" y="471" on="0"/>
        <pt x="883" y="516" on="1"/>
        <pt x="757" y="588" on="0"/>
        <pt x="659" y="707" on="0"/>
        <pt x="659" y="788" on="1"/>
        <pt x="659" y="909" on="0"/>
        <pt x="799" y="1007" on="1"/>
        <pt x="876" y="1062" on="0"/>
        <pt x="938" y="1142" on="0"/>
        <pt x="938" y="1188" on="1"/>
        <pt x="938" y="1248" on="0"/>
        <pt x="810" y="1329" on="0"/>
        <pt x="594" y="1329" on="0"/>
        <pt x="465" y="1224" on="0"/>
        <pt x="465" y="1128" on="1"/>
        <pt x="465" y="0" on="1"/>
      </contour>
    </TTGlyph>
    <TTGlyph name="gershayimhb" xMin="25" yMin="789" xMax="887" yMax="1290">
      <contour>
        <pt x="406" y="1290" on="1"/>
        <pt x="420" y="1268" on="1"/>
        <pt x="370" y="1069" on="0"/>
        <pt x="244" y="789" on="1"/>
        <pt x="25" y="789" on="1"/>
        <pt x="92" y="1074" on="0"/>
        <pt x="125" y="1290" on="1"/>
      </contour>
      <contour>
        <pt x="872" y="1290" on="1"/>
        <pt x="887" y="1268" on="1"/>
        <pt x="837" y="1069" on="0"/>
        <pt x="711" y="789" on="1"/>
        <pt x="492" y="789" on="1"/>
        <pt x="559" y="1074" on="0"/>
        <pt x="592" y="1290" on="1"/>
      </contour>
    </TTGlyph>
    <TTGlyph name="gimeldageshhb" xMin="70" yMin="-20" xMax="797" yMax="1310">
      <contour>
        <pt x="354" y="25" on="0"/>
        <pt x="236" y="-20" on="0"/>
        <pt x="132" y="-20" on="0"/>
        <pt x="70" y="-9" on="1"/>
        <pt x="92" y="274" on="1"/>
        <pt x="94" y="272" on="0"/>
        <pt x="141" y="265" on="0"/>
        <pt x="188" y="265" on="0"/>
        <pt x="265" y="268" on="0"/>
        <pt x="321" y="286" on="1"/>
        <pt x="400" y="311" on="0"/>
        <pt x="492" y="451" on="0"/>
        <pt x="492" y="544" on="1"/>
        <pt x="492" y="908" on="1"/>
        <pt x="492" y="1023" on="0"/>
        <pt x="436" y="1055" on="1"/>
        <pt x="411" y="1069" on="0"/>
        <pt x="372" y="1069" on="1"/>
        <pt x="287" y="1069" on="0"/>
        <pt x="222" y="1052" on="1"/>
        <pt x="199" y="1046" on="1"/>
        <pt x="199" y="1287" on="1"/>
        <pt x="287" y="1310" on="0"/>
        <pt x="509" y="1310" on="0"/>
        <pt x="651" y="1268" on="0"/>
        <pt x="734" y="1201" on="0"/>
        <pt x="782" y="1092" on="0"/>
        <pt x="797" y="983" on="0"/>
        <pt x="797" y="908" on="1"/>
        <pt x="797" y="0" on="1"/>
        <pt x="566" y="0" on="1"/>
        <pt x="521" y="188" on="1"/>
        <pt x="506" y="188" on="1"/>
        <pt x="491" y="158" on="0"/>
        <pt x="425" y="80" on="0"/>
      </contour>
      <contour>
        <pt x="212" y="714" on="0"/>
        <pt x="262" y="760" on="0"/>
        <pt x="349" y="760" on="0"/>
        <pt x="401" y="712" on="0"/>
        <pt x="401" y="634" on="0"/>
        <pt x="349" y="587" on="0"/>
        <pt x="261" y="587" on="0"/>
        <pt x="212" y="632" on="0"/>
      </contour>
    </TTGlyph>
    <TTGlyph name="grave" xMin="332" yMin="1241" xMax="909" yMax="1569">
      <contour>
        <pt x="332" y="1569" on="1"/>
        <pt x="674" y="1569" on="1"/>
        <pt x="741" y="1463" on="0"/>
        <pt x="909" y="1268" on="1"/>
        <pt x="909" y="1241" on="1"/>
        <pt x="707" y="1241" on="1"/>
        <pt x="638" y="1289" on="0"/>
        <pt x="396" y="1486" on="0"/>
        <pt x="332" y="1548" on="1"/>
      </contour>
    </TTGlyph>
    <TTGlyph name="greater" xMin="88" yMin="203" xMax="1081" yMax="1280">
      <contour>
        <pt x="1081" y="784" on="1"/>
        <pt x="1081" y="641" on="1"/>
        <pt x="88" y="203" on="1"/>
        <pt x="88" y="442" on="1"/>
        <pt x="772" y="723" on="1"/>
        <pt x="88" y="1040" on="1"/>
        <pt x="88" y="1280" on="1"/>
      </contour>
    </TTGlyph>
    <TTGlyph name="guillemotleft" xMin="82" yMin="93" xMax="1178" yMax="1028">
      <contour>
        <pt x="672" y="909" on="1"/>
        <pt x="393" y="561" on="1"/>
        <pt x="672" y="213" on="1"/>
        <pt x="453" y="93" on="1"/>
        <pt x="82" y="547" on="1"/>
        <pt x="82" y="573" on="1"/>
        <pt x="453" y="1028" on="1"/>
      </contour>
      <contour>
        <pt x="1178" y="909" on="1"/>
        <pt x="899" y="561" on="1"/>
        <pt x="1178" y="213" on="1"/>
        <pt x="958" y="93" on="1"/>
        <pt x="588" y="547" on="1"/>
        <pt x="588" y="573" on="1"/>
        <pt x="958" y="1028" on="1"/>
      </contour>
    </TTGlyph>
    <TTGlyph name="guillemotright" xMin="82" yMin="93" xMax="1178" yMax="1028">
      <contour>
        <pt x="672" y="573" on="1"/>
        <pt x="672" y="547" on="1"/>
        <pt x="301" y="93" on="1"/>
        <pt x="82" y="213" on="1"/>
        <pt x="360" y="561" on="1"/>
        <pt x="82" y="909" on="1"/>
        <pt x="301" y="1028" on="1"/>
      </contour>
      <contour>
        <pt x="1178" y="573" on="1"/>
        <pt x="1178" y="547" on="1"/>
        <pt x="807" y="93" on="1"/>
        <pt x="588" y="213" on="1"/>
        <pt x="866" y="561" on="1"/>
        <pt x="588" y="909" on="1"/>
        <pt x="807" y="1028" on="1"/>
      </contour>
    </TTGlyph>
    <TTGlyph name="guilsinglleft" xMin="82" yMin="93" xMax="672" yMax="1028">
      <contour>
        <pt x="672" y="909" on="1"/>
        <pt x="393" y="561" on="1"/>
        <pt x="672" y="213" on="1"/>
        <pt x="453" y="93" on="1"/>
        <pt x="82" y="547" on="1"/>
        <pt x="82" y="573" on="1"/>
        <pt x="453" y="1028" on="1"/>
      </contour>
    </TTGlyph>
    <TTGlyph name="guilsinglright" xMin="82" yMin="93" xMax="672" yMax="1028">
      <contour>
        <pt x="672" y="573" on="1"/>
        <pt x="672" y="547" on="1"/>
        <pt x="301" y="93" on="1"/>
        <pt x="82" y="213" on="1"/>
        <pt x="360" y="561" on="1"/>
        <pt x="82" y="909" on="1"/>
        <pt x="301" y="1028" on="1"/>
      </contour>
    </TTGlyph>
    <TTGlyph name="h" xMin="160" yMin="0" xMax="1192" yMax="1556">
      <contour>
        <pt x="465" y="1556" on="1"/>
        <pt x="465" y="1239" on="1"/>
        <pt x="465" y="1192" on="0"/>
        <pt x="458" y="1065" on="1"/>
        <pt x="451" y="974" on="1"/>
        <pt x="467" y="974" on="1"/>
        <pt x="569" y="1139" on="0"/>
        <pt x="791" y="1139" on="1"/>
        <pt x="987" y="1139" on="0"/>
        <pt x="1192" y="927" on="0"/>
        <pt x="1192" y="729" on="1"/>
        <pt x="1192" y="0" on="1"/>
        <pt x="887" y="0" on="1"/>
        <pt x="887" y="653" on="1"/>
        <pt x="887" y="895" on="0"/>
        <pt x="707" y="895" on="1"/>
        <pt x="579" y="895" on="0"/>
        <pt x="465" y="721" on="0"/>
        <pt x="465" y="526" on="1"/>
        <pt x="465" y="0" on="1"/>
        <pt x="160" y="0" on="1"/>
        <pt x="160" y="1556" on="1"/>
      </contour>
    </TTGlyph>
    <TTGlyph name="hedageshhb" xMin="160" yMin="0" xMax="1191" yMax="1310">
      <contour>
        <pt x="534" y="1310" on="0"/>
        <pt x="782" y="1310" on="0"/>
        <pt x="950" y="1282" on="0"/>
        <pt x="1064" y="1224" on="0"/>
        <pt x="1137" y="1149" on="0"/>
        <pt x="1177" y="1037" on="0"/>
        <pt x="1191" y="922" on="0"/>
        <pt x="1191" y="843" on="1"/>
        <pt x="1191" y="0" on="1"/>
        <pt x="885" y="0" on="1"/>
        <pt x="885" y="844" on="1"/>
        <pt x="885" y="1075" on="0"/>
        <pt x="631" y="1075" on="1"/>
        <pt x="541" y="1075" on="0"/>
        <pt x="305" y="1056" on="0"/>
        <pt x="232" y="1046" on="1"/>
        <pt x="160" y="1036" on="1"/>
        <pt x="160" y="1267" on="1"/>
        <pt x="233" y="1283" on="0"/>
      </contour>
      <contour>
        <pt x="160" y="0" on="1"/>
        <pt x="160" y="823" on="1"/>
        <pt x="466" y="823" on="1"/>
        <pt x="466" y="0" on="1"/>
      </contour>
      <contour>
        <pt x="579" y="714" on="0"/>
        <pt x="629" y="760" on="0"/>
        <pt x="716" y="760" on="0"/>
        <pt x="768" y="712" on="0"/>
        <pt x="768" y="634" on="0"/>
        <pt x="716" y="587" on="0"/>
        <pt x="628" y="587" on="0"/>
        <pt x="579" y="632" on="0"/>
      </contour>
    </TTGlyph>
    <TTGlyph name="hungarumlaut" xMin="156" yMin="1241" xMax="1049" yMax="1569">
      <contour>
        <pt x="651" y="1569" on="1"/>
        <pt x="651" y="1548" on="1"/>
        <pt x="621" y="1499" on="0"/>
        <pt x="403" y="1304" on="0"/>
        <pt x="317" y="1241" on="1"/>
        <pt x="156" y="1241" on="1"/>
        <pt x="156" y="1268" on="1"/>
        <pt x="215" y="1348" on="0"/>
        <pt x="327" y="1524" on="0"/>
        <pt x="350" y="1569" on="1"/>
      </contour>
      <contour>
        <pt x="1049" y="1569" on="1"/>
        <pt x="1049" y="1548" on="1"/>
        <pt x="1025" y="1506" on="0"/>
        <pt x="825" y="1324" on="0"/>
        <pt x="715" y="1241" on="1"/>
        <pt x="553" y="1241" on="1"/>
        <pt x="553" y="1268" on="1"/>
        <pt x="693" y="1461" on="0"/>
        <pt x="748" y="1569" on="1"/>
      </contour>
    </TTGlyph>
    <TTGlyph name="hyphen" xMin="61" yMin="424" xMax="598" yMax="674">
      <contour>
        <pt x="598" y="424" on="1"/>
        <pt x="61" y="424" on="1"/>
        <pt x="61" y="674" on="1"/>
        <pt x="598" y="674" on="1"/>
      </contour>
    </TTGlyph>
    <TTGlyph name="i" xMin="147" yMin="0" xMax="479" yMax="1556">
      <contour>
        <pt x="147" y="1556" on="0"/>
        <pt x="479" y="1556" on="0"/>
        <pt x="479" y="1407" on="1"/>
        <pt x="479" y="1335" on="0"/>
        <pt x="395" y="1257" on="0"/>
        <pt x="313" y="1257" on="1"/>
        <pt x="147" y="1257" on="0"/>
      </contour>
      <contour>
        <pt x="465" y="0" on="1"/>
        <pt x="160" y="0" on="1"/>
        <pt x="160" y="1118" on="1"/>
        <pt x="465" y="1118" on="1"/>
      </contour>
    </TTGlyph>
    <TTGlyph name="iacute" xMin="145" yMin="0" xMax="722" yMax="1569">
      <contour>
        <pt x="722" y="1569" on="1"/>
        <pt x="722" y="1548" on="1"/>
        <pt x="671" y="1497" on="0"/>
        <pt x="421" y="1293" on="0"/>
        <pt x="348" y="1241" on="1"/>
        <pt x="145" y="1241" on="1"/>
        <pt x="145" y="1268" on="1"/>
        <pt x="313" y="1463" on="0"/>
        <pt x="380" y="1569" on="1"/>
      </contour>
      <contour>
        <pt x="465" y="0" on="1"/>
        <pt x="160" y="0" on="1"/>
        <pt x="160" y="1118" on="1"/>
        <pt x="465" y="1118" on="1"/>
      </contour>
    </TTGlyph>
    <TTGlyph name="icircumflex" xMin="-122" yMin="0" xMax="747" yMax="1569">
      <contour>
        <pt x="747" y="1241" on="1"/>
        <pt x="544" y="1241" on="1"/>
        <pt x="388" y="1333" on="0"/>
        <pt x="310" y="1417" on="1"/>
        <pt x="230" y="1334" on="0"/>
        <pt x="81" y="1241" on="1"/>
        <pt x="-122" y="1241" on="1"/>
        <pt x="-122" y="1268" on="1"/>
        <pt x="66" y="1456" on="0"/>
        <pt x="134" y="1569" on="1"/>
        <pt x="491" y="1569" on="1"/>
        <pt x="521" y="1518" on="0"/>
        <pt x="674" y="1338" on="0"/>
        <pt x="747" y="1268" on="1"/>
      </contour>
      <contour>
        <pt x="465" y="0" on="1"/>
        <pt x="160" y="0" on="1"/>
        <pt x="160" y="1118" on="1"/>
        <pt x="465" y="1118" on="1"/>
      </contour>
    </TTGlyph>
    <TTGlyph name="idieresis" xMin="-29" yMin="0" xMax="657" yMax="1540">
      <contour>
        <pt x="45" y="1540" on="0"/>
        <pt x="175" y="1540" on="0"/>
        <pt x="251" y="1466" on="0"/>
        <pt x="251" y="1345" on="0"/>
        <pt x="175" y="1272" on="0"/>
        <pt x="46" y="1272" on="0"/>
        <pt x="-29" y="1342" on="0"/>
        <pt x="-29" y="1469" on="0"/>
      </contour>
      <contour>
        <pt x="374" y="1472" on="0"/>
        <pt x="452" y="1540" on="0"/>
        <pt x="580" y="1540" on="0"/>
        <pt x="657" y="1468" on="0"/>
        <pt x="657" y="1344" on="0"/>
        <pt x="579" y="1272" on="0"/>
        <pt x="452" y="1272" on="0"/>
        <pt x="374" y="1339" on="0"/>
      </contour>
      <contour>
        <pt x="465" y="0" on="1"/>
        <pt x="160" y="0" on="1"/>
        <pt x="160" y="1118" on="1"/>
        <pt x="465" y="1118" on="1"/>
      </contour>
    </TTGlyph>
    <TTGlyph name="igrave" xMin="-101" yMin="0" xMax="476" yMax="1569">
      <contour>
        <pt x="-101" y="1569" on="1"/>
        <pt x="241" y="1569" on="1"/>
        <pt x="308" y="1463" on="0"/>
        <pt x="476" y="1268" on="1"/>
        <pt x="476" y="1241" on="1"/>
        <pt x="274" y="1241" on="1"/>
        <pt x="205" y="1289" on="0"/>
        <pt x="-37" y="1486" on="0"/>
        <pt x="-101" y="1548" on="1"/>
      </contour>
      <contour>
        <pt x="465" y="0" on="1"/>
        <pt x="160" y="0" on="1"/>
        <pt x="160" y="1118" on="1"/>
        <pt x="465" y="1118" on="1"/>
      </contour>
    </TTGlyph>
    <TTGlyph name="j" xMin="-131" yMin="-492" xMax="479" yMax="1556">
      <contour>
        <pt x="147" y="1556" on="0"/>
        <pt x="479" y="1556" on="0"/>
        <pt x="479" y="1407" on="1"/>
        <pt x="479" y="1335" on="0"/>
        <pt x="395" y="1257" on="0"/>
        <pt x="313" y="1257" on="1"/>
        <pt x="147" y="1257" on="0"/>
      </contour>
      <contour>
        <pt x="465" y="1118" on="1"/>
        <pt x="465" y="-121" on="1"/>
        <pt x="465" y="-299" on="0"/>
        <pt x="259" y="-492" on="0"/>
        <pt x="70" y="-492" on="1"/>
        <pt x="-49" y="-492" on="0"/>
        <pt x="-131" y="-467" on="1"/>
        <pt x="-131" y="-227" on="1"/>
        <pt x="-62" y="-246" on="0"/>
        <pt x="12" y="-246" on="1"/>
        <pt x="160" y="-246" on="0"/>
        <pt x="160" y="-76" on="1"/>
        <pt x="160" y="1118" on="1"/>
      </contour>
    </TTGlyph>
    <TTGlyph name="k" xMin="160" yMin="0" xMax="1270" yMax="1556">
      <contour>
        <pt x="465" y="0" on="1"/>
        <pt x="160" y="0" on="1"/>
        <pt x="160" y="1556" on="1"/>
        <pt x="465" y="1556" on="1"/>
        <pt x="465" y="862" on="1"/>
        <pt x="449" y="608" on="1"/>
        <pt x="453" y="608" on="1"/>
        <pt x="586" y="778" on="1"/>
        <pt x="899" y="1118" on="1"/>
        <pt x="1243" y="1118" on="1"/>
        <pt x="799" y="633" on="1"/>
        <pt x="1270" y="0" on="1"/>
        <pt x="918" y="0" on="1"/>
        <pt x="596" y="453" on="1"/>
        <pt x="465" y="348" on="1"/>
      </contour>
    </TTGlyph>
    <TTGlyph name="kafdageshhb" xMin="66" yMin="-20" xMax="962" yMax="1310">
      <contour>
        <pt x="441" y="1310" on="1"/>
        <pt x="559" y="1310" on="0"/>
        <pt x="743" y="1242" on="0"/>
        <pt x="858" y="1130" on="0"/>
        <pt x="895" y="1052" on="1"/>
        <pt x="962" y="911" on="0"/>
        <pt x="962" y="719" on="1"/>
        <pt x="962" y="571" on="1"/>
        <pt x="962" y="476" on="0"/>
        <pt x="938" y="318" on="0"/>
        <pt x="869" y="158" on="0"/>
        <pt x="757" y="49" on="0"/>
        <pt x="567" y="-20" on="0"/>
        <pt x="441" y="-20" on="1"/>
        <pt x="213" y="-20" on="0"/>
        <pt x="66" y="8" on="1"/>
        <pt x="66" y="246" on="1"/>
        <pt x="228" y="226" on="0"/>
        <pt x="402" y="226" on="1"/>
        <pt x="570" y="226" on="0"/>
        <pt x="624" y="354" on="1"/>
        <pt x="656" y="428" on="0"/>
        <pt x="656" y="540" on="1"/>
        <pt x="656" y="750" on="1"/>
        <pt x="656" y="985" on="0"/>
        <pt x="526" y="1050" on="1"/>
        <pt x="475" y="1075" on="0"/>
        <pt x="402" y="1075" on="1"/>
        <pt x="275" y="1075" on="0"/>
        <pt x="66" y="1053" on="1"/>
        <pt x="66" y="1288" on="1"/>
        <pt x="244" y="1310" on="0"/>
      </contour>
      <contour>
        <pt x="254" y="714" on="0"/>
        <pt x="304" y="760" on="0"/>
        <pt x="391" y="760" on="0"/>
        <pt x="443" y="712" on="0"/>
        <pt x="443" y="634" on="0"/>
        <pt x="391" y="587" on="0"/>
        <pt x="303" y="587" on="0"/>
        <pt x="254" y="632" on="0"/>
      </contour>
    </TTGlyph>
    <TTGlyph name="l" xMin="160" yMin="0" xMax="465" yMax="1556">
      <contour>
        <pt x="465" y="0" on="1"/>
        <pt x="160" y="0" on="1"/>
        <pt x="160" y="1556" on="1"/>
        <pt x="465" y="1556" on="1"/>
      </contour>
    </TTGlyph>
    <TTGlyph name="lameddageshhb" xMin="70" yMin="0" xMax="1054" yMax="1556">
      <contour>
        <pt x="1054" y="1290" on="1"/>
        <pt x="1054" y="1092" on="1"/>
        <pt x="879" y="479" on="1"/>
        <pt x="771" y="0" on="1"/>
        <pt x="474" y="0" on="1"/>
        <pt x="582" y="479" on="1"/>
        <pt x="747" y="1057" on="1"/>
        <pt x="70" y="1057" on="1"/>
        <pt x="70" y="1556" on="1"/>
        <pt x="375" y="1556" on="1"/>
        <pt x="375" y="1290" on="1"/>
      </contour>
      <contour>
        <pt x="215" y="714" on="0"/>
        <pt x="265" y="760" on="0"/>
        <pt x="352" y="760" on="0"/>
        <pt x="404" y="712" on="0"/>
        <pt x="404" y="634" on="0"/>
        <pt x="352" y="587" on="0"/>
        <pt x="264" y="587" on="0"/>
        <pt x="215" y="632" on="0"/>
      </contour>
    </TTGlyph>
    <TTGlyph name="less" xMin="88" yMin="203" xMax="1081" yMax="1280">
      <contour>
        <pt x="1081" y="1040" on="1"/>
        <pt x="397" y="723" on="1"/>
        <pt x="1081" y="442" on="1"/>
        <pt x="1081" y="203" on="1"/>
        <pt x="88" y="641" on="1"/>
        <pt x="88" y="784" on="1"/>
        <pt x="1081" y="1280" on="1"/>
      </contour>
    </TTGlyph>
    <TTGlyph name="logicalnot" xMin="88" yMin="248" xMax="1081" yMax="831">
      <contour>
        <pt x="1081" y="248" on="1"/>
        <pt x="862" y="248" on="1"/>
        <pt x="862" y="612" on="1"/>
        <pt x="88" y="612" on="1"/>
        <pt x="88" y="831" on="1"/>
        <pt x="1081" y="831" on="1"/>
      </contour>
    </TTGlyph>
    <TTGlyph name="m" xMin="160" yMin="0" xMax="1858" yMax="1139">
      <contour>
        <pt x="1473" y="1139" on="1"/>
        <pt x="1666" y="1139" on="0"/>
        <pt x="1858" y="941" on="0"/>
        <pt x="1858" y="729" on="1"/>
        <pt x="1858" y="0" on="1"/>
        <pt x="1552" y="0" on="1"/>
        <pt x="1552" y="653" on="1"/>
        <pt x="1552" y="775" on="0"/>
        <pt x="1470" y="895" on="0"/>
        <pt x="1384" y="895" on="1"/>
        <pt x="1271" y="895" on="0"/>
        <pt x="1161" y="733" on="0"/>
        <pt x="1161" y="561" on="1"/>
        <pt x="1161" y="0" on="1"/>
        <pt x="856" y="0" on="1"/>
        <pt x="856" y="653" on="1"/>
        <pt x="856" y="775" on="0"/>
        <pt x="774" y="895" on="0"/>
        <pt x="688" y="895" on="1"/>
        <pt x="571" y="895" on="0"/>
        <pt x="465" y="723" on="0"/>
        <pt x="465" y="526" on="1"/>
        <pt x="465" y="0" on="1"/>
        <pt x="160" y="0" on="1"/>
        <pt x="160" y="1118" on="1"/>
        <pt x="393" y="1118" on="1"/>
        <pt x="434" y="974" on="1"/>
        <pt x="451" y="974" on="1"/>
        <pt x="496" y="1052" on="0"/>
        <pt x="666" y="1139" on="0"/>
        <pt x="776" y="1139" on="1"/>
        <pt x="1028" y="1139" on="0"/>
        <pt x="1116" y="974" on="1"/>
        <pt x="1143" y="974" on="1"/>
        <pt x="1188" y="1052" on="0"/>
        <pt x="1362" y="1139" on="0"/>
      </contour>
    </TTGlyph>
    <TTGlyph name="memdageshhb" xMin="102" yMin="0" xMax="1259" yMax="1310">
      <contour>
        <pt x="181" y="910" on="1"/>
        <pt x="181" y="1089" on="0"/>
        <pt x="108" y="1291" on="1"/>
        <pt x="400" y="1291" on="1"/>
        <pt x="415" y="1252" on="0"/>
        <pt x="430" y="1200" on="1"/>
        <pt x="457" y="1093" on="1"/>
        <pt x="476" y="1093" on="1"/>
        <pt x="480" y="1102" on="0"/>
        <pt x="496" y="1131" on="0"/>
        <pt x="561" y="1206" on="0"/>
        <pt x="641" y="1263" on="0"/>
        <pt x="780" y="1310" on="0"/>
        <pt x="953" y="1310" on="0"/>
        <pt x="1095" y="1244" on="0"/>
        <pt x="1182" y="1136" on="0"/>
        <pt x="1210" y="1059" on="1"/>
        <pt x="1259" y="924" on="0"/>
        <pt x="1259" y="730" on="1"/>
        <pt x="1259" y="0" on="1"/>
        <pt x="707" y="0" on="1"/>
        <pt x="707" y="233" on="1"/>
        <pt x="947" y="233" on="1"/>
        <pt x="947" y="695" on="1"/>
        <pt x="947" y="873" on="0"/>
        <pt x="914" y="946" on="1"/>
        <pt x="899" y="979" on="0"/>
        <pt x="876" y="1008" on="1"/>
        <pt x="830" y="1068" on="0"/>
        <pt x="730" y="1068" on="1"/>
        <pt x="684" y="1068" on="0"/>
        <pt x="597" y="1025" on="0"/>
        <pt x="568" y="994" on="1"/>
        <pt x="509" y="931" on="0"/>
        <pt x="486" y="882" on="1"/>
        <pt x="476" y="860" on="1"/>
        <pt x="400" y="0" on="1"/>
        <pt x="102" y="0" on="1"/>
        <pt x="177" y="819" on="1"/>
        <pt x="181" y="865" on="0"/>
      </contour>
      <contour>
        <pt x="613" y="714" on="0"/>
        <pt x="663" y="760" on="0"/>
        <pt x="750" y="760" on="0"/>
        <pt x="802" y="712" on="0"/>
        <pt x="802" y="634" on="0"/>
        <pt x="750" y="587" on="0"/>
        <pt x="662" y="587" on="0"/>
        <pt x="613" y="632" on="0"/>
      </contour>
    </TTGlyph>
    <TTGlyph name="mu" xMin="160" yMin="-492" xMax="1192" yMax="1118">
      <contour>
        <pt x="1192" y="0" on="1"/>
        <pt x="961" y="0" on="1"/>
        <pt x="918" y="150" on="1"/>
        <pt x="903" y="150" on="1"/>
        <pt x="860" y="64" on="0"/>
        <pt x="739" y="-20" on="0"/>
        <pt x="653" y="-20" on="1"/>
        <pt x="521" y="-20" on="0"/>
        <pt x="455" y="70" on="1"/>
        <pt x="460" y="-15" on="1"/>
        <pt x="465" y="-172" on="1"/>
        <pt x="465" y="-492" on="1"/>
        <pt x="160" y="-492" on="1"/>
        <pt x="160" y="1118" on="1"/>
        <pt x="465" y="1118" on="1"/>
        <pt x="465" y="465" on="1"/>
        <pt x="465" y="343" on="0"/>
        <pt x="554" y="223" on="0"/>
        <pt x="647" y="223" on="1"/>
        <pt x="773" y="223" on="0"/>
        <pt x="887" y="396" on="0"/>
        <pt x="887" y="592" on="1"/>
        <pt x="887" y="1118" on="1"/>
        <pt x="1192" y="1118" on="1"/>
      </contour>
    </TTGlyph>
    <TTGlyph name="multiply" xMin="129" yMin="268" xMax="1040" yMax="1178">
      <contour>
        <pt x="1040" y="1028" on="1"/>
        <pt x="735" y="723" on="1"/>
        <pt x="1036" y="420" on="1"/>
        <pt x="887" y="268" on="1"/>
        <pt x="582" y="569" on="1"/>
        <pt x="281" y="270" on="1"/>
        <pt x="131" y="422" on="1"/>
        <pt x="428" y="723" on="1"/>
        <pt x="129" y="1024" on="1"/>
        <pt x="281" y="1178" on="1"/>
        <pt x="582" y="879" on="1"/>
        <pt x="887" y="1178" on="1"/>
      </contour>
    </TTGlyph>
    <TTGlyph name="n" xMin="160" yMin="0" xMax="1192" yMax="1139">
      <contour>
        <pt x="795" y="1139" on="1"/>
        <pt x="989" y="1139" on="0"/>
        <pt x="1192" y="928" on="0"/>
        <pt x="1192" y="729" on="1"/>
        <pt x="1192" y="0" on="1"/>
        <pt x="887" y="0" on="1"/>
        <pt x="887" y="653" on="1"/>
        <pt x="887" y="775" on="0"/>
        <pt x="800" y="895" on="0"/>
        <pt x="707" y="895" on="1"/>
        <pt x="579" y="895" on="0"/>
        <pt x="465" y="723" on="0"/>
        <pt x="465" y="526" on="1"/>
        <pt x="465" y="0" on="1"/>
        <pt x="160" y="0" on="1"/>
        <pt x="160" y="1118" on="1"/>
        <pt x="393" y="1118" on="1"/>
        <pt x="434" y="974" on="1"/>
        <pt x="451" y="974" on="1"/>
        <pt x="501" y="1055" on="0"/>
        <pt x="680" y="1139" on="0"/>
      </contour>
    </TTGlyph>
    <TTGlyph name="nine" xMin="66" yMin="-20" xMax="1098" yMax="1479">
      <contour>
        <pt x="477" y="508" on="1"/>
        <pt x="286" y="508" on="0"/>
        <pt x="176" y="630" on="1"/>
        <pt x="66" y="754" on="0"/>
        <pt x="66" y="1206" on="0"/>
        <pt x="333" y="1479" on="0"/>
        <pt x="563" y="1479" on="1"/>
        <pt x="566" y="1479" on="0"/>
        <pt x="569" y="1479" on="1"/>
        <pt x="810" y="1479" on="0"/>
        <pt x="1098" y="1139" on="0"/>
        <pt x="1098" y="850" on="1"/>
        <pt x="1098" y="844" on="0"/>
        <pt x="1098" y="838" on="1"/>
        <pt x="1098" y="406" on="0"/>
        <pt x="734" y="-20" on="0"/>
        <pt x="365" y="-20" on="1"/>
        <pt x="238" y="-20" on="0"/>
        <pt x="168" y="-6" on="1"/>
        <pt x="168" y="242" on="1"/>
        <pt x="252" y="221" on="0"/>
        <pt x="344" y="221" on="1"/>
        <pt x="498" y="221" on="0"/>
        <pt x="700" y="312" on="0"/>
        <pt x="805" y="509" on="0"/>
        <pt x="813" y="678" on="1"/>
        <pt x="801" y="678" on="1"/>
        <pt x="742" y="583" on="0"/>
        <pt x="589" y="508" on="0"/>
      </contour>
      <contour>
        <pt x="728" y="1149" on="1"/>
        <pt x="667" y="1231" on="0"/>
        <pt x="472" y="1231" on="0"/>
        <pt x="365" y="1098" on="0"/>
        <pt x="365" y="866" on="0"/>
        <pt x="465" y="745" on="0"/>
        <pt x="657" y="745" on="0"/>
        <pt x="791" y="867" on="0"/>
        <pt x="791" y="948" on="1"/>
        <pt x="791" y="1066" on="0"/>
      </contour>
    </TTGlyph>
    <TTGlyph name="ntilde" xMin="160" yMin="0" xMax="1192" yMax="1550">
      <contour>
        <pt x="815" y="1241" on="1"/>
        <pt x="768" y="1241" on="0"/>
        <pt x="710" y="1268" on="1"/>
        <pt x="692" y="1276" on="0"/>
        <pt x="569" y="1338" on="0"/>
        <pt x="519" y="1346" on="0"/>
        <pt x="508" y="1346" on="1"/>
        <pt x="475" y="1346" on="0"/>
        <pt x="419" y="1291" on="0"/>
        <pt x="407" y="1239" on="1"/>
        <pt x="258" y="1239" on="1"/>
        <pt x="269" y="1384" on="0"/>
        <pt x="413" y="1548" on="0"/>
        <pt x="530" y="1548" on="1"/>
        <pt x="585" y="1548" on="0"/>
        <pt x="689" y="1496" on="1"/>
        <pt x="725" y="1478" on="0"/>
        <pt x="742" y="1470" on="1"/>
        <pt x="795" y="1444" on="0"/>
        <pt x="870" y="1444" on="0"/>
        <pt x="926" y="1499" on="0"/>
        <pt x="938" y="1550" on="1"/>
        <pt x="1087" y="1550" on="1"/>
        <pt x="1076" y="1405" on="0"/>
        <pt x="931" y="1241" on="0"/>
      </contour>
      <contour>
        <pt x="795" y="1139" on="1"/>
        <pt x="989" y="1139" on="0"/>
        <pt x="1192" y="928" on="0"/>
        <pt x="1192" y="729" on="1"/>
        <pt x="1192" y="0" on="1"/>
        <pt x="887" y="0" on="1"/>
        <pt x="887" y="653" on="1"/>
        <pt x="887" y="775" on="0"/>
        <pt x="800" y="895" on="0"/>
        <pt x="707" y="895" on="1"/>
        <pt x="578" y="895" on="0"/>
        <pt x="465" y="723" on="0"/>
        <pt x="465" y="526" on="1"/>
        <pt x="465" y="0" on="1"/>
        <pt x="160" y="0" on="1"/>
        <pt x="160" y="1118" on="1"/>
        <pt x="393" y="1118" on="1"/>
        <pt x="434" y="975" on="1"/>
        <pt x="451" y="975" on="1"/>
        <pt x="501" y="1055" on="0"/>
        <pt x="680" y="1139" on="0"/>
      </contour>
    </TTGlyph>
    <TTGlyph name="numbersign" xMin="45" yMin="0" xMax="1278" yMax="1460">
      <contour>
        <pt x="1278" y="1053" on="1"/>
        <pt x="1278" y="844" on="1"/>
        <pt x="998" y="844" on="1"/>
        <pt x="952" y="612" on="1"/>
        <pt x="1210" y="612" on="1"/>
        <pt x="1210" y="406" on="1"/>
        <pt x="913" y="406" on="1"/>
        <pt x="836" y="0" on="1"/>
        <pt x="616" y="0" on="1"/>
        <pt x="694" y="406" on="1"/>
        <pt x="500" y="406" on="1"/>
        <pt x="424" y="0" on="1"/>
        <pt x="209" y="0" on="1"/>
        <pt x="283" y="406" on="1"/>
        <pt x="45" y="406" on="1"/>
        <pt x="45" y="612" on="1"/>
        <pt x="322" y="612" on="1"/>
        <pt x="369" y="844" on="1"/>
        <pt x="117" y="844" on="1"/>
        <pt x="117" y="1053" on="1"/>
        <pt x="406" y="1053" on="1"/>
        <pt x="483" y="1460" on="1"/>
        <pt x="702" y="1460" on="1"/>
        <pt x="625" y="1053" on="1"/>
        <pt x="823" y="1053" on="1"/>
        <pt x="901" y="1460" on="1"/>
        <pt x="1116" y="1460" on="1"/>
        <pt x="1038" y="1053" on="1"/>
      </contour>
      <contour>
        <pt x="586" y="844" on="1"/>
        <pt x="539" y="612" on="1"/>
        <pt x="735" y="612" on="1"/>
        <pt x="782" y="844" on="1"/>
      </contour>
    </TTGlyph>
    <TTGlyph name="nundageshhb" xMin="92" yMin="0" xMax="725" yMax="1310">
      <contour>
        <pt x="151" y="1292" on="1"/>
        <pt x="236" y="1310" on="0"/>
        <pt x="430" y="1310" on="0"/>
        <pt x="567" y="1269" on="0"/>
        <pt x="653" y="1199" on="0"/>
        <pt x="679" y="1146" on="1"/>
        <pt x="725" y="1054" on="0"/>
        <pt x="725" y="908" on="1"/>
        <pt x="725" y="383" on="1"/>
        <pt x="725" y="289" on="0"/>
        <pt x="700" y="98" on="0"/>
        <pt x="688" y="49" on="1"/>
        <pt x="675" y="0" on="1"/>
        <pt x="92" y="0" on="1"/>
        <pt x="92" y="233" on="1"/>
        <pt x="402" y="233" on="1"/>
        <pt x="420" y="310" on="0"/>
        <pt x="420" y="463" on="1"/>
        <pt x="420" y="908" on="1"/>
        <pt x="420" y="1023" on="0"/>
        <pt x="364" y="1055" on="1"/>
        <pt x="339" y="1069" on="0"/>
        <pt x="302" y="1069" on="1"/>
        <pt x="226" y="1069" on="0"/>
        <pt x="151" y="1052" on="1"/>
      </contour>
      <contour>
        <pt x="133" y="714" on="0"/>
        <pt x="183" y="760" on="0"/>
        <pt x="270" y="760" on="0"/>
        <pt x="322" y="712" on="0"/>
        <pt x="322" y="634" on="0"/>
        <pt x="270" y="587" on="0"/>
        <pt x="182" y="587" on="0"/>
        <pt x="133" y="632" on="0"/>
      </contour>
    </TTGlyph>
    <TTGlyph name="o" xMin="92" yMin="-20" xMax="1176" yMax="1139">
      <contour>
        <pt x="646" y="1139" on="1"/>
        <pt x="800" y="1139" on="0"/>
        <pt x="1043" y="1000" on="0"/>
        <pt x="1176" y="739" on="0"/>
        <pt x="1176" y="571" on="1"/>
        <pt x="1176" y="566" on="0"/>
        <pt x="1176" y="561" on="1"/>
        <pt x="1176" y="288" on="0"/>
        <pt x="888" y="-20" on="0"/>
        <pt x="631" y="-20" on="1"/>
        <pt x="627" y="-20" on="0"/>
        <pt x="622" y="-20" on="1"/>
        <pt x="468" y="-20" on="0"/>
        <pt x="225" y="121" on="0"/>
        <pt x="92" y="383" on="0"/>
        <pt x="92" y="551" on="1"/>
        <pt x="92" y="556" on="0"/>
        <pt x="92" y="561" on="1"/>
        <pt x="92" y="835" on="0"/>
        <pt x="235" y="986" on="1"/>
        <pt x="378" y="1139" on="0"/>
        <pt x="637" y="1139" on="1"/>
        <pt x="641" y="1139" on="0"/>
      </contour>
      <contour>
        <pt x="754" y="893" on="0"/>
        <pt x="512" y="893" on="0"/>
        <pt x="403" y="731" on="0"/>
        <pt x="403" y="392" on="0"/>
        <pt x="514" y="225" on="0"/>
        <pt x="755" y="225" on="0"/>
        <pt x="864" y="391" on="0"/>
        <pt x="864" y="730" on="0"/>
      </contour>
    </TTGlyph>
    <TTGlyph name="oacute" xMin="92" yMin="-20" xMax="1176" yMax="1569">
      <contour>
        <pt x="1044" y="1569" on="1"/>
        <pt x="1044" y="1548" on="1"/>
        <pt x="993" y="1497" on="0"/>
        <pt x="743" y="1293" on="0"/>
        <pt x="670" y="1241" on="1"/>
        <pt x="467" y="1241" on="1"/>
        <pt x="467" y="1268" on="1"/>
        <pt x="635" y="1463" on="0"/>
        <pt x="702" y="1569" on="1"/>
      </contour>
      <contour>
        <pt x="637" y="1139" on="1"/>
        <pt x="799" y="1139" on="0"/>
        <pt x="1044" y="999" on="0"/>
        <pt x="1176" y="738" on="0"/>
        <pt x="1176" y="561" on="1"/>
        <pt x="1176" y="288" on="0"/>
        <pt x="888" y="-20" on="0"/>
        <pt x="631" y="-20" on="1"/>
        <pt x="469" y="-20" on="0"/>
        <pt x="224" y="121" on="0"/>
        <pt x="92" y="385" on="0"/>
        <pt x="92" y="561" on="1"/>
        <pt x="92" y="835" on="0"/>
        <pt x="378" y="1139" on="0"/>
      </contour>
      <contour>
        <pt x="754" y="893" on="0"/>
        <pt x="512" y="893" on="0"/>
        <pt x="403" y="731" on="0"/>
        <pt x="403" y="392" on="0"/>
        <pt x="514" y="225" on="0"/>
        <pt x="755" y="225" on="0"/>
        <pt x="864" y="391" on="0"/>
        <pt x="864" y="730" on="0"/>
      </contour>
    </TTGlyph>
    <TTGlyph name="ocircumflex" xMin="92" yMin="-20" xMax="1176" yMax="1569">
      <contour>
        <pt x="1067" y="1241" on="1"/>
        <pt x="864" y="1241" on="1"/>
        <pt x="708" y="1333" on="0"/>
        <pt x="630" y="1417" on="1"/>
        <pt x="550" y="1334" on="0"/>
        <pt x="401" y="1241" on="1"/>
        <pt x="198" y="1241" on="1"/>
        <pt x="198" y="1268" on="1"/>
        <pt x="387" y="1456" on="0"/>
        <pt x="454" y="1569" on="1"/>
        <pt x="811" y="1569" on="1"/>
        <pt x="841" y="1518" on="0"/>
        <pt x="994" y="1338" on="0"/>
        <pt x="1067" y="1268" on="1"/>
      </contour>
      <contour>
        <pt x="637" y="1139" on="1"/>
        <pt x="799" y="1139" on="0"/>
        <pt x="1044" y="999" on="0"/>
        <pt x="1176" y="738" on="0"/>
        <pt x="1176" y="561" on="1"/>
        <pt x="1176" y="288" on="0"/>
        <pt x="888" y="-20" on="0"/>
        <pt x="631" y="-20" on="1"/>
        <pt x="469" y="-20" on="0"/>
        <pt x="224" y="121" on="0"/>
        <pt x="92" y="385" on="0"/>
        <pt x="92" y="561" on="1"/>
        <pt x="92" y="835" on="0"/>
        <pt x="378" y="1139" on="0"/>
      </contour>
      <contour>
        <pt x="754" y="893" on="0"/>
        <pt x="512" y="893" on="0"/>
        <pt x="403" y="731" on="0"/>
        <pt x="403" y="392" on="0"/>
        <pt x="514" y="225" on="0"/>
        <pt x="755" y="225" on="0"/>
        <pt x="864" y="391" on="0"/>
        <pt x="864" y="730" on="0"/>
      </contour>
    </TTGlyph>
    <TTGlyph name="odieresis" xMin="92" yMin="-20" xMax="1176" yMax="1540">
      <contour>
        <pt x="365" y="1540" on="0"/>
        <pt x="495" y="1540" on="0"/>
        <pt x="571" y="1466" on="0"/>
        <pt x="571" y="1345" on="0"/>
        <pt x="495" y="1272" on="0"/>
        <pt x="366" y="1272" on="0"/>
        <pt x="291" y="1342" on="0"/>
        <pt x="291" y="1469" on="0"/>
      </contour>
      <contour>
        <pt x="694" y="1472" on="0"/>
        <pt x="772" y="1540" on="0"/>
        <pt x="900" y="1540" on="0"/>
        <pt x="977" y="1468" on="0"/>
        <pt x="977" y="1344" on="0"/>
        <pt x="899" y="1272" on="0"/>
        <pt x="772" y="1272" on="0"/>
        <pt x="694" y="1339" on="0"/>
      </contour>
      <contour>
        <pt x="637" y="1139" on="1"/>
        <pt x="799" y="1139" on="0"/>
        <pt x="1044" y="999" on="0"/>
        <pt x="1176" y="738" on="0"/>
        <pt x="1176" y="561" on="1"/>
        <pt x="1176" y="288" on="0"/>
        <pt x="888" y="-20" on="0"/>
        <pt x="631" y="-20" on="1"/>
        <pt x="469" y="-20" on="0"/>
        <pt x="224" y="121" on="0"/>
        <pt x="92" y="385" on="0"/>
        <pt x="92" y="561" on="1"/>
        <pt x="92" y="835" on="0"/>
        <pt x="378" y="1139" on="0"/>
      </contour>
      <contour>
        <pt x="754" y="893" on="0"/>
        <pt x="512" y="893" on="0"/>
        <pt x="403" y="731" on="0"/>
        <pt x="403" y="392" on="0"/>
        <pt x="514" y="225" on="0"/>
        <pt x="755" y="225" on="0"/>
        <pt x="864" y="391" on="0"/>
        <pt x="864" y="730" on="0"/>
      </contour>
    </TTGlyph>
    <TTGlyph name="oe" xMin="92" yMin="-20" xMax="1915" yMax="1139">
      <contour>
        <pt x="1446" y="-20" on="1"/>
        <pt x="1175" y="-20" on="0"/>
        <pt x="1026" y="135" on="1"/>
        <pt x="885" y="-20" on="0"/>
        <pt x="635" y="-20" on="1"/>
        <pt x="472" y="-20" on="0"/>
        <pt x="225" y="121" on="0"/>
        <pt x="159" y="252" on="1"/>
        <pt x="92" y="383" on="0"/>
        <pt x="92" y="561" on="1"/>
        <pt x="92" y="837" on="0"/>
        <pt x="375" y="1139" on="0"/>
        <pt x="633" y="1139" on="1"/>
        <pt x="746" y="1139" on="0"/>
        <pt x="946" y="1059" on="0"/>
        <pt x="1016" y="983" on="1"/>
        <pt x="1160" y="1139" on="0"/>
        <pt x="1642" y="1139" on="0"/>
        <pt x="1915" y="869" on="0"/>
        <pt x="1915" y="631" on="1"/>
        <pt x="1915" y="483" on="1"/>
        <pt x="1169" y="483" on="1"/>
        <pt x="1169" y="475" on="1"/>
        <pt x="1176" y="348" on="0"/>
        <pt x="1326" y="207" on="0"/>
        <pt x="1458" y="207" on="1"/>
        <pt x="1659" y="207" on="0"/>
        <pt x="1851" y="295" on="1"/>
        <pt x="1851" y="59" on="1"/>
        <pt x="1687" y="-20" on="0"/>
      </contour>
      <contour>
        <pt x="1626" y="797" on="0"/>
        <pt x="1509" y="922" on="0"/>
        <pt x="1308" y="922" on="0"/>
        <pt x="1187" y="803" on="0"/>
        <pt x="1178" y="686" on="1"/>
        <pt x="1628" y="686" on="1"/>
      </contour>
      <contour>
        <pt x="754" y="893" on="0"/>
        <pt x="512" y="893" on="0"/>
        <pt x="403" y="731" on="0"/>
        <pt x="403" y="392" on="0"/>
        <pt x="514" y="225" on="0"/>
        <pt x="755" y="225" on="0"/>
        <pt x="864" y="391" on="0"/>
        <pt x="864" y="730" on="0"/>
      </contour>
    </TTGlyph>
    <TTGlyph name="ogonek" xMin="10" yMin="-492" xMax="416" yMax="0">
      <contour>
        <pt x="294" y="-71" on="0"/>
        <pt x="221" y="-178" on="0"/>
        <pt x="221" y="-268" on="0"/>
        <pt x="264" y="-309" on="0"/>
        <pt x="356" y="-309" on="0"/>
        <pt x="416" y="-291" on="1"/>
        <pt x="416" y="-469" on="1"/>
        <pt x="332" y="-492" on="0"/>
        <pt x="260" y="-492" on="1"/>
        <pt x="147" y="-492" on="0"/>
        <pt x="10" y="-365" on="0"/>
        <pt x="10" y="-262" on="1"/>
        <pt x="10" y="-193" on="0"/>
        <pt x="89" y="-75" on="0"/>
        <pt x="190" y="0" on="1"/>
        <pt x="369" y="0" on="1"/>
      </contour>
    </TTGlyph>
    <TTGlyph name="ograve" xMin="92" yMin="-20" xMax="1176" yMax="1569">
      <contour>
        <pt x="237" y="1569" on="1"/>
        <pt x="579" y="1569" on="1"/>
        <pt x="646" y="1463" on="0"/>
        <pt x="814" y="1268" on="1"/>
        <pt x="814" y="1241" on="1"/>
        <pt x="612" y="1241" on="1"/>
        <pt x="543" y="1289" on="0"/>
        <pt x="301" y="1486" on="0"/>
        <pt x="237" y="1548" on="1"/>
      </contour>
      <contour>
        <pt x="637" y="1139" on="1"/>
        <pt x="799" y="1139" on="0"/>
        <pt x="1044" y="999" on="0"/>
        <pt x="1176" y="738" on="0"/>
        <pt x="1176" y="561" on="1"/>
        <pt x="1176" y="288" on="0"/>
        <pt x="888" y="-20" on="0"/>
        <pt x="631" y="-20" on="1"/>
        <pt x="469" y="-20" on="0"/>
        <pt x="224" y="121" on="0"/>
        <pt x="92" y="385" on="0"/>
        <pt x="92" y="561" on="1"/>
        <pt x="92" y="835" on="0"/>
        <pt x="378" y="1139" on="0"/>
      </contour>
      <contour>
        <pt x="754" y="893" on="0"/>
        <pt x="512" y="893" on="0"/>
        <pt x="403" y="731" on="0"/>
        <pt x="403" y="392" on="0"/>
        <pt x="514" y="225" on="0"/>
        <pt x="755" y="225" on="0"/>
        <pt x="864" y="391" on="0"/>
        <pt x="864" y="730" on="0"/>
      </contour>
    </TTGlyph>
    <TTGlyph name="one" xMin="121" yMin="0" xMax="846" yMax="1462">
      <contour>
        <pt x="846" y="0" on="1"/>
        <pt x="537" y="0" on="1"/>
        <pt x="537" y="846" on="1"/>
        <pt x="540" y="984" on="1"/>
        <pt x="545" y="1137" on="1"/>
        <pt x="468" y="1060" on="0"/>
        <pt x="438" y="1036" on="1"/>
        <pt x="270" y="901" on="1"/>
        <pt x="121" y="1087" on="1"/>
        <pt x="592" y="1462" on="1"/>
        <pt x="846" y="1462" on="1"/>
      </contour>
    </TTGlyph>
    <TTGlyph name="onehalf" xMin="46" yMin="0" xMax="1716" yMax="1462">
      <contour>
        <pt x="538" y="586" on="1"/>
        <pt x="300" y="586" on="1"/>
        <pt x="300" y="1032" on="1"/>
        <pt x="303" y="1144" on="1"/>
        <pt x="308" y="1239" on="1"/>
        <pt x="281" y="1203" on="0"/>
        <pt x="233" y="1161" on="1"/>
        <pt x="155" y="1100" on="1"/>
        <pt x="46" y="1227" on="1"/>
        <pt x="347" y="1462" on="1"/>
        <pt x="538" y="1462" on="1"/>
      </contour>
      <contour>
        <pt x="559" y="0" on="1"/>
        <pt x="320" y="0" on="1"/>
        <pt x="1131" y="1462" on="1"/>
        <pt x="1370" y="1462" on="1"/>
      </contour>
      <contour>
        <pt x="1397" y="898" on="1"/>
        <pt x="1534" y="898" on="0"/>
        <pt x="1692" y="765" on="0"/>
        <pt x="1692" y="648" on="1"/>
        <pt x="1692" y="564" on="0"/>
        <pt x="1599" y="414" on="0"/>
        <pt x="1469" y="296" on="1"/>
        <pt x="1364" y="201" on="1"/>
        <pt x="1716" y="201" on="1"/>
        <pt x="1716" y="0" on="1"/>
        <pt x="1069" y="0" on="1"/>
        <pt x="1069" y="169" on="1"/>
        <pt x="1293" y="388" on="1"/>
        <pt x="1394" y="487" on="0"/>
        <pt x="1452" y="578" on="0"/>
        <pt x="1452" y="622" on="1"/>
        <pt x="1452" y="705" on="0"/>
        <pt x="1282" y="705" on="0"/>
        <pt x="1184" y="617" on="1"/>
        <pt x="1061" y="769" on="1"/>
        <pt x="1208" y="898" on="0"/>
      </contour>
    </TTGlyph>
    <TTGlyph name="onequarter" xMin="46" yMin="0" xMax="1682" yMax="1462">
      <contour>
        <pt x="538" y="586" on="1"/>
        <pt x="300" y="586" on="1"/>
        <pt x="300" y="1032" on="1"/>
        <pt x="303" y="1144" on="1"/>
        <pt x="308" y="1239" on="1"/>
        <pt x="281" y="1203" on="0"/>
        <pt x="233" y="1161" on="1"/>
        <pt x="155" y="1100" on="1"/>
        <pt x="46" y="1227" on="1"/>
        <pt x="347" y="1462" on="1"/>
        <pt x="538" y="1462" on="1"/>
      </contour>
      <contour>
        <pt x="559" y="0" on="1"/>
        <pt x="320" y="0" on="1"/>
        <pt x="1131" y="1462" on="1"/>
        <pt x="1370" y="1462" on="1"/>
      </contour>
      <contour>
        <pt x="1557" y="320" on="1"/>
        <pt x="1682" y="320" on="1"/>
        <pt x="1682" y="152" on="1"/>
        <pt x="1557" y="152" on="1"/>
        <pt x="1557" y="0" on="1"/>
        <pt x="1319" y="0" on="1"/>
        <pt x="1319" y="152" on="1"/>
        <pt x="936" y="152" on="1"/>
        <pt x="936" y="306" on="1"/>
        <pt x="1321" y="883" on="1"/>
        <pt x="1557" y="883" on="1"/>
      </contour>
      <contour>
        <pt x="1319" y="320" on="1"/>
        <pt x="1319" y="484" on="1"/>
        <pt x="1319" y="570" on="0"/>
        <pt x="1325" y="668" on="1"/>
        <pt x="1315" y="641" on="0"/>
        <pt x="1264" y="535" on="0"/>
        <pt x="1248" y="511" on="1"/>
        <pt x="1121" y="320" on="1"/>
      </contour>
    </TTGlyph>
    <TTGlyph name="onesuperior" xMin="92" yMin="586" xMax="584" yMax="1462">
      <contour>
        <pt x="584" y="586" on="1"/>
        <pt x="346" y="586" on="1"/>
        <pt x="346" y="1032" on="1"/>
        <pt x="349" y="1144" on="1"/>
        <pt x="354" y="1239" on="1"/>
        <pt x="327" y="1203" on="0"/>
        <pt x="279" y="1161" on="1"/>
        <pt x="201" y="1100" on="1"/>
        <pt x="92" y="1227" on="1"/>
        <pt x="393" y="1462" on="1"/>
        <pt x="584" y="1462" on="1"/>
      </contour>
    </TTGlyph>
    <TTGlyph name="oslash" xMin="92" yMin="-76" xMax="1176" yMax="1169">
      <contour>
        <pt x="1034" y="977" on="1"/>
        <pt x="1176" y="823" on="0"/>
        <pt x="1176" y="288" on="0"/>
        <pt x="888" y="-20" on="0"/>
        <pt x="631" y="-20" on="1"/>
        <pt x="505" y="-20" on="0"/>
        <pt x="397" y="25" on="1"/>
        <pt x="330" y="-76" on="1"/>
        <pt x="176" y="29" on="1"/>
        <pt x="244" y="129" on="1"/>
        <pt x="92" y="286" on="0"/>
        <pt x="92" y="835" on="0"/>
        <pt x="378" y="1139" on="0"/>
        <pt x="637" y="1139" on="1"/>
        <pt x="771" y="1139" on="0"/>
        <pt x="885" y="1087" on="1"/>
        <pt x="940" y="1169" on="1"/>
        <pt x="1092" y="1061" on="1"/>
      </contour>
      <contour>
        <pt x="633" y="893" on="1"/>
        <pt x="512" y="893" on="0"/>
        <pt x="403" y="731" on="0"/>
        <pt x="403" y="561" on="1"/>
        <pt x="403" y="465" on="0"/>
        <pt x="422" y="395" on="1"/>
        <pt x="739" y="870" on="1"/>
        <pt x="695" y="893" on="0"/>
      </contour>
      <contour>
        <pt x="635" y="225" on="1"/>
        <pt x="755" y="225" on="0"/>
        <pt x="864" y="391" on="0"/>
        <pt x="864" y="561" on="1"/>
        <pt x="864" y="642" on="0"/>
        <pt x="852" y="702" on="1"/>
        <pt x="543" y="240" on="1"/>
        <pt x="581" y="225" on="0"/>
      </contour>
    </TTGlyph>
    <TTGlyph name="otilde" xMin="92" yMin="-20" xMax="1176" yMax="1550">
      <contour>
        <pt x="776" y="1241" on="1"/>
        <pt x="729" y="1241" on="0"/>
        <pt x="672" y="1268" on="1"/>
        <pt x="653" y="1276" on="0"/>
        <pt x="634" y="1286" on="1"/>
        <pt x="517" y="1346" on="0"/>
        <pt x="436" y="1346" on="0"/>
        <pt x="380" y="1291" on="0"/>
        <pt x="368" y="1239" on="1"/>
        <pt x="219" y="1239" on="1"/>
        <pt x="230" y="1384" on="0"/>
        <pt x="374" y="1548" on="0"/>
        <pt x="491" y="1548" on="1"/>
        <pt x="546" y="1548" on="0"/>
        <pt x="650" y="1496" on="1"/>
        <pt x="686" y="1478" on="0"/>
        <pt x="702" y="1470" on="1"/>
        <pt x="756" y="1444" on="0"/>
        <pt x="831" y="1444" on="0"/>
        <pt x="887" y="1499" on="0"/>
        <pt x="899" y="1550" on="1"/>
        <pt x="1048" y="1550" on="1"/>
        <pt x="1037" y="1405" on="0"/>
        <pt x="892" y="1241" on="0"/>
      </contour>
      <contour>
        <pt x="637" y="1139" on="1"/>
        <pt x="799" y="1139" on="0"/>
        <pt x="1044" y="999" on="0"/>
        <pt x="1176" y="738" on="0"/>
        <pt x="1176" y="561" on="1"/>
        <pt x="1176" y="288" on="0"/>
        <pt x="888" y="-20" on="0"/>
        <pt x="631" y="-20" on="1"/>
        <pt x="469" y="-20" on="0"/>
        <pt x="224" y="121" on="0"/>
        <pt x="92" y="385" on="0"/>
        <pt x="92" y="561" on="1"/>
        <pt x="92" y="835" on="0"/>
        <pt x="378" y="1139" on="0"/>
      </contour>
      <contour>
        <pt x="754" y="893" on="0"/>
        <pt x="512" y="893" on="0"/>
        <pt x="403" y="731" on="0"/>
        <pt x="403" y="392" on="0"/>
        <pt x="514" y="225" on="0"/>
        <pt x="755" y="225" on="0"/>
        <pt x="864" y="391" on="0"/>
        <pt x="864" y="730" on="0"/>
      </contour>
    </TTGlyph>
    <TTGlyph name="overscore" xMin="-6" yMin="1556" xMax="1030" yMax="1757">
      <contour>
        <pt x="1030" y="1556" on="1"/>
        <pt x="-6" y="1556" on="1"/>
        <pt x="-6" y="1757" on="1"/>
        <pt x="1030" y="1757" on="1"/>
      </contour>
    </TTGlyph>
    <TTGlyph name="p" xMin="160" yMin="-492" xMax="1205" yMax="1139">
      <contour>
        <pt x="465" y="972" on="1"/>
        <pt x="571" y="1139" on="0"/>
        <pt x="980" y="1139" on="0"/>
        <pt x="1092" y="985" on="1"/>
        <pt x="1204" y="834" on="0"/>
        <pt x="1205" y="293" on="0"/>
        <pt x="972" y="-20" on="0"/>
        <pt x="781" y="-20" on="1"/>
        <pt x="778" y="-20" on="0"/>
        <pt x="774" y="-20" on="1"/>
        <pt x="578" y="-20" on="0"/>
        <pt x="465" y="123" on="1"/>
        <pt x="449" y="123" on="1"/>
        <pt x="465" y="-12" on="0"/>
        <pt x="465" y="-39" on="1"/>
        <pt x="465" y="-492" on="1"/>
        <pt x="160" y="-492" on="1"/>
        <pt x="160" y="1118" on="1"/>
        <pt x="408" y="1118" on="1"/>
        <pt x="451" y="972" on="1"/>
      </contour>
      <contour>
        <pt x="465" y="563" on="1"/>
        <pt x="465" y="384" on="0"/>
        <pt x="571" y="227" on="0"/>
        <pt x="688" y="227" on="1"/>
        <pt x="893" y="227" on="0"/>
        <pt x="893" y="565" on="1"/>
        <pt x="893" y="731" on="0"/>
        <pt x="791" y="895" on="0"/>
        <pt x="570" y="895" on="0"/>
        <pt x="467" y="755" on="0"/>
        <pt x="465" y="596" on="1"/>
      </contour>
    </TTGlyph>
    <TTGlyph name="paragraph" xMin="113" yMin="-260" xMax="1167" yMax="1556">
      <contour>
        <pt x="1167" y="-260" on="1"/>
        <pt x="1006" y="-260" on="1"/>
        <pt x="1006" y="1356" on="1"/>
        <pt x="840" y="1356" on="1"/>
        <pt x="840" y="-260" on="1"/>
        <pt x="678" y="-260" on="1"/>
        <pt x="678" y="559" on="1"/>
        <pt x="616" y="541" on="0"/>
        <pt x="532" y="541" on="1"/>
        <pt x="317" y="541" on="0"/>
        <pt x="113" y="789" on="0"/>
        <pt x="113" y="1303" on="0"/>
        <pt x="332" y="1556" on="0"/>
        <pt x="563" y="1556" on="1"/>
        <pt x="1167" y="1556" on="1"/>
      </contour>
    </TTGlyph>
    <TTGlyph name="parenleft" xMin="82" yMin="-324" xMax="633" yMax="1462">
      <contour>
        <pt x="348" y="809" on="0"/>
        <pt x="348" y="317" on="0"/>
        <pt x="495" y="-140" on="0"/>
        <pt x="631" y="-324" on="1"/>
        <pt x="383" y="-324" on="1"/>
        <pt x="236" y="-153" on="0"/>
        <pt x="82" y="300" on="0"/>
        <pt x="82" y="826" on="0"/>
        <pt x="237" y="1288" on="0"/>
        <pt x="383" y="1462" on="1"/>
        <pt x="633" y="1462" on="1"/>
        <pt x="493" y="1271" on="0"/>
      </contour>
    </TTGlyph>
    <TTGlyph name="parenright" xMin="61" yMin="-324" xMax="612" yMax="1462">
      <contour>
        <pt x="311" y="1462" on="1"/>
        <pt x="459" y="1285" on="0"/>
        <pt x="612" y="822" on="0"/>
        <pt x="612" y="298" on="0"/>
        <pt x="458" y="-155" on="0"/>
        <pt x="311" y="-324" on="1"/>
        <pt x="63" y="-324" on="1"/>
        <pt x="199" y="-138" on="0"/>
        <pt x="346" y="319" on="0"/>
        <pt x="346" y="809" on="0"/>
        <pt x="201" y="1271" on="0"/>
        <pt x="61" y="1462" on="1"/>
      </contour>
    </TTGlyph>
    <TTGlyph name="pedageshhb" xMin="92" yMin="-20" xMax="1177" yMax="1310">
      <contour>
        <pt x="92" y="853" on="1"/>
        <pt x="92" y="956" on="0"/>
        <pt x="159" y="1118" on="0"/>
        <pt x="266" y="1218" on="0"/>
        <pt x="338" y="1251" on="1"/>
        <pt x="468" y="1310" on="0"/>
        <pt x="635" y="1310" on="1"/>
        <pt x="716" y="1310" on="0"/>
        <pt x="857" y="1280" on="0"/>
        <pt x="1005" y="1191" on="0"/>
        <pt x="1110" y="1049" on="0"/>
        <pt x="1177" y="806" on="0"/>
        <pt x="1177" y="530" on="0"/>
        <pt x="1147" y="339" on="0"/>
        <pt x="1094" y="203" on="0"/>
        <pt x="1014" y="99" on="0"/>
        <pt x="924" y="35" on="0"/>
        <pt x="868" y="15" on="1"/>
        <pt x="769" y="-20" on="0"/>
        <pt x="506" y="-20" on="0"/>
        <pt x="273" y="-6" on="0"/>
        <pt x="220" y="1" on="1"/>
        <pt x="168" y="8" on="1"/>
        <pt x="168" y="232" on="1"/>
        <pt x="398" y="214" on="0"/>
        <pt x="635" y="214" on="1"/>
        <pt x="722" y="214" on="0"/>
        <pt x="778" y="264" on="1"/>
        <pt x="820" y="302" on="0"/>
        <pt x="845" y="393" on="1"/>
        <pt x="862" y="455" on="0"/>
        <pt x="866" y="595" on="0"/>
        <pt x="866" y="697" on="0"/>
        <pt x="864" y="766" on="0"/>
        <pt x="854" y="863" on="0"/>
        <pt x="836" y="927" on="0"/>
        <pt x="802" y="998" on="0"/>
        <pt x="778" y="1018" on="1"/>
        <pt x="721" y="1067" on="0"/>
        <pt x="635" y="1067" on="1"/>
        <pt x="572" y="1067" on="0"/>
        <pt x="479" y="1030" on="0"/>
        <pt x="434" y="982" on="0"/>
        <pt x="420" y="950" on="1"/>
        <pt x="402" y="905" on="0"/>
        <pt x="402" y="814" on="0"/>
        <pt x="441" y="734" on="0"/>
        <pt x="470" y="712" on="1"/>
        <pt x="525" y="670" on="0"/>
        <pt x="571" y="661" on="1"/>
        <pt x="609" y="654" on="1"/>
        <pt x="558" y="426" on="1"/>
        <pt x="505" y="433" on="1"/>
        <pt x="366" y="451" on="0"/>
        <pt x="295" y="484" on="1"/>
        <pt x="92" y="577" on="0"/>
      </contour>
      <contour>
        <pt x="541" y="917" on="0"/>
        <pt x="591" y="963" on="0"/>
        <pt x="678" y="963" on="0"/>
        <pt x="730" y="915" on="0"/>
        <pt x="730" y="837" on="0"/>
        <pt x="678" y="790" on="0"/>
        <pt x="590" y="790" on="0"/>
        <pt x="541" y="835" on="0"/>
      </contour>
    </TTGlyph>
    <TTGlyph name="percent" xMin="63" yMin="-18" xMax="1782" yMax="1483">
      <contour>
        <pt x="408" y="1483" on="1"/>
        <pt x="577" y="1483" on="0"/>
        <pt x="758" y="1246" on="0"/>
        <pt x="758" y="797" on="0"/>
        <pt x="581" y="565" on="0"/>
        <pt x="242" y="565" on="0"/>
        <pt x="63" y="803" on="0"/>
        <pt x="63" y="1026" on="1"/>
        <pt x="63" y="1483" on="0"/>
      </contour>
      <contour>
        <pt x="635" y="0" on="1"/>
        <pt x="395" y="0" on="1"/>
        <pt x="1206" y="1462" on="1"/>
        <pt x="1446" y="1462" on="1"/>
      </contour>
      <contour>
        <pt x="410" y="1274" on="1"/>
        <pt x="360" y="1274" on="0"/>
        <pt x="315" y="1152" on="0"/>
        <pt x="315" y="896" on="0"/>
        <pt x="360" y="772" on="0"/>
        <pt x="410" y="772" on="1"/>
        <pt x="506" y="772" on="0"/>
        <pt x="506" y="1274" on="0"/>
      </contour>
      <contour>
        <pt x="1432" y="899" on="1"/>
        <pt x="1601" y="899" on="0"/>
        <pt x="1782" y="662" on="0"/>
        <pt x="1782" y="214" on="0"/>
        <pt x="1604" y="-18" on="0"/>
        <pt x="1266" y="-18" on="0"/>
        <pt x="1087" y="220" on="0"/>
        <pt x="1087" y="442" on="1"/>
        <pt x="1087" y="899" on="0"/>
      </contour>
      <contour>
        <pt x="1434" y="690" on="1"/>
        <pt x="1384" y="690" on="0"/>
        <pt x="1339" y="568" on="0"/>
        <pt x="1339" y="312" on="0"/>
        <pt x="1384" y="188" on="0"/>
        <pt x="1434" y="188" on="1"/>
        <pt x="1530" y="188" on="0"/>
        <pt x="1530" y="690" on="0"/>
      </contour>
    </TTGlyph>
    <TTGlyph name="period" xMin="117" yMin="-27" xMax="467" yMax="313">
      <contour>
        <pt x="117" y="227" on="0"/>
        <pt x="207" y="313" on="0"/>
        <pt x="376" y="313" on="0"/>
        <pt x="467" y="225" on="0"/>
        <pt x="467" y="64" on="0"/>
        <pt x="374" y="-27" on="0"/>
        <pt x="209" y="-27" on="0"/>
        <pt x="117" y="62" on="0"/>
      </contour>
    </TTGlyph>
    <TTGlyph name="periodcentered" xMin="117" yMin="553" xMax="467" yMax="893">
      <contour>
        <pt x="117" y="807" on="0"/>
        <pt x="207" y="893" on="0"/>
        <pt x="376" y="893" on="0"/>
        <pt x="467" y="805" on="0"/>
        <pt x="467" y="642" on="0"/>
        <pt x="374" y="553" on="0"/>
        <pt x="209" y="553" on="0"/>
        <pt x="117" y="641" on="0"/>
      </contour>
    </TTGlyph>
    <TTGlyph name="perthousand" xMin="63" yMin="-18" xMax="2560" yMax="1483">
      <contour>
        <pt x="408" y="1483" on="1"/>
        <pt x="577" y="1483" on="0"/>
        <pt x="758" y="1246" on="0"/>
        <pt x="758" y="797" on="0"/>
        <pt x="581" y="565" on="0"/>
        <pt x="242" y="565" on="0"/>
        <pt x="63" y="803" on="0"/>
        <pt x="63" y="1026" on="1"/>
        <pt x="63" y="1483" on="0"/>
      </contour>
      <contour>
        <pt x="635" y="0" on="1"/>
        <pt x="395" y="0" on="1"/>
        <pt x="1206" y="1462" on="1"/>
        <pt x="1446" y="1462" on="1"/>
      </contour>
      <contour>
        <pt x="410" y="1274" on="1"/>
        <pt x="360" y="1274" on="0"/>
        <pt x="315" y="1152" on="0"/>
        <pt x="315" y="896" on="0"/>
        <pt x="360" y="772" on="0"/>
        <pt x="410" y="772" on="1"/>
        <pt x="506" y="772" on="0"/>
        <pt x="506" y="1274" on="0"/>
      </contour>
      <contour>
        <pt x="1432" y="899" on="1"/>
        <pt x="1601" y="899" on="0"/>
        <pt x="1782" y="662" on="0"/>
        <pt x="1782" y="214" on="0"/>
        <pt x="1604" y="-18" on="0"/>
        <pt x="1266" y="-18" on="0"/>
        <pt x="1087" y="220" on="0"/>
        <pt x="1087" y="442" on="1"/>
        <pt x="1087" y="899" on="0"/>
      </contour>
      <contour>
        <pt x="2210" y="899" on="1"/>
        <pt x="2379" y="899" on="0"/>
        <pt x="2560" y="662" on="0"/>
        <pt x="2560" y="442" on="1"/>
        <pt x="2560" y="-18" on="0"/>
        <pt x="2210" y="-18" on="1"/>
        <pt x="2045" y="-18" on="0"/>
        <pt x="1866" y="220" on="0"/>
        <pt x="1866" y="442" on="1"/>
        <pt x="1866" y="899" on="0"/>
      </contour>
      <contour>
        <pt x="1434" y="690" on="1"/>
        <pt x="1384" y="690" on="0"/>
        <pt x="1339" y="568" on="0"/>
        <pt x="1339" y="312" on="0"/>
        <pt x="1384" y="188" on="0"/>
        <pt x="1434" y="188" on="1"/>
        <pt x="1530" y="188" on="0"/>
        <pt x="1530" y="690" on="0"/>
      </contour>
      <contour>
        <pt x="2212" y="690" on="1"/>
        <pt x="2162" y="690" on="0"/>
        <pt x="2118" y="569" on="0"/>
        <pt x="2118" y="311" on="0"/>
        <pt x="2162" y="188" on="0"/>
        <pt x="2212" y="188" on="1"/>
        <pt x="2308" y="188" on="0"/>
        <pt x="2308" y="690" on="0"/>
      </contour>
    </TTGlyph>
    <TTGlyph name="plus" xMin="88" yMin="227" xMax="1081" yMax="1221">
      <contour>
        <pt x="694" y="831" on="1"/>
        <pt x="1081" y="831" on="1"/>
        <pt x="1081" y="612" on="1"/>
        <pt x="694" y="612" on="1"/>
        <pt x="694" y="227" on="1"/>
        <pt x="475" y="227" on="1"/>
        <pt x="475" y="612" on="1"/>
        <pt x="88" y="612" on="1"/>
        <pt x="88" y="831" on="1"/>
        <pt x="475" y="831" on="1"/>
        <pt x="475" y="1221" on="1"/>
        <pt x="694" y="1221" on="1"/>
      </contour>
    </TTGlyph>
</ttFont>
